<svg xmlns="http://www.w3.org/2000/svg" fill="none" viewBox="0 0 32 32"><circle cx="16" cy="26.27" r="3.66" fill="url(#paint0_radial_18_17986)"/><circle cx="16" cy="26.27" r="3.66" fill="url(#paint1_linear_18_17986)"/><circle cx="16" cy="26.27" r="3.66" fill="url(#paint2_radial_18_17986)"/><g filter="url(#filter0_i_18_17986)"><rect width="2.41" height="4.36" x="14.8" y="2.06" fill="url(#paint3_radial_18_17986)" rx="1.2"/></g><g filter="url(#filter1_iii_18_17986)"><path fill="url(#paint4_linear_18_17986)" d="M7.98 10.67a8 8 0 0 1 7.76-6.43h.52a8 8 0 0 1 7.76 6.43L25.88 20a4 4 0 0 0 .88 1.81L28 23.26a4 4 0 0 1 .96 2.6v1.32c0 .41-.34.75-.75.75H3.79a.75.75 0 0 1-.75-.75v-1.33a4 4 0 0 1 .96-2.6l1.24-1.45a4 4 0 0 0 .88-1.8z"/></g><path fill="url(#paint5_linear_18_17986)" d="M7.98 10.67a8 8 0 0 1 7.76-6.43h.52a8 8 0 0 1 7.76 6.43L25.88 20a4 4 0 0 0 .88 1.81L28 23.26a4 4 0 0 1 .96 2.6v1.32c0 .41-.34.75-.75.75H3.79a.75.75 0 0 1-.75-.75v-1.33a4 4 0 0 1 .96-2.6l1.24-1.45a4 4 0 0 0 .88-1.8z"/><path fill="url(#paint6_radial_18_17986)" d="M7.98 10.67a8 8 0 0 1 7.76-6.43h.52a8 8 0 0 1 7.76 6.43L25.88 20a4 4 0 0 0 .88 1.81L28 23.26a4 4 0 0 1 .96 2.6v1.32c0 .41-.34.75-.75.75H3.79a.75.75 0 0 1-.75-.75v-1.33a4 4 0 0 1 .96-2.6l1.24-1.45a4 4 0 0 0 .88-1.8z"/><g filter="url(#filter2_f_18_17986)"><path fill="url(#paint7_linear_18_17986)" d="m7.48 21.31-1.56 2.13h21l-1.7-2.13z"/></g><g filter="url(#filter3_f_18_17986)"><path fill="url(#paint8_linear_18_17986)" d="M16.8 9.33a2.26 2.26 0 0 1 4.46-.53l3.03 12.51h-7.5z"/></g><defs><linearGradient id="paint1_linear_18_17986" x1="15.26" x2="15.51" y1="27.16" y2="28.94" gradientUnits="userSpaceOnUse"><stop offset=".19" stop-color="#e57356"/><stop offset="1" stop-color="#e57356" stop-opacity="0"/></linearGradient><linearGradient id="paint4_linear_18_17986" x1="18.47" x2="4.95" y1="26.09" y2="26.09" gradientUnits="userSpaceOnUse"><stop stop-color="#fcb949"/><stop offset="1" stop-color="#e28c37"/></linearGradient><linearGradient id="paint5_linear_18_17986" x1="18.1" x2="18.1" y1="28.19" y2="25.19" gradientUnits="userSpaceOnUse"><stop stop-color="#d7737d"/><stop offset=".3" stop-color="#fca162" stop-opacity="0"/></linearGradient><linearGradient id="paint7_linear_18_17986" x1="6.23" x2="26.29" y1="23.44" y2="23.44" gradientUnits="userSpaceOnUse"><stop offset=".28" stop-color="#f5a43c"/><stop offset="1" stop-color="#ffe154"/></linearGradient><linearGradient id="paint8_linear_18_17986" x1="25.17" x2="15.54" y1="18.57" y2="18.57" gradientUnits="userSpaceOnUse"><stop offset=".12" stop-color="#ffef6d"/><stop offset="1" stop-color="#ffef6d" stop-opacity="0"/></linearGradient><radialGradient id="paint0_radial_18_17986" cx="0" cy="0" r="1" gradientTransform="rotate(233.49 16.33 10.3)scale(2.95496 4.08094)" gradientUnits="userSpaceOnUse"><stop stop-color="#ffc26d"/><stop offset="1" stop-color="#f68d61"/></radialGradient><radialGradient id="paint2_radial_18_17986" cx="0" cy="0" r="1" gradientTransform="rotate(135 2.9 16.86)scale(4.06586 6.70906)" gradientUnits="userSpaceOnUse"><stop offset=".44" stop-color="#ea8059" stop-opacity="0"/><stop offset="1" stop-color="#c27068"/></radialGradient><radialGradient id="paint3_radial_18_17986" cx="0" cy="0" r="1" gradientTransform="matrix(0 -2.18066 1.3125 0 16.8 4.24)" gradientUnits="userSpaceOnUse"><stop stop-color="#ffe957"/><stop offset="1" stop-color="#f7a630"/></radialGradient><radialGradient id="paint6_radial_18_17986" cx="0" cy="0" r="1" gradientTransform="rotate(146.14 8.8 10.67)scale(22.883 21.9517)" gradientUnits="userSpaceOnUse"><stop offset=".67" stop-color="#e69136" stop-opacity="0"/><stop offset=".98" stop-color="#cf7d44"/></radialGradient><filter id="filter0_i_18_17986" width="2.61" height="4.36" x="14.8" y="2.06" color-interpolation-filters="sRGB" filterUnits="userSpaceOnUse"><feFlood flood-opacity="0" result="BackgroundImageFix"/><feBlend in="SourceGraphic" in2="BackgroundImageFix" result="shape"/><feColorMatrix in="SourceAlpha" result="hardAlpha" values="0 0 0 0 0 0 0 0 0 0 0 0 0 0 0 0 0 0 127 0"/><feOffset dx=".2"/><feGaussianBlur stdDeviation=".25"/><feComposite in2="hardAlpha" k2="-1" k3="1" operator="arithmetic"/><feColorMatrix values="0 0 0 0 0.87451 0 0 0 0 0.564706 0 0 0 0 0.341176 0 0 0 1 0"/><feBlend in2="shape" result="effect1_innerShadow_18_17986"/></filter><filter id="filter1_iii_18_17986" width="30.92" height="23.69" x="-.96" y="4.24" color-interpolation-filters="sRGB" filterUnits="userSpaceOnUse"><feFlood flood-opacity="0" result="BackgroundImageFix"/><feBlend in="SourceGraphic" in2="BackgroundImageFix" result="shape"/><feColorMatrix in="SourceAlpha" result="hardAlpha" values="0 0 0 0 0 0 0 0 0 0 0 0 0 0 0 0 0 0 127 0"/><feOffset dx="-4"/><feGaussianBlur stdDeviation="2"/><feComposite in2="hardAlpha" k2="-1" k3="1" operator="arithmetic"/><feColorMatrix values="0 0 0 0 1 0 0 0 0 0.905882 0 0 0 0 0.392157 0 0 0 1 0"/><feBlend in2="shape" result="effect1_innerShadow_18_17986"/><feColorMatrix in="SourceAlpha" result="hardAlpha" values="0 0 0 0 0 0 0 0 0 0 0 0 0 0 0 0 0 0 127 0"/><feOffset dx="-.5"/><feGaussianBlur stdDeviation=".5"/><feComposite in2="hardAlpha" k2="-1" k3="1" operator="arithmetic"/><feColorMatrix values="0 0 0 0 0.996078 0 0 0 0 0.866667 0 0 0 0 0.462745 0 0 0 1 0"/><feBlend in2="effect1_innerShadow_18_17986" result="effect2_innerShadow_18_17986"/><feColorMatrix in="SourceAlpha" result="hardAlpha" values="0 0 0 0 0 0 0 0 0 0 0 0 0 0 0 0 0 0 127 0"/><feOffset dx="1"/><feGaussianBlur stdDeviation="1"/><feComposite in2="hardAlpha" k2="-1" k3="1" operator="arithmetic"/><feColorMatrix values="0 0 0 0 0.917647 0 0 0 0 0.572549 0 0 0 0 0.32549 0 0 0 1 0"/><feBlend in2="effect2_innerShadow_18_17986" result="effect3_innerShadow_18_17986"/></filter><filter id="filter2_f_18_17986" width="25" height="6.13" x="3.92" y="19.31" color-interpolation-filters="sRGB" filterUnits="userSpaceOnUse"><feFlood flood-opacity="0" result="BackgroundImageFix"/><feBlend in="SourceGraphic" in2="BackgroundImageFix" result="shape"/><feGaussianBlur result="effect1_foregroundBlur_18_17986" stdDeviation="1"/></filter><filter id="filter3_f_18_17986" width="11.5" height="18.25" x="14.79" y="5.06" color-interpolation-filters="sRGB" filterUnits="userSpaceOnUse"><feFlood flood-opacity="0" result="BackgroundImageFix"/><feBlend in="SourceGraphic" in2="BackgroundImageFix" result="shape"/><feGaussianBlur result="effect1_foregroundBlur_18_17986" stdDeviation="1"/></filter></defs></svg>