<svg xmlns="http://www.w3.org/2000/svg" fill="none" viewBox="0 0 32 32"><path fill="url(#paint0_linear_18_32476)" d="M27.34 25.6 15 30V16.5L29 13v10.24c0 1.05-.66 2-1.66 2.35"/><path fill="url(#paint1_linear_18_32476)" d="M14.59 3.26 3.2 7.56 17 19l10.98-3.8A3 3 0 0 0 30 12.36v-.9a5 5 0 0 0-3.24-4.68l-9.35-3.52a4 4 0 0 0-2.82 0"/><path fill="url(#paint2_linear_18_32476)" d="M3 13.5v9.96a3 3 0 0 0 1.9 2.79l9.37 3.68A2 2 0 0 0 17 28.07V19l.16-.24a5.02 5.02 0 0 0-2.42-7.48L4.7 7.5A2 2 0 0 0 2 9.4v1.4a4 4 0 0 0 .67 2.2z"/><g filter="url(#filter0_f_18_32476)"><path stroke="url(#paint3_linear_18_32476)" stroke-width=".1" d="m4.7 7.51 10.04 3.77a5.02 5.02 0 0 1 2.42 7.48L17 19v9.07"/></g><path fill="url(#paint4_radial_18_32476)" d="M3.08 13.6v9.8c0 1.21.75 2.3 1.88 2.75l9.27 3.62c1.3.5 2.6-.45 2.6-1.83V19l.15-.23c.55-.81.84-1.77.84-2.74 0-2.06-1.19-3.9-3.12-4.63L4.77 7.7a1.98 1.98 0 0 0-2.68 1.84v1.38c0 .78.23 1.54.67 2.18z"/><path fill="#c4c4c4" d="M8 13.57c0 .24-.14.43-.3.43-.18 0-.32-.2-.32-.43 0-.24.04-.43.2-.43.18 0 .42.19.42.43"/><ellipse cx="7.65" cy="13.56" fill="url(#paint5_radial_18_32476)" rx=".3" ry=".46" transform="rotate(-17.95 7.65 13.56)"/><ellipse cx="5.69" cy="14.53" fill="url(#paint6_radial_18_32476)" rx=".3" ry=".46" transform="rotate(-17.95 5.7 14.53)"/><ellipse cx="5.69" cy="17.47" fill="url(#paint7_radial_18_32476)" rx=".3" ry=".46" transform="rotate(-17.95 5.7 17.47)"/><ellipse cx="5.63" cy="21.47" fill="url(#paint8_radial_18_32476)" rx=".3" ry=".46" transform="rotate(-17.95 5.63 21.47)"/><ellipse cx="7.61" cy="20.47" fill="url(#paint9_radial_18_32476)" rx=".3" ry=".46" transform="rotate(-17.95 7.61 20.47)"/><ellipse cx="7.61" cy="16.47" fill="url(#paint10_radial_18_32476)" rx=".3" ry=".46" transform="rotate(-17.95 7.61 16.47)"/><ellipse cx="9.62" cy="15.47" fill="url(#paint11_radial_18_32476)" rx=".3" ry=".46" transform="rotate(-17.95 9.62 15.47)"/><ellipse cx="11.57" cy="14.53" fill="url(#paint12_radial_18_32476)" rx=".3" ry=".46" transform="rotate(-17.95 11.57 14.53)"/><ellipse cx="11.5" cy="18.53" fill="url(#paint13_radial_18_32476)" rx=".3" ry=".46" transform="rotate(-17.95 11.5 18.53)"/><ellipse cx="9.57" cy="19.53" fill="url(#paint14_radial_18_32476)" rx=".3" ry=".46" transform="rotate(-17.95 9.57 19.53)"/><ellipse cx="9.52" cy="23.36" fill="url(#paint15_radial_18_32476)" rx=".3" ry=".46" transform="rotate(-17.95 9.52 23.36)"/><ellipse cx="11.5" cy="22.34" fill="url(#paint16_radial_18_32476)" rx=".3" ry=".46" transform="rotate(-17.95 11.5 22.34)"/><ellipse cx="13.43" cy="24.47" fill="url(#paint17_radial_18_32476)" rx=".3" ry=".46" transform="rotate(-17.95 13.43 24.47)"/><ellipse cx="13.43" cy="21.42" fill="url(#paint18_radial_18_32476)" rx=".3" ry=".46" transform="rotate(-17.95 13.43 21.42)"/><ellipse cx="13.46" cy="17.57" fill="url(#paint19_radial_18_32476)" rx=".3" ry=".46" transform="rotate(-17.95 13.46 17.57)"/><g filter="url(#filter1_f_18_32476)"><path stroke="url(#paint20_radial_18_32476)" stroke-width=".1" d="M2.67 8.28c.35-.45 1.18-.74 1.64-.6.53.15 7.2 2.63 10.75 3.98a4.7 4.7 0 0 1 2.53 5.17"/></g><defs><radialGradient id="paint4_radial_18_32476" cx="0" cy="0" r="1" gradientTransform="rotate(-20.6 57 8.94)scale(20.965 19.3732)" gradientUnits="userSpaceOnUse"><stop offset=".35" stop-color="#caa177"/><stop offset="1" stop-color="#be977c"/></radialGradient><radialGradient id="paint5_radial_18_32476" cx="0" cy="0" r="1" gradientTransform="matrix(.98016 -.2379 .158 .65098 7.08 13.93)" gradientUnits="userSpaceOnUse"><stop stop-color="#ac8761" stop-opacity="0"/><stop offset="1" stop-color="#956b54"/></radialGradient><radialGradient id="paint6_radial_18_32476" cx="0" cy="0" r="1" gradientTransform="matrix(.98016 -.2379 .158 .65098 5.12 14.9)" gradientUnits="userSpaceOnUse"><stop stop-color="#ac8761" stop-opacity="0"/><stop offset="1" stop-color="#956b54"/></radialGradient><radialGradient id="paint7_radial_18_32476" cx="0" cy="0" r="1" gradientTransform="matrix(.98016 -.2379 .158 .65098 5.12 17.84)" gradientUnits="userSpaceOnUse"><stop stop-color="#ac8761" stop-opacity="0"/><stop offset="1" stop-color="#956b54"/></radialGradient><radialGradient id="paint8_radial_18_32476" cx="0" cy="0" r="1" gradientTransform="matrix(.98016 -.2379 .158 .65098 5.06 21.84)" gradientUnits="userSpaceOnUse"><stop stop-color="#ac8761" stop-opacity="0"/><stop offset="1" stop-color="#956b54"/></radialGradient><radialGradient id="paint9_radial_18_32476" cx="0" cy="0" r="1" gradientTransform="matrix(.98016 -.2379 .158 .65098 7.04 20.84)" gradientUnits="userSpaceOnUse"><stop stop-color="#ac8761" stop-opacity="0"/><stop offset="1" stop-color="#956b54"/></radialGradient><radialGradient id="paint10_radial_18_32476" cx="0" cy="0" r="1" gradientTransform="rotate(-13.64 73.9 -21)scale(1.00862 .66988)" gradientUnits="userSpaceOnUse"><stop stop-color="#ac8761" stop-opacity="0"/><stop offset="1" stop-color="#956b54"/></radialGradient><radialGradient id="paint11_radial_18_32476" cx="0" cy="0" r="1" gradientTransform="matrix(.98016 -.2379 .158 .65098 9.05 15.84)" gradientUnits="userSpaceOnUse"><stop stop-color="#ac8761" stop-opacity="0"/><stop offset="1" stop-color="#956b54"/></radialGradient><radialGradient id="paint12_radial_18_32476" cx="0" cy="0" r="1" gradientTransform="matrix(.98016 -.2379 .158 .65098 11 14.9)" gradientUnits="userSpaceOnUse"><stop stop-color="#ac8761" stop-opacity="0"/><stop offset="1" stop-color="#956b54"/></radialGradient><radialGradient id="paint13_radial_18_32476" cx="0" cy="0" r="1" gradientTransform="matrix(.98016 -.2379 .158 .65098 10.93 18.9)" gradientUnits="userSpaceOnUse"><stop stop-color="#ac8761" stop-opacity="0"/><stop offset="1" stop-color="#956b54"/></radialGradient><radialGradient id="paint14_radial_18_32476" cx="0" cy="0" r="1" gradientTransform="matrix(.98016 -.2379 .158 .65098 9 19.9)" gradientUnits="userSpaceOnUse"><stop stop-color="#ac8761" stop-opacity="0"/><stop offset="1" stop-color="#956b54"/></radialGradient><radialGradient id="paint15_radial_18_32476" cx="0" cy="0" r="1" gradientTransform="matrix(.98016 -.2379 .158 .65098 8.95 23.73)" gradientUnits="userSpaceOnUse"><stop stop-color="#ac8761" stop-opacity="0"/><stop offset="1" stop-color="#956b54"/></radialGradient><radialGradient id="paint16_radial_18_32476" cx="0" cy="0" r="1" gradientTransform="matrix(.98016 -.2379 .158 .65098 10.93 22.71)" gradientUnits="userSpaceOnUse"><stop stop-color="#ac8761" stop-opacity="0"/><stop offset="1" stop-color="#956b54"/></radialGradient><radialGradient id="paint17_radial_18_32476" cx="0" cy="0" r="1" gradientTransform="matrix(.98016 -.2379 .158 .65098 12.86 24.84)" gradientUnits="userSpaceOnUse"><stop stop-color="#ac8761" stop-opacity="0"/><stop offset="1" stop-color="#956b54"/></radialGradient><radialGradient id="paint18_radial_18_32476" cx="0" cy="0" r="1" gradientTransform="matrix(.98016 -.2379 .158 .65098 12.86 21.79)" gradientUnits="userSpaceOnUse"><stop stop-color="#ac8761" stop-opacity="0"/><stop offset="1" stop-color="#956b54"/></radialGradient><radialGradient id="paint19_radial_18_32476" cx="0" cy="0" r="1" gradientTransform="matrix(.98016 -.2379 .158 .65098 12.9 17.94)" gradientUnits="userSpaceOnUse"><stop stop-color="#ac8761" stop-opacity="0"/><stop offset="1" stop-color="#956b54"/></radialGradient><radialGradient id="paint20_radial_18_32476" cx="0" cy="0" r="1" gradientTransform="rotate(98.32 .63 9.56)scale(6.00063 13.6225)" gradientUnits="userSpaceOnUse"><stop stop-color="#f2ce97"/><stop offset="1" stop-color="#ffebcb" stop-opacity="0"/></radialGradient><linearGradient id="paint0_linear_18_32476" x1="22" x2="26.5" y1="16.38" y2="28" gradientUnits="userSpaceOnUse"><stop stop-color="#c3844a"/><stop offset=".68" stop-color="#bc7b46"/><stop offset=".84" stop-color="#895461"/></linearGradient><linearGradient id="paint1_linear_18_32476" x1="13.75" x2="19.38" y1="3" y2="18.25" gradientUnits="userSpaceOnUse"><stop offset=".02" stop-color="#ffc173"/><stop offset=".1" stop-color="#ffc974"/><stop offset=".64" stop-color="#ffcb79"/><stop offset=".75" stop-color="#ffbb6e"/><stop offset=".88" stop-color="#e09f59"/><stop offset="1" stop-color="#9c5c44"/></linearGradient><linearGradient id="paint2_linear_18_32476" x1="1.69" x2="14.63" y1="8.88" y2="30.07" gradientUnits="userSpaceOnUse"><stop stop-color="#df994e"/><stop offset=".48" stop-color="#e0994d"/><stop offset="1" stop-color="#925440"/></linearGradient><linearGradient id="paint3_linear_18_32476" x1="4.06" x2="15.78" y1="7.75" y2="29.84" gradientUnits="userSpaceOnUse"><stop stop-color="#df9a4f"/><stop offset=".43" stop-color="#e2994d"/><stop offset="1" stop-color="#925440"/></linearGradient><filter id="filter0_f_18_32476" width="13.77" height="21" x="4.48" y="7.27" color-interpolation-filters="sRGB" filterUnits="userSpaceOnUse"><feFlood flood-opacity="0" result="BackgroundImageFix"/><feBlend in="SourceGraphic" in2="BackgroundImageFix" result="shape"/><feGaussianBlur result="effect1_foregroundBlur_18_32476" stdDeviation=".1"/></filter><filter id="filter1_f_18_32476" width="15.31" height="9.45" x="2.53" y="7.49" color-interpolation-filters="sRGB" filterUnits="userSpaceOnUse"><feFlood flood-opacity="0" result="BackgroundImageFix"/><feBlend in="SourceGraphic" in2="BackgroundImageFix" result="shape"/><feGaussianBlur result="effect1_foregroundBlur_18_32476" stdDeviation=".05"/></filter></defs></svg>