<svg xmlns="http://www.w3.org/2000/svg" fill="none" viewBox="0 0 32 32"><g clip-path="url(#clip0_30_20)"><path fill="url(#paint0_radial_30_20)" d="M16 30c9.3 0 14-6.3 14-14S25.3 2 16 2 2 8.3 2 16s4.7 14 14 14"/><path fill="url(#paint1_radial_30_20)" d="M16 30c9.3 0 14-6.3 14-14S25.3 2 16 2 2 8.3 2 16s4.7 14 14 14"/><path fill="url(#paint2_radial_30_20)" d="M16 30c9.3 0 14-6.3 14-14S25.3 2 16 2 2 8.3 2 16s4.7 14 14 14"/><path fill="url(#paint3_radial_30_20)" fill-opacity=".6" d="M16 30c9.3 0 14-6.3 14-14S25.3 2 16 2 2 8.3 2 16s4.7 14 14 14"/><path fill="url(#paint4_radial_30_20)" d="M16 30c9.3 0 14-6.3 14-14S25.3 2 16 2 2 8.3 2 16s4.7 14 14 14"/><path fill="url(#paint5_radial_30_20)" d="M16 30c9.3 0 14-6.3 14-14S25.3 2 16 2 2 8.3 2 16s4.7 14 14 14"/><path fill="url(#paint6_radial_30_20)" d="M16 30c9.3 0 14-6.3 14-14S25.3 2 16 2 2 8.3 2 16s4.7 14 14 14"/><path fill="url(#paint7_radial_30_20)" d="M16 30c9.3 0 14-6.3 14-14S25.3 2 16 2 2 8.3 2 16s4.7 14 14 14"/><circle cx="9" cy="15" r="5" fill="url(#paint8_radial_30_20)"/><circle cx="19.5" cy="15.5" r="4.5" fill="url(#paint9_radial_30_20)"/><path fill="#fff" d="M10.5 18a4.5 4.5 0 1 0 0-9 4.5 4.5 0 0 0 0 9m11 0a4.5 4.5 0 1 0 0-9 4.5 4.5 0 0 0 0 9"/><path fill="url(#paint10_linear_30_20)" d="M11 17a3 3 0 1 0 0-6 3 3 0 0 0 0 6"/><path fill="url(#paint11_linear_30_20)" d="M21 17a3 3 0 1 0 0-6 3 3 0 0 0 0 6"/><path stroke="url(#paint12_linear_30_20)" stroke-linecap="round" stroke-width="2" d="M13 21h6"/><path stroke="url(#paint13_linear_30_20)" stroke-linecap="round" stroke-linejoin="round" d="M19.5 7.5s.5-1 2-1 2 1 2 1"/><path stroke="url(#paint14_linear_30_20)" stroke-linecap="round" stroke-linejoin="round" d="M8.5 8.5s.5 1 2 1 2-1 2-1"/></g><defs><radialGradient id="paint0_radial_30_20" cx="0" cy="0" r="1" gradientTransform="rotate(132.8 10.8 10)scale(37.5033)" gradientUnits="userSpaceOnUse"><stop stop-color="#fff478"/><stop offset=".5" stop-color="#ffb02e"/><stop offset="1" stop-color="#f70a8d"/></radialGradient><radialGradient id="paint1_radial_30_20" cx="0" cy="0" r="1" gradientTransform="rotate(131.9 10.7 10.2)scale(38.9487)" gradientUnits="userSpaceOnUse"><stop stop-color="#fff478"/><stop offset=".5" stop-color="#ffb02e"/><stop offset="1" stop-color="#f70a8d"/></radialGradient><radialGradient id="paint2_radial_30_20" cx="0" cy="0" r="1" gradientTransform="rotate(101.3 2.9 12.8)scale(17.8466 22.8581)" gradientUnits="userSpaceOnUse"><stop offset=".8" stop-color="#f59639" stop-opacity="0"/><stop offset="1" stop-color="#ff7dce"/></radialGradient><radialGradient id="paint3_radial_30_20" cx="0" cy="0" r="1" gradientTransform="matrix(-29 29 -29 -29 18 14)" gradientUnits="userSpaceOnUse"><stop offset=".3" stop-opacity="0"/><stop offset="1"/></radialGradient><radialGradient id="paint4_radial_30_20" cx="0" cy="0" r="1" gradientTransform="rotate(77.7 -2.6 18.4)scale(28.1469)" gradientUnits="userSpaceOnUse"><stop offset=".5" stop-color="#7d6133" stop-opacity="0"/><stop offset="1" stop-color="#715b32"/></radialGradient><radialGradient id="paint5_radial_30_20" cx="0" cy="0" r="1" gradientTransform="rotate(55.7 -7.4 23.9)scale(13.3135 9.65032)" gradientUnits="userSpaceOnUse"><stop stop-color="#ffb849"/><stop offset="1" stop-color="#ffb847" stop-opacity="0"/></radialGradient><radialGradient id="paint6_radial_30_20" cx="0" cy="0" r="1" gradientTransform="rotate(9.9 -94 127.8)scale(11.6726)" gradientUnits="userSpaceOnUse"><stop stop-color="#ffa64b"/><stop offset=".9" stop-color="#ffae46" stop-opacity="0"/></radialGradient><radialGradient id="paint7_radial_30_20" cx="0" cy="0" r="1" gradientTransform="rotate(44 -9.8 29.2)scale(59.0529)" gradientUnits="userSpaceOnUse"><stop offset=".2" stop-opacity="0"/><stop offset="1" stop-opacity=".4"/></radialGradient><radialGradient id="paint8_radial_30_20" cx="0" cy="0" r="1" gradientTransform="rotate(135 4.1 8.2)scale(9.74236 5.04232)" gradientUnits="userSpaceOnUse"><stop stop-color="#392108"/><stop offset="1" stop-color="#c87928" stop-opacity="0"/></radialGradient><radialGradient id="paint9_radial_30_20" cx="0" cy="0" r="1" gradientTransform="rotate(135 9 10.8)scale(8.13173 4.5905)" gradientUnits="userSpaceOnUse"><stop stop-color="#392108"/><stop offset="1" stop-color="#c87928" stop-opacity="0"/></radialGradient><linearGradient id="paint10_linear_30_20" x1="22.1" x2="21" y1="11" y2="17" gradientUnits="userSpaceOnUse"><stop stop-color="#553b3e"/><stop offset="1" stop-color="#3d2432"/></linearGradient><linearGradient id="paint11_linear_30_20" x1="22.1" x2="21" y1="11" y2="17" gradientUnits="userSpaceOnUse"><stop stop-color="#553b3e"/><stop offset="1" stop-color="#3d2432"/></linearGradient><linearGradient id="paint12_linear_30_20" x1="16" x2="16" y1="20.5" y2="21.5" gradientUnits="userSpaceOnUse"><stop stop-color="#4f3c43"/><stop offset="1" stop-color="#512756"/></linearGradient><linearGradient id="paint13_linear_30_20" x1="21.5" x2="21.5" y1="6.5" y2="7.5" gradientUnits="userSpaceOnUse"><stop offset="0" stop-color="#524049"/><stop offset="1" stop-color="#4a2c42"/></linearGradient><linearGradient id="paint14_linear_30_20" x1="10.5" x2="10.5" y1="8" y2="9.5" gradientUnits="userSpaceOnUse"><stop offset="0" stop-color="#524049"/><stop offset="1" stop-color="#4a2c42"/></linearGradient><clipPath id="clip0_30_20"><path fill="#fff" d="M0 0h32v32H0z"/></clipPath></defs></svg>