<svg xmlns="http://www.w3.org/2000/svg" fill="none" viewBox="0 0 32 32"><path fill="url(#paint0_radial_14368_1037)" d="M16 30c9.33 0 14-6.27 14-14S25.33 2 16 2 2 8.27 2 16s4.66 14 14 14"/><path fill="url(#paint1_radial_14368_1037)" d="M16 30c9.33 0 14-6.27 14-14S25.33 2 16 2 2 8.27 2 16s4.66 14 14 14"/><path fill="url(#paint2_radial_14368_1037)" d="M16 30c9.33 0 14-6.27 14-14S25.33 2 16 2 2 8.27 2 16s4.66 14 14 14"/><path fill="url(#paint3_radial_14368_1037)" fill-opacity=".6" d="M16 30c9.33 0 14-6.27 14-14S25.33 2 16 2 2 8.27 2 16s4.66 14 14 14"/><path fill="url(#paint4_radial_14368_1037)" d="M16 30c9.33 0 14-6.27 14-14S25.33 2 16 2 2 8.27 2 16s4.66 14 14 14"/><path fill="url(#paint5_radial_14368_1037)" d="M16 30c9.33 0 14-6.27 14-14S25.33 2 16 2 2 8.27 2 16s4.66 14 14 14"/><path fill="url(#paint6_radial_14368_1037)" d="M16 30c9.33 0 14-6.27 14-14S25.33 2 16 2 2 8.27 2 16s4.66 14 14 14"/><path fill="url(#paint7_radial_14368_1037)" d="M16 30c9.33 0 14-6.27 14-14S25.33 2 16 2 2 8.27 2 16s4.66 14 14 14"/><path fill="#fff" d="M14.7 14.4a4.23 4.23 0 1 1-8.46 0 4.23 4.23 0 0 1 8.45 0m2.61 0a4.23 4.23 0 1 0 8.46 0 4.23 4.23 0 0 0-8.45 0"/><path fill="#402931" d="M14 14.4a1.97 1.97 0 1 1-3.93 0 1.97 1.97 0 0 1 3.94 0m3.99 0a1.97 1.97 0 1 0 3.94 0 1.97 1.97 0 0 0-3.94 0"/><g filter="url(#filter0_iii_14368_1037)"><path fill="url(#paint8_linear_14368_1037)" d="M16.5 17.27a1.34 1.34 0 0 0-1.85-.21l-3.55 2.7.32-1a1.3 1.3 0 0 0-.9-1.66 1.36 1.36 0 0 0-1.7.87l-.9 2.84-1.04 2.24-.06.13a4.68 4.68 0 0 0 3.94 6.96 4.7 4.7 0 0 0 3.03-.98l5.35-3.55a1.3 1.3 0 0 0 .33-1.85q-.31-.4-.77-.51l.51-.39c.6-.45.7-1.29.23-1.87q-.31-.36-.76-.47l.16-.12c.6-.45.7-1.29.23-1.86a1.4 1.4 0 0 0-1.93-.23l-.58.44c.3-.44.29-1.04-.07-1.48"/><path fill="url(#paint9_radial_14368_1037)" d="M16.5 17.27a1.34 1.34 0 0 0-1.85-.21l-3.55 2.7.32-1a1.3 1.3 0 0 0-.9-1.66 1.36 1.36 0 0 0-1.7.87l-.9 2.84-1.04 2.24-.06.13a4.68 4.68 0 0 0 3.94 6.96 4.7 4.7 0 0 0 3.03-.98l5.35-3.55a1.3 1.3 0 0 0 .33-1.85q-.31-.4-.77-.51l.51-.39c.6-.45.7-1.29.23-1.87q-.31-.36-.76-.47l.16-.12c.6-.45.7-1.29.23-1.86a1.4 1.4 0 0 0-1.93-.23l-.58.44c.3-.44.29-1.04-.07-1.48"/><path fill="url(#paint10_radial_14368_1037)" d="M16.5 17.27a1.34 1.34 0 0 0-1.85-.21l-3.55 2.7.32-1a1.3 1.3 0 0 0-.9-1.66 1.36 1.36 0 0 0-1.7.87l-.9 2.84-1.04 2.24-.06.13a4.68 4.68 0 0 0 3.94 6.96 4.7 4.7 0 0 0 3.03-.98l5.35-3.55a1.3 1.3 0 0 0 .33-1.85q-.31-.4-.77-.51l.51-.39c.6-.45.7-1.29.23-1.87q-.31-.36-.76-.47l.16-.12c.6-.45.7-1.29.23-1.86a1.4 1.4 0 0 0-1.93-.23l-.58.44c.3-.44.29-1.04-.07-1.48"/></g><g filter="url(#filter1_f_14368_1037)"><path stroke="#d29017" stroke-linecap="round" d="M21.02 6.42c1.44 0 3.61.96 3.77 3.75"/></g><g filter="url(#filter2_f_14368_1037)"><path stroke="url(#paint11_linear_14368_1037)" stroke-linecap="round" d="M10.47 6.61c-1.43 0-3.6.96-3.76 3.75"/></g><g filter="url(#filter3_i_14368_1037)"><path stroke="#4a2d45" stroke-linecap="round" stroke-width="1.3" d="M21.65 5.92c1.43 0 3.6.95 3.76 3.75"/></g><g filter="url(#filter4_f_14368_1037)"><path stroke="url(#paint12_radial_14368_1037)" stroke-linecap="round" stroke-width=".4" d="M21.76 5.76c1.43 0 3.6.95 3.76 3.75"/></g><g filter="url(#filter5_i_14368_1037)"><path stroke="#4a2d45" stroke-linecap="round" stroke-width="1.3" d="M10.35 5.92c-1.43 0-3.6.95-3.76 3.75"/></g><g filter="url(#filter6_f_14368_1037)"><path stroke="url(#paint13_radial_14368_1037)" stroke-linecap="round" stroke-width=".4" d="M10.35 5.76c-1.43 0-3.6.95-3.76 3.75"/></g><path fill="url(#paint14_radial_14368_1037)" d="m16.56 18.76-4.54 3.52-.92-2.52 3.55-2.7c.57-.44 1.4-.34 1.84.21.35.43.38 1 .07 1.5"/><path fill="url(#paint15_linear_14368_1037)" d="m16.56 18.76-4.54 3.52-.92-2.52 3.55-2.7c.57-.44 1.4-.34 1.84.21.35.43.38 1 .07 1.5"/><path fill="url(#paint16_linear_14368_1037)" d="m16.56 18.76-4.54 3.52-.92-2.52 3.55-2.7c.57-.44 1.4-.34 1.84.21.35.43.38 1 .07 1.5"/><path fill="url(#paint17_radial_14368_1037)" d="m16.56 18.76-4.54 3.52-.92-2.52 3.55-2.7c.57-.44 1.4-.34 1.84.21.35.43.38 1 .07 1.5"/><path fill="url(#paint18_radial_14368_1037)" d="m16.68 18.67-4.57 3.52 1.34 2.06 5.24-3.73.15-.12c.6-.45.7-1.29.23-1.86a1.4 1.4 0 0 0-1.93-.23l-.46.35"/><path fill="url(#paint19_linear_14368_1037)" d="m16.68 18.67-4.57 3.52 1.34 2.06 5.24-3.73.15-.12c.6-.45.7-1.29.23-1.86a1.4 1.4 0 0 0-1.93-.23l-.46.35"/><path fill="url(#paint20_radial_14368_1037)" d="m16.68 18.67-4.57 3.52 1.34 2.06 5.24-3.73.15-.12c.6-.45.7-1.29.23-1.86a1.4 1.4 0 0 0-1.93-.23l-.46.35"/><path fill="url(#paint21_linear_14368_1037)" d="m16.68 18.67-4.57 3.52 1.34 2.06 5.24-3.73.15-.12c.6-.45.7-1.29.23-1.86a1.4 1.4 0 0 0-1.93-.23l-.46.35"/><path fill="url(#paint22_radial_14368_1037)" fill-rule="evenodd" d="m14.21 23.71-.07.06 1.2 1.75 3.43-2.32.44-.34c.6-.45.7-1.29.23-1.87q-.3-.36-.75-.47l.15-.12q.13-.09.22-.21l.02-.02M14.2 23.7l4.48-3.19Z" clip-rule="evenodd"/><path fill="url(#paint23_linear_14368_1037)" fill-rule="evenodd" d="m14.21 23.71-.07.06 1.2 1.75 3.43-2.32.44-.34c.6-.45.7-1.29.23-1.87q-.3-.36-.75-.47l.15-.12q.13-.09.22-.21l.02-.02M14.2 23.7l4.48-3.19Z" clip-rule="evenodd"/><path fill="url(#paint24_radial_14368_1037)" fill-rule="evenodd" d="m14.21 23.71-.07.06 1.2 1.75 3.43-2.32.44-.34c.6-.45.7-1.29.23-1.87q-.3-.36-.75-.47l.15-.12q.13-.09.22-.21l.02-.02M14.2 23.7l4.48-3.19Z" clip-rule="evenodd"/><path fill="url(#paint25_linear_14368_1037)" fill-rule="evenodd" d="m14.21 23.71-.07.06 1.2 1.75 3.43-2.32.44-.34c.6-.45.7-1.29.23-1.87q-.3-.36-.75-.47l.15-.12q.13-.09.22-.21l.02-.02M14.2 23.7l4.48-3.19Z" clip-rule="evenodd"/><path fill="url(#paint26_radial_14368_1037)" d="m18.72 23.23-3.36 2.29 1.24 1.78 2.54-1.7c.62-.41.77-1.25.33-1.84q-.31-.4-.77-.51z"/><path fill="url(#paint27_radial_14368_1037)" d="m18.72 23.23-3.36 2.29 1.24 1.78 2.54-1.7c.62-.41.77-1.25.33-1.84q-.31-.4-.77-.51z"/><g filter="url(#filter7_f_14368_1037)"><path fill="url(#paint28_linear_14368_1037)" d="M13.3 22.84c1.25.22 1.92.1 2.06 0a3.6 3.6 0 0 0-.84 1.9z"/></g><g filter="url(#filter8_f_14368_1037)"><path fill="url(#paint29_linear_14368_1037)" d="M14.49 24.75c1.24.21 1.9.1 2.05 0a3.6 3.6 0 0 0-.84 1.9z"/></g><g filter="url(#filter9_f_14368_1037)"><path fill="url(#paint30_linear_14368_1037)" d="M11.68 20.94c1.25.22 1.9.1 2.05 0a3.6 3.6 0 0 0-.84 1.9z"/></g><g filter="url(#filter10_f_14368_1037)"><path fill="url(#paint31_linear_14368_1037)" d="m8.95 21.54 1.9-1.56c-.64.33-1.74.19-1.75 0z"/></g><g filter="url(#filter11_f_14368_1037)"><path stroke="#ffd25b" stroke-linecap="round" d="M11.23 20.76c1.09.62 3.44 2.52 4.16 5.2"/></g><defs><radialGradient id="paint0_radial_14368_1037" cx="0" cy="0" r="1" gradientTransform="rotate(132.84 10.79 10.07)scale(37.5033)" gradientUnits="userSpaceOnUse"><stop stop-color="#fff478"/><stop offset=".47" stop-color="#ffb02e"/><stop offset="1" stop-color="#f70a8d"/></radialGradient><radialGradient id="paint1_radial_14368_1037" cx="0" cy="0" r="1" gradientTransform="rotate(131.88 10.74 10.2)scale(38.9487)" gradientUnits="userSpaceOnUse"><stop stop-color="#fff478"/><stop offset=".47" stop-color="#ffb02e"/><stop offset="1" stop-color="#f70a8d"/></radialGradient><radialGradient id="paint2_radial_14368_1037" cx="0" cy="0" r="1" gradientTransform="rotate(101.31 2.88 12.8)scale(17.8466 22.8581)" gradientUnits="userSpaceOnUse"><stop offset=".79" stop-color="#f59639" stop-opacity="0"/><stop offset=".97" stop-color="#ff7dce"/></radialGradient><radialGradient id="paint3_radial_14368_1037" cx="0" cy="0" r="1" gradientTransform="matrix(-29 29 -29 -29 18 14)" gradientUnits="userSpaceOnUse"><stop offset=".31" stop-opacity="0"/><stop offset="1"/></radialGradient><radialGradient id="paint4_radial_14368_1037" cx="0" cy="0" r="1" gradientTransform="rotate(77.7 -2.55 18.43)scale(28.1469)" gradientUnits="userSpaceOnUse"><stop offset=".51" stop-color="#7d6133" stop-opacity="0"/><stop offset="1" stop-color="#715b32"/></radialGradient><radialGradient id="paint5_radial_14368_1037" cx="0" cy="0" r="1" gradientTransform="rotate(55.71 -7.36 23.86)scale(13.3135 9.65032)" gradientUnits="userSpaceOnUse"><stop stop-color="#ffb849"/><stop offset="1" stop-color="#ffb847" stop-opacity="0"/></radialGradient><radialGradient id="paint6_radial_14368_1037" cx="0" cy="0" r="1" gradientTransform="matrix(11.49998 2 -2 11.49998 20.5 18)" gradientUnits="userSpaceOnUse"><stop stop-color="#ffa64b"/><stop offset=".9" stop-color="#ffae46" stop-opacity="0"/></radialGradient><radialGradient id="paint7_radial_14368_1037" cx="0" cy="0" r="1" gradientTransform="rotate(43.97 -9.83 29.17)scale(59.0529)" gradientUnits="userSpaceOnUse"><stop offset=".19" stop-opacity="0"/><stop offset="1" stop-opacity=".4"/></radialGradient><radialGradient id="paint9_radial_14368_1037" cx="0" cy="0" r="1" gradientTransform="rotate(156.7 3.7 10.06)scale(1.22484 .98884)" gradientUnits="userSpaceOnUse"><stop stop-color="#ffd862"/><stop offset="1" stop-color="#ffd862" stop-opacity="0"/></radialGradient><radialGradient id="paint10_radial_14368_1037" cx="0" cy="0" r="1" gradientTransform="rotate(-6.2 260.5 -41.92)scale(4.11603 7.17629)" gradientUnits="userSpaceOnUse"><stop stop-color="#ef9d34"/><stop offset="1" stop-color="#ef9d34" stop-opacity="0"/></radialGradient><radialGradient id="paint12_radial_14368_1037" cx="0" cy="0" r="1" gradientTransform="rotate(125 10.57 9.63)scale(2.67018 6.92507)" gradientUnits="userSpaceOnUse"><stop stop-color="#5c4d50"/><stop offset="1" stop-color="#5c4d50" stop-opacity="0"/></radialGradient><radialGradient id="paint13_radial_14368_1037" cx="0" cy="0" r="1" gradientTransform="rotate(55 -2.44 10.53)scale(2.67018 6.92507)" gradientUnits="userSpaceOnUse"><stop stop-color="#5c4d50"/><stop offset="1" stop-color="#5c4d50" stop-opacity="0"/></radialGradient><radialGradient id="paint14_radial_14368_1037" cx="0" cy="0" r="1" gradientTransform="rotate(144.54 4.96 12.24)scale(5.06404 1.29667)" gradientUnits="userSpaceOnUse"><stop offset=".48" stop-color="#f9b417"/><stop offset="1" stop-color="#f9b417" stop-opacity="0"/></radialGradient><radialGradient id="paint17_radial_14368_1037" cx="0" cy="0" r="1" gradientTransform="rotate(141.84 5.07 11.6)scale(1.11278 .7544)" gradientUnits="userSpaceOnUse"><stop stop-color="#ffda65"/><stop offset="1" stop-color="#ffda65" stop-opacity="0"/></radialGradient><radialGradient id="paint18_radial_14368_1037" cx="0" cy="0" r="1" gradientTransform="rotate(143.76 6.52 13.26)scale(7.98173 1.50515)" gradientUnits="userSpaceOnUse"><stop offset=".48" stop-color="#f9b417"/><stop offset="1" stop-color="#f9b417" stop-opacity="0"/></radialGradient><radialGradient id="paint20_radial_14368_1037" cx="0" cy="0" r="1" gradientTransform="rotate(142.9 6.39 12.47)scale(1.60626 .95774)" gradientUnits="userSpaceOnUse"><stop stop-color="#ffda65"/><stop offset="1" stop-color="#ffda65" stop-opacity="0"/></radialGradient><radialGradient id="paint22_radial_14368_1037" cx="0" cy="0" r="1" gradientTransform="rotate(147.26 7.78 13.96)scale(7.86716 1.41528)" gradientUnits="userSpaceOnUse"><stop offset=".48" stop-color="#f9b417"/><stop offset="1" stop-color="#f9b417" stop-opacity="0"/></radialGradient><radialGradient id="paint24_radial_14368_1037" cx="0" cy="0" r="1" gradientTransform="rotate(149.04 6.88 13.23)scale(1.36663 1.007)" gradientUnits="userSpaceOnUse"><stop stop-color="#ffda65"/><stop offset="1" stop-color="#ffda65" stop-opacity="0"/></radialGradient><radialGradient id="paint26_radial_14368_1037" cx="0" cy="0" r="1" gradientTransform="rotate(51.1 -16 30.2)scale(1.10426 2.80321)" gradientUnits="userSpaceOnUse"><stop offset=".43" stop-color="#f7b51d"/><stop offset="1" stop-color="#f7b51d" stop-opacity="0"/></radialGradient><radialGradient id="paint27_radial_14368_1037" cx="0" cy="0" r="1" gradientTransform="rotate(149.7 6.57 14.6)scale(1.05864 .77016)" gradientUnits="userSpaceOnUse"><stop stop-color="#ffda65"/><stop offset="1" stop-color="#ffda65" stop-opacity="0"/></radialGradient><linearGradient id="paint8_linear_14368_1037" x1="19.15" x2="7.05" y1="19.56" y2="28.51" gradientUnits="userSpaceOnUse"><stop offset=".21" stop-color="#ffc549"/><stop offset="1" stop-color="#fba945"/></linearGradient><linearGradient id="paint11_linear_14368_1037" x1="8.59" x2="7.57" y1="6.61" y2="10.16" gradientUnits="userSpaceOnUse"><stop stop-color="#c98409"/><stop offset="1" stop-color="#ca8e07"/></linearGradient><linearGradient id="paint15_linear_14368_1037" x1="12.97" x2="13.94" y1="17.84" y2="19.03" gradientUnits="userSpaceOnUse"><stop stop-color="#edb225"/><stop offset="1" stop-color="#edb225" stop-opacity="0"/></linearGradient><linearGradient id="paint16_linear_14368_1037" x1="11.59" x2="13.56" y1="21.41" y2="19.75" gradientUnits="userSpaceOnUse"><stop stop-color="#febc48"/><stop offset="1" stop-color="#febc48" stop-opacity="0"/></linearGradient><linearGradient id="paint19_linear_14368_1037" x1="14.78" x2="15.56" y1="19.81" y2="20.81" gradientUnits="userSpaceOnUse"><stop stop-color="#f7b51d"/><stop offset="1" stop-color="#f7b51d" stop-opacity="0"/></linearGradient><linearGradient id="paint21_linear_14368_1037" x1="12.81" x2="14.59" y1="23.31" y2="21.94" gradientUnits="userSpaceOnUse"><stop offset=".31" stop-color="#febb48"/><stop offset="1" stop-color="#febb48" stop-opacity="0"/></linearGradient><linearGradient id="paint23_linear_14368_1037" x1="16.89" x2="17.57" y1="21.23" y2="22.22" gradientUnits="userSpaceOnUse"><stop stop-color="#f7b51d"/><stop offset="1" stop-color="#f7b51d" stop-opacity="0"/></linearGradient><linearGradient id="paint25_linear_14368_1037" x1="14.86" x2="16.51" y1="24.39" y2="22.94" gradientUnits="userSpaceOnUse"><stop offset=".31" stop-color="#febb48"/><stop offset="1" stop-color="#febb48" stop-opacity="0"/></linearGradient><linearGradient id="paint28_linear_14368_1037" x1="15.42" x2="13.98" y1="22.84" y2="23.86" gradientUnits="userSpaceOnUse"><stop offset=".24" stop-color="#ffd563"/><stop offset="1" stop-color="#ffd563" stop-opacity="0"/></linearGradient><linearGradient id="paint29_linear_14368_1037" x1="16.6" x2="15.16" y1="24.75" y2="25.76" gradientUnits="userSpaceOnUse"><stop offset=".24" stop-color="#ffd563"/><stop offset="1" stop-color="#ffd563" stop-opacity="0"/></linearGradient><linearGradient id="paint30_linear_14368_1037" x1="13.79" x2="12.35" y1="20.94" y2="21.95" gradientUnits="userSpaceOnUse"><stop offset=".24" stop-color="#ffd563"/><stop offset="1" stop-color="#ffd563" stop-opacity="0"/></linearGradient><linearGradient id="paint31_linear_14368_1037" x1="10.91" x2="9.69" y1="19.98" y2="20.96" gradientUnits="userSpaceOnUse"><stop offset=".24" stop-color="#ffd563"/><stop offset="1" stop-color="#ffd563" stop-opacity="0"/></linearGradient><filter id="filter0_iii_14368_1037" width="13.78" height="14.06" x="6.21" y="16.29" color-interpolation-filters="sRGB" filterUnits="userSpaceOnUse"><feFlood flood-opacity="0" result="BackgroundImageFix"/><feBlend in="SourceGraphic" in2="BackgroundImageFix" result="shape"/><feColorMatrix in="SourceAlpha" result="hardAlpha" values="0 0 0 0 0 0 0 0 0 0 0 0 0 0 0 0 0 0 127 0"/><feOffset dx=".25" dy="-.5"/><feGaussianBlur stdDeviation=".5"/><feComposite in2="hardAlpha" k2="-1" k3="1" operator="arithmetic"/><feColorMatrix values="0 0 0 0 0.988235 0 0 0 0 0.603922 0 0 0 0 0.329412 0 0 0 1 0"/><feBlend in2="shape" result="effect1_innerShadow_14368_1037"/><feColorMatrix in="SourceAlpha" result="hardAlpha" values="0 0 0 0 0 0 0 0 0 0 0 0 0 0 0 0 0 0 127 0"/><feOffset dy=".2"/><feGaussianBlur stdDeviation=".3"/><feComposite in2="hardAlpha" k2="-1" k3="1" operator="arithmetic"/><feColorMatrix values="0 0 0 0 0.854902 0 0 0 0 0.698039 0 0 0 0 0.258824 0 0 0 1 0"/><feBlend in2="effect1_innerShadow_14368_1037" result="effect2_innerShadow_14368_1037"/><feColorMatrix in="SourceAlpha" result="hardAlpha" values="0 0 0 0 0 0 0 0 0 0 0 0 0 0 0 0 0 0 127 0"/><feOffset dy="-.15"/><feGaussianBlur stdDeviation=".1"/><feComposite in2="hardAlpha" k2="-1" k3="1" operator="arithmetic"/><feColorMatrix values="0 0 0 0 0.984314 0 0 0 0 0.529412 0 0 0 0 0.615686 0 0 0 1 0"/><feBlend in2="effect2_innerShadow_14368_1037" result="effect3_innerShadow_14368_1037"/></filter><filter id="filter1_f_14368_1037" width="6.26" height="6.25" x="19.77" y="5.17" color-interpolation-filters="sRGB" filterUnits="userSpaceOnUse"><feFlood flood-opacity="0" result="BackgroundImageFix"/><feBlend in="SourceGraphic" in2="BackgroundImageFix" result="shape"/><feGaussianBlur result="effect1_foregroundBlur_14368_1037" stdDeviation=".38"/></filter><filter id="filter2_f_14368_1037" width="6.26" height="6.25" x="5.46" y="5.36" color-interpolation-filters="sRGB" filterUnits="userSpaceOnUse"><feFlood flood-opacity="0" result="BackgroundImageFix"/><feBlend in="SourceGraphic" in2="BackgroundImageFix" result="shape"/><feGaussianBlur result="effect1_foregroundBlur_14368_1037" stdDeviation=".38"/></filter><filter id="filter3_i_14368_1037" width="5.31" height="5.3" x="21" y="5.02" color-interpolation-filters="sRGB" filterUnits="userSpaceOnUse"><feFlood flood-opacity="0" result="BackgroundImageFix"/><feBlend in="SourceGraphic" in2="BackgroundImageFix" result="shape"/><feColorMatrix in="SourceAlpha" result="hardAlpha" values="0 0 0 0 0 0 0 0 0 0 0 0 0 0 0 0 0 0 127 0"/><feOffset dx=".25" dy="-.25"/><feGaussianBlur stdDeviation=".2"/><feComposite in2="hardAlpha" k2="-1" k3="1" operator="arithmetic"/><feColorMatrix values="0 0 0 0 0.286275 0 0 0 0 0.192157 0 0 0 0 0.14902 0 0 0 1 0"/><feBlend in2="shape" result="effect1_innerShadow_14368_1037"/></filter><filter id="filter4_f_14368_1037" width="4.96" height="4.95" x="21.16" y="5.16" color-interpolation-filters="sRGB" filterUnits="userSpaceOnUse"><feFlood flood-opacity="0" result="BackgroundImageFix"/><feBlend in="SourceGraphic" in2="BackgroundImageFix" result="shape"/><feGaussianBlur result="effect1_foregroundBlur_14368_1037" stdDeviation=".2"/></filter><filter id="filter5_i_14368_1037" width="5.31" height="5.3" x="5.94" y="5.02" color-interpolation-filters="sRGB" filterUnits="userSpaceOnUse"><feFlood flood-opacity="0" result="BackgroundImageFix"/><feBlend in="SourceGraphic" in2="BackgroundImageFix" result="shape"/><feColorMatrix in="SourceAlpha" result="hardAlpha" values="0 0 0 0 0 0 0 0 0 0 0 0 0 0 0 0 0 0 127 0"/><feOffset dx=".25" dy="-.25"/><feGaussianBlur stdDeviation=".2"/><feComposite in2="hardAlpha" k2="-1" k3="1" operator="arithmetic"/><feColorMatrix values="0 0 0 0 0.286275 0 0 0 0 0.192157 0 0 0 0 0.14902 0 0 0 1 0"/><feBlend in2="shape" result="effect1_innerShadow_14368_1037"/></filter><filter id="filter6_f_14368_1037" width="4.96" height="4.95" x="5.99" y="5.16" color-interpolation-filters="sRGB" filterUnits="userSpaceOnUse"><feFlood flood-opacity="0" result="BackgroundImageFix"/><feBlend in="SourceGraphic" in2="BackgroundImageFix" result="shape"/><feGaussianBlur result="effect1_foregroundBlur_14368_1037" stdDeviation=".2"/></filter><filter id="filter7_f_14368_1037" width="2.45" height="2.3" x="13.11" y="22.64" color-interpolation-filters="sRGB" filterUnits="userSpaceOnUse"><feFlood flood-opacity="0" result="BackgroundImageFix"/><feBlend in="SourceGraphic" in2="BackgroundImageFix" result="shape"/><feGaussianBlur result="effect1_foregroundBlur_14368_1037" stdDeviation=".1"/></filter><filter id="filter8_f_14368_1037" width="2.45" height="2.3" x="14.29" y="24.55" color-interpolation-filters="sRGB" filterUnits="userSpaceOnUse"><feFlood flood-opacity="0" result="BackgroundImageFix"/><feBlend in="SourceGraphic" in2="BackgroundImageFix" result="shape"/><feGaussianBlur result="effect1_foregroundBlur_14368_1037" stdDeviation=".1"/></filter><filter id="filter9_f_14368_1037" width="2.45" height="2.3" x="11.48" y="20.74" color-interpolation-filters="sRGB" filterUnits="userSpaceOnUse"><feFlood flood-opacity="0" result="BackgroundImageFix"/><feBlend in="SourceGraphic" in2="BackgroundImageFix" result="shape"/><feGaussianBlur result="effect1_foregroundBlur_14368_1037" stdDeviation=".1"/></filter><filter id="filter10_f_14368_1037" width="2.31" height="1.96" x="8.75" y="19.78" color-interpolation-filters="sRGB" filterUnits="userSpaceOnUse"><feFlood flood-opacity="0" result="BackgroundImageFix"/><feBlend in="SourceGraphic" in2="BackgroundImageFix" result="shape"/><feGaussianBlur result="effect1_foregroundBlur_14368_1037" stdDeviation=".1"/></filter><filter id="filter11_f_14368_1037" width="8.15" height="9.19" x="9.23" y="18.76" color-interpolation-filters="sRGB" filterUnits="userSpaceOnUse"><feFlood flood-opacity="0" result="BackgroundImageFix"/><feBlend in="SourceGraphic" in2="BackgroundImageFix" result="shape"/><feGaussianBlur result="effect1_foregroundBlur_14368_1037" stdDeviation=".75"/></filter></defs></svg>