<svg xmlns="http://www.w3.org/2000/svg" fill="none" viewBox="0 0 32 32"><g clip-path="url(#clip0_31_1609)"><path fill="url(#paint0_radial_31_1609)" d="M16 30c9.3 0 14-6.3 14-14S25.3 2 16 2 2 8.3 2 16s4.7 14 14 14"/><path fill="url(#paint1_radial_31_1609)" d="M16 30c9.3 0 14-6.3 14-14S25.3 2 16 2 2 8.3 2 16s4.7 14 14 14"/><path fill="url(#paint2_radial_31_1609)" d="M16 30c9.3 0 14-6.3 14-14S25.3 2 16 2 2 8.3 2 16s4.7 14 14 14"/><path fill="url(#paint3_radial_31_1609)" fill-opacity=".6" d="M16 30c9.3 0 14-6.3 14-14S25.3 2 16 2 2 8.3 2 16s4.7 14 14 14"/><path fill="url(#paint4_radial_31_1609)" d="M16 30c9.3 0 14-6.3 14-14S25.3 2 16 2 2 8.3 2 16s4.7 14 14 14"/><path fill="url(#paint5_radial_31_1609)" d="M16 30c9.3 0 14-6.3 14-14S25.3 2 16 2 2 8.3 2 16s4.7 14 14 14"/><path fill="url(#paint6_radial_31_1609)" d="M16 30c9.3 0 14-6.3 14-14S25.3 2 16 2 2 8.3 2 16s4.7 14 14 14"/><path fill="url(#paint7_radial_31_1609)" d="M16 30c9.3 0 14-6.3 14-14S25.3 2 16 2 2 8.3 2 16s4.7 14 14 14"/><path fill="url(#paint8_radial_31_1609)" d="M7.5 26a6.5 6.5 0 1 0 0-13 6.5 6.5 0 0 0 0 13" opacity=".5"/><path fill="url(#paint9_radial_31_1609)" d="M24.5 26a6.5 6.5 0 1 0 0-13 6.5 6.5 0 0 0 0 13" opacity=".5"/><circle cx="9" cy="15" r="5" fill="url(#paint10_radial_31_1609)"/><circle cx="19.5" cy="15.5" r="4.5" fill="url(#paint11_radial_31_1609)"/><path fill="#fff" d="M10.5 18a4.5 4.5 0 1 0 0-9 4.5 4.5 0 0 0 0 9m11 0a4.5 4.5 0 1 0 0-9 4.5 4.5 0 0 0 0 9"/><path fill="url(#paint12_linear_31_1609)" d="M12 16a2 2 0 1 0 0-4 2 2 0 0 0 0 4"/><path fill="url(#paint13_linear_31_1609)" d="M20 16a2 2 0 1 0 0-4 2 2 0 0 0 0 4"/><path stroke="url(#paint14_linear_31_1609)" stroke-linecap="round" stroke-linejoin="round" d="M6.5 9.5c.3-1 1.6-3 4-3"/><path stroke="url(#paint15_linear_31_1609)" stroke-linecap="round" stroke-linejoin="round" d="M25.5 9.5c-.3-1-1.6-3-4-3"/><path stroke="url(#paint16_linear_31_1609)" stroke-linecap="round" stroke-width="2" d="M14 23h4"/></g><defs><radialGradient id="paint0_radial_31_1609" cx="0" cy="0" r="1" gradientTransform="rotate(132.8 10.8 10)scale(37.5033)" gradientUnits="userSpaceOnUse"><stop stop-color="#fff478"/><stop offset=".5" stop-color="#ffb02e"/><stop offset="1" stop-color="#f70a8d"/></radialGradient><radialGradient id="paint1_radial_31_1609" cx="0" cy="0" r="1" gradientTransform="rotate(131.9 10.7 10.2)scale(38.9487)" gradientUnits="userSpaceOnUse"><stop stop-color="#fff478"/><stop offset=".5" stop-color="#ffb02e"/><stop offset="1" stop-color="#f70a8d"/></radialGradient><radialGradient id="paint2_radial_31_1609" cx="0" cy="0" r="1" gradientTransform="rotate(101.3 2.9 12.8)scale(17.8466 22.8581)" gradientUnits="userSpaceOnUse"><stop offset=".8" stop-color="#f59639" stop-opacity="0"/><stop offset="1" stop-color="#ff7dce"/></radialGradient><radialGradient id="paint3_radial_31_1609" cx="0" cy="0" r="1" gradientTransform="matrix(-29 29 -29 -29 18 14)" gradientUnits="userSpaceOnUse"><stop offset=".3" stop-opacity="0"/><stop offset="1"/></radialGradient><radialGradient id="paint4_radial_31_1609" cx="0" cy="0" r="1" gradientTransform="rotate(77.7 -2.6 18.4)scale(28.1469)" gradientUnits="userSpaceOnUse"><stop offset=".5" stop-color="#7d6133" stop-opacity="0"/><stop offset="1" stop-color="#715b32"/></radialGradient><radialGradient id="paint5_radial_31_1609" cx="0" cy="0" r="1" gradientTransform="rotate(55.7 -7.4 23.9)scale(13.3135 9.65032)" gradientUnits="userSpaceOnUse"><stop stop-color="#ffb849"/><stop offset="1" stop-color="#ffb847" stop-opacity="0"/></radialGradient><radialGradient id="paint6_radial_31_1609" cx="0" cy="0" r="1" gradientTransform="rotate(9.9 -94 127.8)scale(11.6726)" gradientUnits="userSpaceOnUse"><stop stop-color="#ffa64b"/><stop offset=".9" stop-color="#ffae46" stop-opacity="0"/></radialGradient><radialGradient id="paint7_radial_31_1609" cx="0" cy="0" r="1" gradientTransform="rotate(44 -9.8 29.2)scale(59.0529)" gradientUnits="userSpaceOnUse"><stop offset=".2" stop-opacity="0"/><stop offset="1" stop-opacity=".4"/></radialGradient><radialGradient id="paint8_radial_31_1609" cx="0" cy="0" r="1" gradientTransform="translate(7.5 19.5)scale(6.49487)" gradientUnits="userSpaceOnUse"><stop stop-color="#f70a8d" stop-opacity=".6"/><stop offset="1" stop-color="#ff6dc6" stop-opacity="0"/></radialGradient><radialGradient id="paint9_radial_31_1609" cx="0" cy="0" r="1" gradientTransform="translate(24.5 19.5)scale(6.49487)" gradientUnits="userSpaceOnUse"><stop stop-color="#f70a8d" stop-opacity=".6"/><stop offset="1" stop-color="#ff6dc6" stop-opacity="0"/></radialGradient><radialGradient id="paint10_radial_31_1609" cx="0" cy="0" r="1" gradientTransform="rotate(135 4.1 8.2)scale(9.74236 5.04232)" gradientUnits="userSpaceOnUse"><stop stop-color="#392108"/><stop offset="1" stop-color="#c87928" stop-opacity="0"/></radialGradient><radialGradient id="paint11_radial_31_1609" cx="0" cy="0" r="1" gradientTransform="rotate(135 9 10.8)scale(8.13173 4.5905)" gradientUnits="userSpaceOnUse"><stop stop-color="#392108"/><stop offset="1" stop-color="#c87928" stop-opacity="0"/></radialGradient><linearGradient id="paint12_linear_31_1609" x1="20.6" x2="19.9" y1="12" y2="16" gradientUnits="userSpaceOnUse"><stop stop-color="#553b3e"/><stop offset="1" stop-color="#3d2432"/></linearGradient><linearGradient id="paint13_linear_31_1609" x1="20.6" x2="19.9" y1="12" y2="16" gradientUnits="userSpaceOnUse"><stop stop-color="#553b3e"/><stop offset="1" stop-color="#3d2432"/></linearGradient><linearGradient id="paint14_linear_31_1609" x1="6.8" x2="6.8" y1="10.4" y2="8.6" gradientUnits="userSpaceOnUse"><stop offset="0" stop-color="#524049"/><stop offset="1" stop-color="#4a2c42"/></linearGradient><linearGradient id="paint15_linear_31_1609" x1="25.2" x2="25.2" y1="10.4" y2="8.6" gradientUnits="userSpaceOnUse"><stop offset="0" stop-color="#524049"/><stop offset="1" stop-color="#4a2c42"/></linearGradient><linearGradient id="paint16_linear_31_1609" x1="17" x2="17" y1="22.5" y2="23.5" gradientUnits="userSpaceOnUse"><stop stop-color="#4f3c43"/><stop offset="1" stop-color="#512756"/></linearGradient><clipPath id="clip0_31_1609"><path fill="#fff" d="M0 0h32v32H0z"/></clipPath></defs></svg>