<svg xmlns="http://www.w3.org/2000/svg" fill="none" viewBox="0 0 32 32"><g filter="url(#filter0_ii_18_14846)"><path fill="#f6c327" d="m28.98 17.37-3.1.21c-.84.07-1.19 1.08-.55 1.61l2.39 1.96a.96.96 0 0 0 1.52-.43l.7-2.13a.93.93 0 0 0-.96-1.22"/></g><path fill="url(#paint0_radial_18_14846)" d="m28.98 17.37-3.1.21c-.84.07-1.19 1.08-.55 1.61l2.39 1.96a.96.96 0 0 0 1.52-.43l.7-2.13a.93.93 0 0 0-.96-1.22"/><g filter="url(#filter1_ii_18_14846)"><path fill="#f4c226" d="m21.75 3.06-.72 2.9a.9.9 0 0 0 1.34.98l2.54-1.58a.92.92 0 0 0 .05-1.52l-1.78-1.3a.9.9 0 0 0-1.43.52"/></g><path fill="url(#paint1_linear_18_14846)" d="m21.75 3.06-.72 2.9a.9.9 0 0 0 1.34.98l2.54-1.58a.92.92 0 0 0 .05-1.52l-1.78-1.3a.9.9 0 0 0-1.43.52"/><g filter="url(#filter2_ii_18_14846)"><path fill="#eaba25" d="m6.43 5.36 2.53 1.58a.9.9 0 0 0 1.35-.98l-.72-2.9a.92.92 0 0 0-1.43-.52l-1.78 1.3a.93.93 0 0 0 .05 1.52"/></g><g filter="url(#filter3_i_18_14846)"><path fill="#dfad26" d="m4.19 21.08 2.29-1.92a.9.9 0 0 0-.51-1.58l-2.98-.2a.92.92 0 0 0-.94 1.2l.68 2.08c.2.62.97.84 1.46.42"/><path fill="url(#paint2_linear_18_14846)" d="m4.19 21.08 2.29-1.92a.9.9 0 0 0-.51-1.58l-2.98-.2a.92.92 0 0 0-.94 1.2l.68 2.08c.2.62.97.84 1.46.42"/></g><g filter="url(#filter4_i_18_14846)"><path fill="#e3b028" d="m17.8 28.37-1.12-2.77a.9.9 0 0 0-1.66 0l-1.12 2.77c-.24.6.2 1.26.85 1.26h2.2a.92.92 0 0 0 .85-1.26"/><path fill="url(#paint3_linear_18_14846)" d="m17.8 28.37-1.12-2.77a.9.9 0 0 0-1.66 0l-1.12 2.77c-.24.6.2 1.26.85 1.26h2.2a.92.92 0 0 0 .85-1.26"/></g><g filter="url(#filter5_iii_18_14846)"><path fill="url(#paint4_radial_18_14846)" d="m17.56 3.7 1.74 3.7c.33.7.97 1.18 1.72 1.3l4.05.62a2.3 2.3 0 0 1 1.3 3.85l-3.1 3.19c-.5.51-.72 1.25-.6 1.96l.7 4.38a2.28 2.28 0 0 1-3.35 2.37l-3.4-1.9a2.3 2.3 0 0 0-2.21 0l-3.4 1.9a2.28 2.28 0 0 1-3.36-2.37l.7-4.38c.13-.71-.1-1.45-.6-1.96l-3.1-3.19a2.29 2.29 0 0 1 1.3-3.85L10 8.7a2.3 2.3 0 0 0 1.71-1.29l1.73-3.72a2.27 2.27 0 0 1 4.12 0"/><path fill="url(#paint5_radial_18_14846)" d="m17.56 3.7 1.74 3.7c.33.7.97 1.18 1.72 1.3l4.05.62a2.3 2.3 0 0 1 1.3 3.85l-3.1 3.19c-.5.51-.72 1.25-.6 1.96l.7 4.38a2.28 2.28 0 0 1-3.35 2.37l-3.4-1.9a2.3 2.3 0 0 0-2.21 0l-3.4 1.9a2.28 2.28 0 0 1-3.36-2.37l.7-4.38c.13-.71-.1-1.45-.6-1.96l-3.1-3.19a2.29 2.29 0 0 1 1.3-3.85L10 8.7a2.3 2.3 0 0 0 1.71-1.29l1.73-3.72a2.27 2.27 0 0 1 4.12 0"/></g><defs><filter id="filter0_ii_18_14846" width="5.35" height="4.5" x="24.9" y="16.97" color-interpolation-filters="sRGB" filterUnits="userSpaceOnUse"><feFlood flood-opacity="0" result="BackgroundImageFix"/><feBlend in="SourceGraphic" in2="BackgroundImageFix" result="shape"/><feColorMatrix in="SourceAlpha" result="hardAlpha" values="0 0 0 0 0 0 0 0 0 0 0 0 0 0 0 0 0 0 127 0"/><feOffset dx=".25" dy="-.4"/><feGaussianBlur stdDeviation=".35"/><feComposite in2="hardAlpha" k2="-1" k3="1" operator="arithmetic"/><feColorMatrix values="0 0 0 0 0.858824 0 0 0 0 0.607843 0 0 0 0 0.278431 0 0 0 1 0"/><feBlend in2="shape" result="effect1_innerShadow_18_14846"/><feColorMatrix in="SourceAlpha" result="hardAlpha" values="0 0 0 0 0 0 0 0 0 0 0 0 0 0 0 0 0 0 127 0"/><feOffset dx="-.1" dy=".1"/><feGaussianBlur stdDeviation=".5"/><feComposite in2="hardAlpha" k2="-1" k3="1" operator="arithmetic"/><feColorMatrix values="0 0 0 0 0.996078 0 0 0 0 0.945098 0 0 0 0 0.372549 0 0 0 1 0"/><feBlend in2="effect1_innerShadow_18_14846" result="effect2_innerShadow_18_14846"/></filter><filter id="filter1_ii_18_14846" width="5.24" height="5.11" x="20.6" y="2.37" color-interpolation-filters="sRGB" filterUnits="userSpaceOnUse"><feFlood flood-opacity="0" result="BackgroundImageFix"/><feBlend in="SourceGraphic" in2="BackgroundImageFix" result="shape"/><feColorMatrix in="SourceAlpha" result="hardAlpha" values="0 0 0 0 0 0 0 0 0 0 0 0 0 0 0 0 0 0 127 0"/><feOffset dx="-.4" dy=".4"/><feGaussianBlur stdDeviation=".38"/><feComposite in2="hardAlpha" k2="-1" k3="1" operator="arithmetic"/><feColorMatrix values="0 0 0 0 1 0 0 0 0 0.94902 0 0 0 0 0.294118 0 0 0 1 0"/><feBlend in2="shape" result="effect1_innerShadow_18_14846"/><feColorMatrix in="SourceAlpha" result="hardAlpha" values="0 0 0 0 0 0 0 0 0 0 0 0 0 0 0 0 0 0 127 0"/><feOffset dx=".5"/><feGaussianBlur stdDeviation=".5"/><feComposite in2="hardAlpha" k2="-1" k3="1" operator="arithmetic"/><feColorMatrix values="0 0 0 0 0.909804 0 0 0 0 0.705882 0 0 0 0 0.168627 0 0 0 1 0"/><feBlend in2="effect1_innerShadow_18_14846" result="effect2_innerShadow_18_14846"/></filter><filter id="filter2_ii_18_14846" width="5.04" height="5.42" x="5.7" y="1.97" color-interpolation-filters="sRGB" filterUnits="userSpaceOnUse"><feFlood flood-opacity="0" result="BackgroundImageFix"/><feBlend in="SourceGraphic" in2="BackgroundImageFix" result="shape"/><feColorMatrix in="SourceAlpha" result="hardAlpha" values="0 0 0 0 0 0 0 0 0 0 0 0 0 0 0 0 0 0 127 0"/><feOffset dx="-.3" dy=".3"/><feGaussianBlur stdDeviation=".3"/><feComposite in2="hardAlpha" k2="-1" k3="1" operator="arithmetic"/><feColorMatrix values="0 0 0 0 1 0 0 0 0 0.905882 0 0 0 0 0.298039 0 0 0 1 0"/><feBlend in2="shape" result="effect1_innerShadow_18_14846"/><feColorMatrix in="SourceAlpha" result="hardAlpha" values="0 0 0 0 0 0 0 0 0 0 0 0 0 0 0 0 0 0 127 0"/><feOffset dx=".4" dy="-.4"/><feGaussianBlur stdDeviation=".3"/><feComposite in2="hardAlpha" k2="-1" k3="1" operator="arithmetic"/><feColorMatrix values="0 0 0 0 0.894118 0 0 0 0 0.658824 0 0 0 0 0.160784 0 0 0 1 0"/><feBlend in2="effect1_innerShadow_18_14846" result="effect2_innerShadow_18_14846"/></filter><filter id="filter3_i_18_14846" width="5.05" height="4.18" x="1.75" y="17.12" color-interpolation-filters="sRGB" filterUnits="userSpaceOnUse"><feFlood flood-opacity="0" result="BackgroundImageFix"/><feBlend in="SourceGraphic" in2="BackgroundImageFix" result="shape"/><feColorMatrix in="SourceAlpha" result="hardAlpha" values="0 0 0 0 0 0 0 0 0 0 0 0 0 0 0 0 0 0 127 0"/><feOffset dx="-.25" dy="-.25"/><feGaussianBlur stdDeviation=".25"/><feComposite in2="hardAlpha" k2="-1" k3="1" operator="arithmetic"/><feColorMatrix values="0 0 0 0 0.854902 0 0 0 0 0.615686 0 0 0 0 0.219608 0 0 0 1 0"/><feBlend in2="shape" result="effect1_innerShadow_18_14846"/></filter><filter id="filter4_i_18_14846" width="4.53" height="4.89" x="13.83" y="24.74" color-interpolation-filters="sRGB" filterUnits="userSpaceOnUse"><feFlood flood-opacity="0" result="BackgroundImageFix"/><feBlend in="SourceGraphic" in2="BackgroundImageFix" result="shape"/><feColorMatrix in="SourceAlpha" result="hardAlpha" values="0 0 0 0 0 0 0 0 0 0 0 0 0 0 0 0 0 0 127 0"/><feOffset dx=".5" dy="-.3"/><feGaussianBlur stdDeviation=".5"/><feComposite in2="hardAlpha" k2="-1" k3="1" operator="arithmetic"/><feColorMatrix values="0 0 0 0 0.831373 0 0 0 0 0.588235 0 0 0 0 0.282353 0 0 0 1 0"/><feBlend in2="shape" result="effect1_innerShadow_18_14846"/></filter><filter id="filter5_iii_18_14846" width="25.75" height="24.75" x="2.75" y="1.87" color-interpolation-filters="sRGB" filterUnits="userSpaceOnUse"><feFlood flood-opacity="0" result="BackgroundImageFix"/><feBlend in="SourceGraphic" in2="BackgroundImageFix" result="shape"/><feColorMatrix in="SourceAlpha" result="hardAlpha" values="0 0 0 0 0 0 0 0 0 0 0 0 0 0 0 0 0 0 127 0"/><feOffset dy="-.5"/><feGaussianBlur stdDeviation="1.5"/><feComposite in2="hardAlpha" k2="-1" k3="1" operator="arithmetic"/><feColorMatrix values="0 0 0 0 0.772549 0 0 0 0 0.494118 0 0 0 0 0.282353 0 0 0 1 0"/><feBlend in2="shape" result="effect1_innerShadow_18_14846"/><feColorMatrix in="SourceAlpha" result="hardAlpha" values="0 0 0 0 0 0 0 0 0 0 0 0 0 0 0 0 0 0 127 0"/><feOffset dx="-1.25" dy="1.25"/><feGaussianBlur stdDeviation=".75"/><feComposite in2="hardAlpha" k2="-1" k3="1" operator="arithmetic"/><feColorMatrix values="0 0 0 0 1 0 0 0 0 0.952941 0 0 0 0 0.286275 0 0 0 1 0"/><feBlend in2="effect1_innerShadow_18_14846" result="effect2_innerShadow_18_14846"/><feColorMatrix in="SourceAlpha" result="hardAlpha" values="0 0 0 0 0 0 0 0 0 0 0 0 0 0 0 0 0 0 127 0"/><feOffset dx="1.5" dy="-.5"/><feGaussianBlur stdDeviation=".75"/><feComposite in2="hardAlpha" k2="-1" k3="1" operator="arithmetic"/><feColorMatrix values="0 0 0 0 0.839216 0 0 0 0 0.619608 0 0 0 0 0.121569 0 0 0 1 0"/><feBlend in2="effect2_innerShadow_18_14846" result="effect3_innerShadow_18_14846"/></filter><radialGradient id="paint0_radial_18_14846" cx="0" cy="0" r="1" gradientTransform="matrix(3.75 -1.9375 2.68748 5.20157 26.4 19.52)" gradientUnits="userSpaceOnUse"><stop offset=".75" stop-color="#fff055" stop-opacity="0"/><stop offset="1" stop-color="#fff055"/></radialGradient><radialGradient id="paint4_radial_18_14846" cx="0" cy="0" r="1" gradientTransform="rotate(132.91 9.48 8.96)scale(16.4664 16.2945)" gradientUnits="userSpaceOnUse"><stop stop-color="#fac632"/><stop offset="1" stop-color="#f7c632"/></radialGradient><radialGradient id="paint5_radial_18_14846" cx="0" cy="0" r="1" gradientTransform="rotate(90 .82 14.68)scale(11.5)" gradientUnits="userSpaceOnUse"><stop stop-color="#ddba38"/><stop offset="1" stop-color="#ddba38" stop-opacity="0"/></radialGradient><linearGradient id="paint1_linear_18_14846" x1="24.72" x2="24.03" y1="2.84" y2="3.87" gradientUnits="userSpaceOnUse"><stop stop-color="#fff659"/><stop offset="1" stop-color="#fff659" stop-opacity="0"/></linearGradient><linearGradient id="paint2_linear_18_14846" x1="4.4" x2="4.4" y1="17.37" y2="18.37" gradientUnits="userSpaceOnUse"><stop stop-color="#deae2c"/><stop offset="1" stop-color="#deae2c" stop-opacity="0"/></linearGradient><linearGradient id="paint3_linear_18_14846" x1="17.63" x2="16.53" y1="27.34" y2="27.81" gradientUnits="userSpaceOnUse"><stop stop-color="#f9c83c"/><stop offset="1" stop-color="#f9c83c" stop-opacity="0"/></linearGradient></defs></svg>