<svg xmlns="http://www.w3.org/2000/svg" fill="none" viewBox="0 0 32 32"><rect width="28" height="20" x="2" y="6" fill="url(#paint0_radial_6990_5054)" rx="2"/><rect width="28" height="20" x="2" y="6" fill="url(#paint1_linear_6990_5054)" rx="2"/><g filter="url(#filter0_f_6990_5054)"><path fill="#ccc1d3" d="M15.64 23.6a.9.9 0 0 0 .93-.03c2.04-1.27 5.43-3.82 6.8-7.23 1.98-4.4-2.7-7.85-5.92-5.32-.35.28-.82.68-1.13 1.02-.11.12-.32.13-.43.01-.37-.39-.96-.94-1.35-1.21-2.75-1.86-7.73.51-5.6 5.74.78 2.34 4.59 5.76 6.7 7.01"/></g><path fill="url(#paint2_linear_6990_5054)" d="M2 8c0-1.1.9-2 2-2h1v20H4a2 2 0 0 1-2-2z"/><path fill="url(#paint3_linear_6990_5054)" d="M2 8c0-1.1.9-2 2-2h24a2 2 0 0 1 2 2z"/><path fill="url(#paint4_linear_6990_5054)" d="M27 6h1a2 2 0 0 1 2 2v16a2 2 0 0 1-2 2h-1z"/><path fill="url(#paint5_linear_6990_5054)" d="M2 21h28v3a2 2 0 0 1-2 2H4a2 2 0 0 1-2-2z"/><path fill="#c2b4cb" fill-rule="evenodd" d="M2.12 24.7A2 2 0 0 1 2 24v-.41l10.23-6.51.54.84z" clip-rule="evenodd"/><path fill="#cec4d7" fill-rule="evenodd" d="M30 23.59V24a2 2 0 0 1-.12.7l-10.65-6.78.54-.84z" clip-rule="evenodd"/><path fill="#c5b9c4" fill-rule="evenodd" d="M2.12 7.31A2 2 0 0 0 2 8v.43l8.22 5.49.56-.84z" clip-rule="evenodd"/><path fill="#d5cfda" fill-rule="evenodd" d="M29.88 7.31A2 2 0 0 1 30 8v.43l-8.22 5.49-.56-.84z" clip-rule="evenodd"/><path fill="url(#paint6_radial_6990_5054)" d="M16.13 22.8a.9.9 0 0 0 .93-.03c2.1-1.3 5.6-3.94 7.01-7.46 2.05-4.54-2.77-8.1-6.09-5.48-.36.28-.86.7-1.17 1.05-.11.12-.32.14-.43.01-.38-.4-1-.97-1.4-1.25-2.83-1.92-7.97.53-5.77 5.92.8 2.41 4.75 5.95 6.92 7.23"/><path fill="url(#paint7_radial_6990_5054)" d="M16.13 22.8a.9.9 0 0 0 .93-.03c2.1-1.3 5.6-3.94 7.01-7.46 2.05-4.54-2.77-8.1-6.09-5.48-.36.28-.86.7-1.17 1.05-.11.12-.32.14-.43.01-.38-.4-1-.97-1.4-1.25-2.83-1.92-7.97.53-5.77 5.92.8 2.41 4.75 5.95 6.92 7.23"/><path fill="url(#paint8_linear_6990_5054)" d="M16.13 22.8a.9.9 0 0 0 .93-.03c2.1-1.3 5.6-3.94 7.01-7.46 2.05-4.54-2.77-8.1-6.09-5.48-.36.28-.86.7-1.17 1.05-.11.12-.32.14-.43.01-.38-.4-1-.97-1.4-1.25-2.83-1.92-7.97.53-5.77 5.92.8 2.41 4.75 5.95 6.92 7.23"/><path fill="url(#paint9_radial_6990_5054)" fill-opacity=".75" d="M16.13 22.8a.9.9 0 0 0 .93-.03c2.1-1.3 5.6-3.94 7.01-7.46 2.05-4.54-2.77-8.1-6.09-5.48-.36.28-.86.7-1.17 1.05-.11.12-.32.14-.43.01-.38-.4-1-.97-1.4-1.25-2.83-1.92-7.97.53-5.77 5.92.8 2.41 4.75 5.95 6.92 7.23"/><g filter="url(#filter1_f_6990_5054)"><path stroke="url(#paint10_linear_6990_5054)" stroke-linecap="round" stroke-opacity=".6" d="M13.06 10.81a6.4 6.4 0 0 1 3.1 2c.28.31.4.73.4 1.14v4.24"/></g><g filter="url(#filter2_f_6990_5054)"><path stroke="url(#paint11_linear_6990_5054)" stroke-linecap="round" stroke-opacity=".6" d="M22.06 10.63a3.3 3.3 0 0 1 1.35 3.4"/></g><g filter="url(#filter3_f_6990_5054)" opacity=".5"><path fill="#fff" d="M27.96 7.31h1V23.5h-1z"/></g><defs><linearGradient id="paint1_linear_6990_5054" x1="-.88" x2="14.38" y1="-.63" y2="16" gradientUnits="userSpaceOnUse"><stop stop-color="#e3c3c4" stop-opacity=".6"/><stop offset="1" stop-color="#e1c0c2" stop-opacity="0"/></linearGradient><linearGradient id="paint2_linear_6990_5054" x1="2" x2="5" y1="16" y2="16" gradientUnits="userSpaceOnUse"><stop stop-color="#e3c3c4"/><stop offset="1" stop-color="#e1c0c2" stop-opacity="0"/></linearGradient><linearGradient id="paint3_linear_6990_5054" x1="16" x2="16" y1="6" y2="7.5" gradientUnits="userSpaceOnUse"><stop stop-color="#dedede"/><stop offset="1" stop-color="#e8e4e8" stop-opacity="0"/></linearGradient><linearGradient id="paint4_linear_6990_5054" x1="30" x2="27" y1="16" y2="16" gradientUnits="userSpaceOnUse"><stop stop-color="#dedede"/><stop offset="1" stop-color="#e8e4e8" stop-opacity="0"/></linearGradient><linearGradient id="paint5_linear_6990_5054" x1="16" x2="16" y1="21" y2="26" gradientUnits="userSpaceOnUse"><stop stop-color="#dcc8ef" stop-opacity="0"/><stop offset="1" stop-color="#c79be7"/></linearGradient><linearGradient id="paint8_linear_6990_5054" x1="16.56" x2="16.56" y1="13.75" y2="24.51" gradientUnits="userSpaceOnUse"><stop offset=".15" stop-color="#c12372" stop-opacity="0"/><stop offset=".89" stop-color="#c12372"/></linearGradient><linearGradient id="paint10_linear_6990_5054" x1="15.66" x2="18.62" y1="10.16" y2="11.25" gradientUnits="userSpaceOnUse"><stop stop-color="#ff9e75"/><stop offset="1" stop-color="#ff9e75" stop-opacity="0"/></linearGradient><linearGradient id="paint11_linear_6990_5054" x1="22.63" x2="25.59" y1="10.16" y2="11.25" gradientUnits="userSpaceOnUse"><stop stop-color="#ff9e75"/><stop offset="1" stop-color="#ff9e75" stop-opacity="0"/></linearGradient><radialGradient id="paint0_radial_6990_5054" cx="0" cy="0" r="1" gradientTransform="rotate(141.75 10.35 8.91)scale(33.1097 46.3535)" gradientUnits="userSpaceOnUse"><stop stop-color="#f3eff9"/><stop offset=".48" stop-color="#e9e2ea"/><stop offset=".68" stop-color="#e8d2f5"/></radialGradient><radialGradient id="paint6_radial_6990_5054" cx="0" cy="0" r="1" gradientTransform="matrix(0 14.3125 -27.6487 0 19.3 11.69)" gradientUnits="userSpaceOnUse"><stop stop-color="#f12e52"/><stop offset=".6" stop-color="#ff3b79"/><stop offset="1" stop-color="#ff4ec6"/></radialGradient><radialGradient id="paint7_radial_6990_5054" cx="0" cy="0" r="1" gradientTransform="rotate(142.99 8.19 9.7)scale(14.95 28.0029)" gradientUnits="userSpaceOnUse"><stop offset=".48" stop-color="#c12372" stop-opacity="0"/><stop offset=".83" stop-color="#c12372"/></radialGradient><radialGradient id="paint9_radial_6990_5054" cx="0" cy="0" r="1" gradientTransform="matrix(0 -14 20.5463 0 16.31 21.75)" gradientUnits="userSpaceOnUse"><stop offset=".72" stop-color="#ff7033" stop-opacity="0"/><stop offset="1" stop-color="#ff7033"/></radialGradient><filter id="filter0_f_6990_5054" width="19.41" height="17.55" x="6.42" y="8.16" color-interpolation-filters="sRGB" filterUnits="userSpaceOnUse"><feFlood flood-opacity="0" result="BackgroundImageFix"/><feBlend in="SourceGraphic" in2="BackgroundImageFix" result="shape"/><feGaussianBlur result="effect1_foregroundBlur_6990_5054" stdDeviation="1"/></filter><filter id="filter1_f_6990_5054" width="8.5" height="12.38" x="10.56" y="8.31" color-interpolation-filters="sRGB" filterUnits="userSpaceOnUse"><feFlood flood-opacity="0" result="BackgroundImageFix"/><feBlend in="SourceGraphic" in2="BackgroundImageFix" result="shape"/><feGaussianBlur result="effect1_foregroundBlur_6990_5054" stdDeviation="1"/></filter><filter id="filter2_f_6990_5054" width="6.41" height="8.41" x="19.56" y="8.12" color-interpolation-filters="sRGB" filterUnits="userSpaceOnUse"><feFlood flood-opacity="0" result="BackgroundImageFix"/><feBlend in="SourceGraphic" in2="BackgroundImageFix" result="shape"/><feGaussianBlur result="effect1_foregroundBlur_6990_5054" stdDeviation="1"/></filter><filter id="filter3_f_6990_5054" width="6" height="21.19" x="25.46" y="4.81" color-interpolation-filters="sRGB" filterUnits="userSpaceOnUse"><feFlood flood-opacity="0" result="BackgroundImageFix"/><feBlend in="SourceGraphic" in2="BackgroundImageFix" result="shape"/><feGaussianBlur result="effect1_foregroundBlur_6990_5054" stdDeviation="1.25"/></filter></defs></svg>