<svg xmlns="http://www.w3.org/2000/svg" fill="none" viewBox="0 0 32 32"><rect width="19.83" height="27.77" x="10.12" y="2.61" fill="url(#paint0_linear_18_19091)" rx="2.6"/><rect width="19.83" height="27.77" x="10.12" y="2.61" fill="url(#paint1_linear_18_19091)" rx="2.6"/><g filter="url(#filter0_ii_18_19091)"><path fill="#ff9544" d="M13.27 9.62c0-.33.27-.6.6-.6h2.1c.33 0 .6.27.6.6v2.1a.6.6 0 0 1-.6.6h-2.1a.6.6 0 0 1-.6-.6z"/><path fill="url(#paint2_linear_18_19091)" d="M13.27 9.62c0-.33.27-.6.6-.6h2.1c.33 0 .6.27.6.6v2.1a.6.6 0 0 1-.6.6h-2.1a.6.6 0 0 1-.6-.6z"/></g><g filter="url(#filter1_ii_18_19091)"><path fill="#38c6ff" d="M18.38 9.62c0-.33.27-.6.6-.6h2.1c.33 0 .6.27.6.6v2.1a.6.6 0 0 1-.6.6h-2.1a.6.6 0 0 1-.6-.6z"/></g><g filter="url(#filter2_ii_18_19091)"><path fill="#ffec58" d="M23.5 9.62c0-.33.26-.6.6-.6h2.1c.32 0 .6.27.6.6v2.1a.6.6 0 0 1-.6.6h-2.1a.6.6 0 0 1-.6-.6z"/></g><g filter="url(#filter3_ii_18_19091)"><path fill="#38c6ff" d="M13.27 15.44c0-.33.27-.6.6-.6h2.1c.33 0 .6.27.6.6v2.1a.6.6 0 0 1-.6.6h-2.1a.6.6 0 0 1-.6-.6z"/></g><g filter="url(#filter4_ii_18_19091)"><path fill="#ff9544" d="M13.27 21.27c0-.33.27-.6.6-.6h2.1c.33 0 .6.27.6.6v2.1a.6.6 0 0 1-.6.6h-2.1a.6.6 0 0 1-.6-.6z"/><path fill="url(#paint3_linear_18_19091)" d="M13.27 21.27c0-.33.27-.6.6-.6h2.1c.33 0 .6.27.6.6v2.1a.6.6 0 0 1-.6.6h-2.1a.6.6 0 0 1-.6-.6z"/></g><g filter="url(#filter5_ii_18_19091)"><path fill="#ffec58" d="M18.38 15.44c0-.33.27-.6.6-.6h2.1c.33 0 .6.27.6.6v2.1a.6.6 0 0 1-.6.6h-2.1a.6.6 0 0 1-.6-.6z"/></g><g filter="url(#filter6_ii_18_19091)"><path fill="#38c6ff" d="M18.38 21.27c0-.33.27-.6.6-.6h2.1c.33 0 .6.27.6.6v2.1a.6.6 0 0 1-.6.6h-2.1a.6.6 0 0 1-.6-.6z"/></g><g filter="url(#filter7_ii_18_19091)"><path fill="#ff9544" d="M23.5 15.44c0-.33.26-.6.6-.6h2.1c.32 0 .6.27.6.6v2.1a.6.6 0 0 1-.6.6h-2.1a.6.6 0 0 1-.6-.6z"/><path fill="url(#paint4_linear_18_19091)" d="M23.5 15.44c0-.33.26-.6.6-.6h2.1c.32 0 .6.27.6.6v2.1a.6.6 0 0 1-.6.6h-2.1a.6.6 0 0 1-.6-.6z"/></g><g filter="url(#filter8_ii_18_19091)"><path fill="#ffec58" d="M23.5 21.27c0-.33.26-.6.6-.6h2.1c.32 0 .6.27.6.6v2.1a.6.6 0 0 1-.6.6h-2.1a.6.6 0 0 1-.6-.6z"/></g><g filter="url(#filter9_f_18_19091)"><path fill="url(#paint5_linear_18_19091)" d="M27.68 6.15h1.52v21.72h-1.52z"/></g><g filter="url(#filter10_i_18_19091)"><path fill="url(#paint6_linear_18_19091)" d="M29.95 6.71H10.12V5.2a2.6 2.6 0 0 1 2.58-2.6h14.66a2.6 2.6 0 0 1 2.59 2.6z"/><path fill="url(#paint7_linear_18_19091)" d="M29.95 6.71H10.12V5.2a2.6 2.6 0 0 1 2.58-2.6h14.66a2.6 2.6 0 0 1 2.59 2.6z"/><path fill="url(#paint8_linear_18_19091)" d="M29.95 6.71H10.12V5.2a2.6 2.6 0 0 1 2.58-2.6h14.66a2.6 2.6 0 0 1 2.59 2.6z"/><path fill="url(#paint9_linear_18_19091)" d="M29.95 6.71H10.12V5.2a2.6 2.6 0 0 1 2.58-2.6h14.66a2.6 2.6 0 0 1 2.59 2.6z"/><path fill="url(#paint10_radial_18_19091)" d="M29.95 6.71H10.12V5.2a2.6 2.6 0 0 1 2.58-2.6h14.66a2.6 2.6 0 0 1 2.59 2.6z"/></g><path fill="url(#paint11_linear_18_19091)" d="M29.95 26.32v1.47a2.6 2.6 0 0 1-2.59 2.59H12.7a2.6 2.6 0 0 1-2.58-2.59v-1.47z"/><path fill="url(#paint12_linear_18_19091)" d="M29.95 26.32v1.47a2.6 2.6 0 0 1-2.59 2.59H12.7a2.6 2.6 0 0 1-2.58-2.59v-1.47z"/><path fill="url(#paint13_radial_18_19091)" d="M29.95 26.32v1.47a2.6 2.6 0 0 1-2.59 2.59H12.7a2.6 2.6 0 0 1-2.58-2.59v-1.47z"/><path fill="url(#paint14_linear_18_19091)" d="M29.95 26.32v1.47a2.6 2.6 0 0 1-2.59 2.59H12.7a2.6 2.6 0 0 1-2.58-2.59v-1.47z"/><g filter="url(#filter11_i_18_19091)"><path fill="url(#paint15_linear_18_19091)" d="M7.05 10.89a.6.6 0 0 0-1 .44v2.16a.5.5 0 0 1-.5.5H3.09a1 1 0 0 0-1 1v2.08a1 1 0 0 0 1 1h2.46c.27 0 .5.22.5.5v2.1a.6.6 0 0 0 1 .44l5.05-4.55a.75.75 0 0 0 0-1.12z"/><path fill="url(#paint16_linear_18_19091)" d="M7.05 10.89a.6.6 0 0 0-1 .44v2.16a.5.5 0 0 1-.5.5H3.09a1 1 0 0 0-1 1v2.08a1 1 0 0 0 1 1h2.46c.27 0 .5.22.5.5v2.1a.6.6 0 0 0 1 .44l5.05-4.55a.75.75 0 0 0 0-1.12z"/><path fill="url(#paint17_linear_18_19091)" d="M7.05 10.89a.6.6 0 0 0-1 .44v2.16a.5.5 0 0 1-.5.5H3.09a1 1 0 0 0-1 1v2.08a1 1 0 0 0 1 1h2.46c.27 0 .5.22.5.5v2.1a.6.6 0 0 0 1 .44l5.05-4.55a.75.75 0 0 0 0-1.12z"/></g><defs><linearGradient id="paint0_linear_18_19091" x1="20.03" x2="20.03" y1="7.99" y2="26.45" gradientUnits="userSpaceOnUse"><stop stop-color="#62326d"/><stop offset="1" stop-color="#434486"/></linearGradient><linearGradient id="paint1_linear_18_19091" x1="10.12" x2="12.42" y1="22.28" y2="22.34" gradientUnits="userSpaceOnUse"><stop offset=".03" stop-color="#412c4c"/><stop offset="1" stop-color="#412c4c" stop-opacity="0"/></linearGradient><linearGradient id="paint2_linear_18_19091" x1="13.43" x2="14.47" y1="11.48" y2="11.48" gradientUnits="userSpaceOnUse"><stop offset=".33" stop-color="#ff945c"/><stop offset="1" stop-color="#ff945c" stop-opacity="0"/></linearGradient><linearGradient id="paint3_linear_18_19091" x1="13.43" x2="14.47" y1="23.14" y2="23.14" gradientUnits="userSpaceOnUse"><stop offset=".33" stop-color="#ff945c"/><stop offset="1" stop-color="#ff945c" stop-opacity="0"/></linearGradient><linearGradient id="paint4_linear_18_19091" x1="23.65" x2="24.69" y1="17.31" y2="17.31" gradientUnits="userSpaceOnUse"><stop offset=".33" stop-color="#ff945c"/><stop offset="1" stop-color="#ff945c" stop-opacity="0"/></linearGradient><linearGradient id="paint5_linear_18_19091" x1="28.44" x2="28.44" y1="6.15" y2="27.88" gradientUnits="userSpaceOnUse"><stop stop-color="#674876"/><stop offset="1" stop-color="#555187"/></linearGradient><linearGradient id="paint6_linear_18_19091" x1="20.03" x2="20.03" y1="2.61" y2="6.71" gradientUnits="userSpaceOnUse"><stop stop-color="#636ab6"/><stop offset="1" stop-color="#6c6ebe"/></linearGradient><linearGradient id="paint7_linear_18_19091" x1="21.18" x2="21.18" y1="6.87" y2="6.18" gradientUnits="userSpaceOnUse"><stop stop-color="#6062b1"/><stop offset="1" stop-color="#6062b1" stop-opacity="0"/></linearGradient><linearGradient id="paint8_linear_18_19091" x1="10.12" x2="13.32" y1="6.71" y2="6.71" gradientUnits="userSpaceOnUse"><stop offset=".14" stop-color="#484b86"/><stop offset="1" stop-color="#5e61ad" stop-opacity="0"/></linearGradient><linearGradient id="paint9_linear_18_19091" x1="29.95" x2="27.02" y1="6.71" y2="6.71" gradientUnits="userSpaceOnUse"><stop offset=".13" stop-color="#7277c8"/><stop offset="1" stop-color="#7277c8" stop-opacity="0"/></linearGradient><linearGradient id="paint11_linear_18_19091" x1="20.03" x2="20.03" y1="26.32" y2="30.38" gradientUnits="userSpaceOnUse"><stop stop-color="#6b4390"/><stop offset="1" stop-color="#76509e"/></linearGradient><linearGradient id="paint12_linear_18_19091" x1="10.12" x2="12.51" y1="27.57" y2="27.57" gradientUnits="userSpaceOnUse"><stop offset=".16" stop-color="#4f3d6c"/><stop offset="1" stop-color="#6e4693" stop-opacity="0"/></linearGradient><linearGradient id="paint14_linear_18_19091" x1="19.72" x2="19.72" y1="26.04" y2="26.63" gradientUnits="userSpaceOnUse"><stop offset=".16" stop-color="#5e3d7f"/><stop offset="1" stop-color="#5e3d7f" stop-opacity="0"/></linearGradient><linearGradient id="paint15_linear_18_19091" x1="11.75" x2="2.09" y1="16.48" y2="16.48" gradientUnits="userSpaceOnUse"><stop stop-color="#44c0ff"/><stop offset="1" stop-color="#38b5ff"/></linearGradient><linearGradient id="paint16_linear_18_19091" x1="10.09" x2="9.34" y1="13.77" y2="14.55" gradientUnits="userSpaceOnUse"><stop offset=".26" stop-color="#49c4ff"/><stop offset="1" stop-color="#49c4ff" stop-opacity="0"/></linearGradient><linearGradient id="paint17_linear_18_19091" x1="9.41" x2="9.06" y1="19.11" y2="18.75" gradientUnits="userSpaceOnUse"><stop stop-color="#2aacfa"/><stop offset="1" stop-color="#2aacfa" stop-opacity="0"/></linearGradient><filter id="filter0_ii_18_19091" width="3.89" height="3.89" x="12.97" y="8.72" color-interpolation-filters="sRGB" filterUnits="userSpaceOnUse"><feFlood flood-opacity="0" result="BackgroundImageFix"/><feBlend in="SourceGraphic" in2="BackgroundImageFix" result="shape"/><feColorMatrix in="SourceAlpha" result="hardAlpha" values="0 0 0 0 0 0 0 0 0 0 0 0 0 0 0 0 0 0 127 0"/><feOffset dx="-.3" dy="-.3"/><feGaussianBlur stdDeviation=".2"/><feComposite in2="hardAlpha" k2="-1" k3="1" operator="arithmetic"/><feColorMatrix values="0 0 0 0 0.913725 0 0 0 0 0.384314 0 0 0 0 0.129412 0 0 0 1 0"/><feBlend in2="shape" result="effect1_innerShadow_18_19091"/><feColorMatrix in="SourceAlpha" result="hardAlpha" values="0 0 0 0 0 0 0 0 0 0 0 0 0 0 0 0 0 0 127 0"/><feOffset dx=".3" dy=".3"/><feGaussianBlur stdDeviation=".2"/><feComposite in2="hardAlpha" k2="-1" k3="1" operator="arithmetic"/><feColorMatrix values="0 0 0 0 1 0 0 0 0 0.498039 0 0 0 0 0.160784 0 0 0 1 0"/><feBlend in2="effect1_innerShadow_18_19091" result="effect2_innerShadow_18_19091"/></filter><filter id="filter1_ii_18_19091" width="3.89" height="3.89" x="18.08" y="8.72" color-interpolation-filters="sRGB" filterUnits="userSpaceOnUse"><feFlood flood-opacity="0" result="BackgroundImageFix"/><feBlend in="SourceGraphic" in2="BackgroundImageFix" result="shape"/><feColorMatrix in="SourceAlpha" result="hardAlpha" values="0 0 0 0 0 0 0 0 0 0 0 0 0 0 0 0 0 0 127 0"/><feOffset dx="-.3" dy="-.3"/><feGaussianBlur stdDeviation=".25"/><feComposite in2="hardAlpha" k2="-1" k3="1" operator="arithmetic"/><feColorMatrix values="0 0 0 0 0.0980392 0 0 0 0 0.572549 0 0 0 0 0.866667 0 0 0 1 0"/><feBlend in2="shape" result="effect1_innerShadow_18_19091"/><feColorMatrix in="SourceAlpha" result="hardAlpha" values="0 0 0 0 0 0 0 0 0 0 0 0 0 0 0 0 0 0 127 0"/><feOffset dx=".3" dy=".3"/><feGaussianBlur stdDeviation=".2"/><feComposite in2="hardAlpha" k2="-1" k3="1" operator="arithmetic"/><feColorMatrix values="0 0 0 0 0.0745098 0 0 0 0 0.709804 0 0 0 0 1 0 0 0 1 0"/><feBlend in2="effect1_innerShadow_18_19091" result="effect2_innerShadow_18_19091"/></filter><filter id="filter2_ii_18_19091" width="3.89" height="3.89" x="23.2" y="8.72" color-interpolation-filters="sRGB" filterUnits="userSpaceOnUse"><feFlood flood-opacity="0" result="BackgroundImageFix"/><feBlend in="SourceGraphic" in2="BackgroundImageFix" result="shape"/><feColorMatrix in="SourceAlpha" result="hardAlpha" values="0 0 0 0 0 0 0 0 0 0 0 0 0 0 0 0 0 0 127 0"/><feOffset dx="-.3" dy="-.3"/><feGaussianBlur stdDeviation=".25"/><feComposite in2="hardAlpha" k2="-1" k3="1" operator="arithmetic"/><feColorMatrix values="0 0 0 0 0.858824 0 0 0 0 0.752941 0 0 0 0 0.188235 0 0 0 1 0"/><feBlend in2="shape" result="effect1_innerShadow_18_19091"/><feColorMatrix in="SourceAlpha" result="hardAlpha" values="0 0 0 0 0 0 0 0 0 0 0 0 0 0 0 0 0 0 127 0"/><feOffset dx=".3" dy=".3"/><feGaussianBlur stdDeviation=".2"/><feComposite in2="hardAlpha" k2="-1" k3="1" operator="arithmetic"/><feColorMatrix values="0 0 0 0 0.968627 0 0 0 0 0.858824 0 0 0 0 0.223529 0 0 0 1 0"/><feBlend in2="effect1_innerShadow_18_19091" result="effect2_innerShadow_18_19091"/></filter><filter id="filter3_ii_18_19091" width="3.89" height="3.89" x="12.97" y="14.55" color-interpolation-filters="sRGB" filterUnits="userSpaceOnUse"><feFlood flood-opacity="0" result="BackgroundImageFix"/><feBlend in="SourceGraphic" in2="BackgroundImageFix" result="shape"/><feColorMatrix in="SourceAlpha" result="hardAlpha" values="0 0 0 0 0 0 0 0 0 0 0 0 0 0 0 0 0 0 127 0"/><feOffset dx="-.3" dy="-.3"/><feGaussianBlur stdDeviation=".25"/><feComposite in2="hardAlpha" k2="-1" k3="1" operator="arithmetic"/><feColorMatrix values="0 0 0 0 0.0980392 0 0 0 0 0.572549 0 0 0 0 0.866667 0 0 0 1 0"/><feBlend in2="shape" result="effect1_innerShadow_18_19091"/><feColorMatrix in="SourceAlpha" result="hardAlpha" values="0 0 0 0 0 0 0 0 0 0 0 0 0 0 0 0 0 0 127 0"/><feOffset dx=".3" dy=".3"/><feGaussianBlur stdDeviation=".2"/><feComposite in2="hardAlpha" k2="-1" k3="1" operator="arithmetic"/><feColorMatrix values="0 0 0 0 0.0745098 0 0 0 0 0.709804 0 0 0 0 1 0 0 0 1 0"/><feBlend in2="effect1_innerShadow_18_19091" result="effect2_innerShadow_18_19091"/></filter><filter id="filter4_ii_18_19091" width="3.89" height="3.89" x="12.97" y="20.37" color-interpolation-filters="sRGB" filterUnits="userSpaceOnUse"><feFlood flood-opacity="0" result="BackgroundImageFix"/><feBlend in="SourceGraphic" in2="BackgroundImageFix" result="shape"/><feColorMatrix in="SourceAlpha" result="hardAlpha" values="0 0 0 0 0 0 0 0 0 0 0 0 0 0 0 0 0 0 127 0"/><feOffset dx="-.3" dy="-.3"/><feGaussianBlur stdDeviation=".2"/><feComposite in2="hardAlpha" k2="-1" k3="1" operator="arithmetic"/><feColorMatrix values="0 0 0 0 0.913725 0 0 0 0 0.384314 0 0 0 0 0.129412 0 0 0 1 0"/><feBlend in2="shape" result="effect1_innerShadow_18_19091"/><feColorMatrix in="SourceAlpha" result="hardAlpha" values="0 0 0 0 0 0 0 0 0 0 0 0 0 0 0 0 0 0 127 0"/><feOffset dx=".3" dy=".3"/><feGaussianBlur stdDeviation=".2"/><feComposite in2="hardAlpha" k2="-1" k3="1" operator="arithmetic"/><feColorMatrix values="0 0 0 0 1 0 0 0 0 0.498039 0 0 0 0 0.160784 0 0 0 1 0"/><feBlend in2="effect1_innerShadow_18_19091" result="effect2_innerShadow_18_19091"/></filter><filter id="filter5_ii_18_19091" width="3.89" height="3.89" x="18.08" y="14.55" color-interpolation-filters="sRGB" filterUnits="userSpaceOnUse"><feFlood flood-opacity="0" result="BackgroundImageFix"/><feBlend in="SourceGraphic" in2="BackgroundImageFix" result="shape"/><feColorMatrix in="SourceAlpha" result="hardAlpha" values="0 0 0 0 0 0 0 0 0 0 0 0 0 0 0 0 0 0 127 0"/><feOffset dx="-.3" dy="-.3"/><feGaussianBlur stdDeviation=".25"/><feComposite in2="hardAlpha" k2="-1" k3="1" operator="arithmetic"/><feColorMatrix values="0 0 0 0 0.858824 0 0 0 0 0.752941 0 0 0 0 0.188235 0 0 0 1 0"/><feBlend in2="shape" result="effect1_innerShadow_18_19091"/><feColorMatrix in="SourceAlpha" result="hardAlpha" values="0 0 0 0 0 0 0 0 0 0 0 0 0 0 0 0 0 0 127 0"/><feOffset dx=".3" dy=".3"/><feGaussianBlur stdDeviation=".2"/><feComposite in2="hardAlpha" k2="-1" k3="1" operator="arithmetic"/><feColorMatrix values="0 0 0 0 0.968627 0 0 0 0 0.858824 0 0 0 0 0.223529 0 0 0 1 0"/><feBlend in2="effect1_innerShadow_18_19091" result="effect2_innerShadow_18_19091"/></filter><filter id="filter6_ii_18_19091" width="3.89" height="3.89" x="18.08" y="20.37" color-interpolation-filters="sRGB" filterUnits="userSpaceOnUse"><feFlood flood-opacity="0" result="BackgroundImageFix"/><feBlend in="SourceGraphic" in2="BackgroundImageFix" result="shape"/><feColorMatrix in="SourceAlpha" result="hardAlpha" values="0 0 0 0 0 0 0 0 0 0 0 0 0 0 0 0 0 0 127 0"/><feOffset dx="-.3" dy="-.3"/><feGaussianBlur stdDeviation=".25"/><feComposite in2="hardAlpha" k2="-1" k3="1" operator="arithmetic"/><feColorMatrix values="0 0 0 0 0.0980392 0 0 0 0 0.572549 0 0 0 0 0.866667 0 0 0 1 0"/><feBlend in2="shape" result="effect1_innerShadow_18_19091"/><feColorMatrix in="SourceAlpha" result="hardAlpha" values="0 0 0 0 0 0 0 0 0 0 0 0 0 0 0 0 0 0 127 0"/><feOffset dx=".3" dy=".3"/><feGaussianBlur stdDeviation=".2"/><feComposite in2="hardAlpha" k2="-1" k3="1" operator="arithmetic"/><feColorMatrix values="0 0 0 0 0.0745098 0 0 0 0 0.709804 0 0 0 0 1 0 0 0 1 0"/><feBlend in2="effect1_innerShadow_18_19091" result="effect2_innerShadow_18_19091"/></filter><filter id="filter7_ii_18_19091" width="3.89" height="3.89" x="23.2" y="14.55" color-interpolation-filters="sRGB" filterUnits="userSpaceOnUse"><feFlood flood-opacity="0" result="BackgroundImageFix"/><feBlend in="SourceGraphic" in2="BackgroundImageFix" result="shape"/><feColorMatrix in="SourceAlpha" result="hardAlpha" values="0 0 0 0 0 0 0 0 0 0 0 0 0 0 0 0 0 0 127 0"/><feOffset dx="-.3" dy="-.3"/><feGaussianBlur stdDeviation=".2"/><feComposite in2="hardAlpha" k2="-1" k3="1" operator="arithmetic"/><feColorMatrix values="0 0 0 0 0.913725 0 0 0 0 0.384314 0 0 0 0 0.129412 0 0 0 1 0"/><feBlend in2="shape" result="effect1_innerShadow_18_19091"/><feColorMatrix in="SourceAlpha" result="hardAlpha" values="0 0 0 0 0 0 0 0 0 0 0 0 0 0 0 0 0 0 127 0"/><feOffset dx=".3" dy=".3"/><feGaussianBlur stdDeviation=".2"/><feComposite in2="hardAlpha" k2="-1" k3="1" operator="arithmetic"/><feColorMatrix values="0 0 0 0 1 0 0 0 0 0.498039 0 0 0 0 0.160784 0 0 0 1 0"/><feBlend in2="effect1_innerShadow_18_19091" result="effect2_innerShadow_18_19091"/></filter><filter id="filter8_ii_18_19091" width="3.89" height="3.89" x="23.2" y="20.37" color-interpolation-filters="sRGB" filterUnits="userSpaceOnUse"><feFlood flood-opacity="0" result="BackgroundImageFix"/><feBlend in="SourceGraphic" in2="BackgroundImageFix" result="shape"/><feColorMatrix in="SourceAlpha" result="hardAlpha" values="0 0 0 0 0 0 0 0 0 0 0 0 0 0 0 0 0 0 127 0"/><feOffset dx="-.3" dy="-.3"/><feGaussianBlur stdDeviation=".25"/><feComposite in2="hardAlpha" k2="-1" k3="1" operator="arithmetic"/><feColorMatrix values="0 0 0 0 0.858824 0 0 0 0 0.752941 0 0 0 0 0.188235 0 0 0 1 0"/><feBlend in2="shape" result="effect1_innerShadow_18_19091"/><feColorMatrix in="SourceAlpha" result="hardAlpha" values="0 0 0 0 0 0 0 0 0 0 0 0 0 0 0 0 0 0 127 0"/><feOffset dx=".3" dy=".3"/><feGaussianBlur stdDeviation=".2"/><feComposite in2="hardAlpha" k2="-1" k3="1" operator="arithmetic"/><feColorMatrix values="0 0 0 0 0.968627 0 0 0 0 0.858824 0 0 0 0 0.223529 0 0 0 1 0"/><feBlend in2="effect1_innerShadow_18_19091" result="effect2_innerShadow_18_19091"/></filter><filter id="filter9_f_18_19091" width="3.52" height="23.72" x="26.68" y="5.15" color-interpolation-filters="sRGB" filterUnits="userSpaceOnUse"><feFlood flood-opacity="0" result="BackgroundImageFix"/><feBlend in="SourceGraphic" in2="BackgroundImageFix" result="shape"/><feGaussianBlur result="effect1_foregroundBlur_18_19091" stdDeviation=".5"/></filter><filter id="filter10_i_18_19091" width="19.83" height="4.2" x="10.12" y="2.61" color-interpolation-filters="sRGB" filterUnits="userSpaceOnUse"><feFlood flood-opacity="0" result="BackgroundImageFix"/><feBlend in="SourceGraphic" in2="BackgroundImageFix" result="shape"/><feColorMatrix in="SourceAlpha" result="hardAlpha" values="0 0 0 0 0 0 0 0 0 0 0 0 0 0 0 0 0 0 127 0"/><feOffset dy=".1"/><feGaussianBlur stdDeviation=".38"/><feComposite in2="hardAlpha" k2="-1" k3="1" operator="arithmetic"/><feColorMatrix values="0 0 0 0 0.380392 0 0 0 0 0.407843 0 0 0 0 0.666667 0 0 0 1 0"/><feBlend in2="shape" result="effect1_innerShadow_18_19091"/></filter><filter id="filter11_i_18_19091" width="10.45" height="10.74" x="2.09" y="10.73" color-interpolation-filters="sRGB" filterUnits="userSpaceOnUse"><feFlood flood-opacity="0" result="BackgroundImageFix"/><feBlend in="SourceGraphic" in2="BackgroundImageFix" result="shape"/><feColorMatrix in="SourceAlpha" result="hardAlpha" values="0 0 0 0 0 0 0 0 0 0 0 0 0 0 0 0 0 0 127 0"/><feOffset dx=".2" dy=".2"/><feGaussianBlur stdDeviation=".3"/><feComposite in2="hardAlpha" k2="-1" k3="1" operator="arithmetic"/><feColorMatrix values="0 0 0 0 0.2 0 0 0 0 0.568627 0 0 0 0 0.811765 0 0 0 1 0"/><feBlend in2="shape" result="effect1_innerShadow_18_19091"/></filter><radialGradient id="paint10_radial_18_19091" cx="0" cy="0" r="1" gradientTransform="matrix(-.65265 0 0 -3.1545 29.95 6.43)" gradientUnits="userSpaceOnUse"><stop stop-color="#6c6fb4"/><stop offset="1" stop-color="#6c6fb4" stop-opacity="0"/></radialGradient><radialGradient id="paint13_radial_18_19091" cx="0" cy="0" r="1" gradientTransform="matrix(0 3.0768 -1.6161 0 28.3 25.98)" gradientUnits="userSpaceOnUse"><stop stop-color="#6b5094"/><stop offset="1" stop-color="#6b5094" stop-opacity="0"/></radialGradient></defs></svg>