<svg xmlns="http://www.w3.org/2000/svg" fill="none" viewBox="0 0 32 32"><g filter="url(#filter0_i_18_21307)"><path fill="url(#paint0_radial_18_21307)" d="M4.4 20.9A11.5 11.5 0 0 1 16 9.4h.6A11.5 11.5 0 0 1 28 20.9v.3a9 9 0 0 1-8.8 8.8h-6a9 9 0 0 1-8.8-8.8z"/><path fill="url(#paint1_radial_18_21307)" d="M4.4 20.9A11.5 11.5 0 0 1 16 9.4h.6A11.5 11.5 0 0 1 28 20.9v.3a9 9 0 0 1-8.8 8.8h-6a9 9 0 0 1-8.8-8.8z"/></g><path fill="url(#paint2_radial_18_21307)" d="M4.4 20.9A11.5 11.5 0 0 1 16 9.4h.6A11.5 11.5 0 0 1 28 20.9v.3a9 9 0 0 1-8.8 8.8h-6a9 9 0 0 1-8.8-8.8z"/><path fill="url(#paint3_radial_18_21307)" d="M4.4 20.9A11.5 11.5 0 0 1 16 9.4h.6A11.5 11.5 0 0 1 28 20.9v.3a9 9 0 0 1-8.8 8.8h-6a9 9 0 0 1-8.8-8.8z"/><g filter="url(#filter1_ii_18_21307)"><path fill="url(#paint4_linear_18_21307)" d="M12.2 4.7q.6 1.3 2 2.7h4q1.5-1.4 2-2.7a1 1 0 0 0-.3-1.2q-.5-.1-1 .1c-.7.4-1 0-1.7-1q-.6-.6-1-.5t-1 .5q-.8 1.5-1.7 1-.5-.2-1 0a1 1 0 0 0-.3 1.1"/></g><g filter="url(#filter2_f_18_21307)"><path fill="url(#paint5_linear_18_21307)" d="M16.8 14.3a.8.8 0 1 0-1.6 0v.7q0 .3-.3.4l-.8.4a3 3 0 0 0-1.1 2.4 3 3 0 0 0 1 2.3q1 .7 2 .7l1 .3q.4.2.5 1t-.5 1.2l-.8.3-1-.2q-.5-.2-.7-1.2a.8.8 0 0 0-1.6.2 3 3 0 0 0 2 2.6q.3.1.3.4v.7a.8.8 0 1 0 1.6 0v-.7q0-.3.3-.4.5-.1.9-.5a3 3 0 0 0 1.1-2.5 3 3 0 0 0-1.3-2.2l-1.6-.6q-1.5 0-1.6-1.4 0-.8.5-1.1c.6-.5 1.6-.5 2 .2q.4.4.4.9 0 .7.9.7c.9 0 .7-.4.7-.8a3 3 0 0 0-.6-1.7q-.6-.7-1.4-1l-.3-.4z"/></g><g filter="url(#filter3_ii_18_21307)"><path fill="url(#paint6_linear_18_21307)" d="M17 14.2a.8.8 0 0 0-1.6 0v.7q0 .3-.3.4l-.8.4a3 3 0 0 0-1.2 2.4 3 3 0 0 0 1.2 2.3q1 .7 2 .7l.8.3q.5.2.6 1t-.5 1.2l-.8.3-1-.2q-.5 0-.7-1.2a.8.8 0 1 0-1.6.2 3 3 0 0 0 2 2.6q.3.1.3.4v.7a.8.8 0 1 0 1.6 0v-.7q0-.2.3-.4.5-.1.9-.5a3 3 0 0 0 1.1-2.5A3 3 0 0 0 18 20l-1.6-.6q-1.6 0-1.6-1.4 0-.8.5-1.1c.6-.5 1.6-.5 2 .2q.4.4.4.9 0 .7.9.7c.9 0 .7-.3.7-.8a3 3 0 0 0-.6-1.7q-.6-.7-1.4-1l-.3-.4z"/></g><g filter="url(#filter4_i_18_21307)"><rect width="5.7" height="2.1" x="13.3" y="7.4" fill="url(#paint7_linear_18_21307)" rx="1.1"/><rect width="5.7" height="2.1" x="13.3" y="7.4" fill="url(#paint8_radial_18_21307)" rx="1.1"/></g><rect width="5.7" height="2.1" x="13.3" y="7.4" fill="url(#paint9_radial_18_21307)" rx="1.1"/><defs><radialGradient id="paint0_radial_18_21307" cx="0" cy="0" r="1" gradientTransform="rotate(100 5 13.8)scale(18.4086 19.2809)" gradientUnits="userSpaceOnUse"><stop stop-color="#f6c93b"/><stop offset="1" stop-color="#e88340"/></radialGradient><radialGradient id="paint1_radial_18_21307" cx="0" cy="0" r="1" gradientTransform="rotate(133.2 9 12.3)scale(7.03035 11.7786)" gradientUnits="userSpaceOnUse"><stop stop-color="#ffe065"/><stop offset="1" stop-color="#ffe065" stop-opacity="0"/></radialGradient><radialGradient id="paint2_radial_18_21307" cx="0" cy="0" r="1" gradientTransform="rotate(31.7 -22 17.8)scale(5.35972 13.2833)" gradientUnits="userSpaceOnUse"><stop offset=".2" stop-color="#ffa45d"/><stop offset="1" stop-color="#ffa45d" stop-opacity="0"/></radialGradient><radialGradient id="paint3_radial_18_21307" cx="0" cy="0" r="1" gradientTransform="matrix(0 -16.3125 24.5772 0 16.2 25.3)" gradientUnits="userSpaceOnUse"><stop offset=".9" stop-color="#f3bd46" stop-opacity="0"/><stop offset="1" stop-color="#917011"/></radialGradient><radialGradient id="paint8_radial_18_21307" cx="0" cy="0" r="1" gradientTransform="matrix(-1.86719 0 0 -1.40625 18 8.1)" gradientUnits="userSpaceOnUse"><stop stop-color="#7d5a54"/><stop offset="1" stop-color="#7d5a54" stop-opacity="0"/></radialGradient><radialGradient id="paint9_radial_18_21307" cx="0" cy="0" r="1" gradientTransform="matrix(-5.53125 0 0 -4.43103 18.3 8.4)" gradientUnits="userSpaceOnUse"><stop offset=".7" stop-color="#b3624d" stop-opacity="0"/><stop offset="1" stop-color="#b3624d"/></radialGradient><filter id="filter0_i_18_21307" width="24.6" height="22.1" x="4.4" y="7.9" color-interpolation-filters="sRGB" filterUnits="userSpaceOnUse"><feFlood flood-opacity="0" result="BackgroundImageFix"/><feBlend in="SourceGraphic" in2="BackgroundImageFix" result="shape"/><feColorMatrix in="SourceAlpha" result="hardAlpha" values="0 0 0 0 0 0 0 0 0 0 0 0 0 0 0 0 0 0 127 0"/><feOffset dx="1" dy="-1.5"/><feGaussianBlur stdDeviation="1.8"/><feComposite in2="hardAlpha" k2="-1" k3="1" operator="arithmetic"/><feColorMatrix values="0 0 0 0 0.713726 0 0 0 0 0.321569 0 0 0 0 0.211765 0 0 0 1 0"/><feBlend in2="shape" result="effect1_innerShadow_18_21307"/></filter><filter id="filter1_ii_18_21307" width="8.7" height="5.7" x="11.8" y="1.9" color-interpolation-filters="sRGB" filterUnits="userSpaceOnUse"><feFlood flood-opacity="0" result="BackgroundImageFix"/><feBlend in="SourceGraphic" in2="BackgroundImageFix" result="shape"/><feColorMatrix in="SourceAlpha" result="hardAlpha" values="0 0 0 0 0 0 0 0 0 0 0 0 0 0 0 0 0 0 127 0"/><feOffset dx="-.2" dy=".2"/><feGaussianBlur stdDeviation=".1"/><feComposite in2="hardAlpha" k2="-1" k3="1" operator="arithmetic"/><feColorMatrix values="0 0 0 0 1 0 0 0 0 0.92549 0 0 0 0 0.403922 0 0 0 1 0"/><feBlend in2="shape" result="effect1_innerShadow_18_21307"/><feColorMatrix in="SourceAlpha" result="hardAlpha" values="0 0 0 0 0 0 0 0 0 0 0 0 0 0 0 0 0 0 127 0"/><feOffset dx=".1" dy="-.3"/><feGaussianBlur stdDeviation=".3"/><feComposite in2="hardAlpha" k2="-1" k3="1" operator="arithmetic"/><feColorMatrix values="0 0 0 0 0.788235 0 0 0 0 0.364706 0 0 0 0 0.12549 0 0 0 1 0"/><feBlend in2="effect1_innerShadow_18_21307" result="effect2_innerShadow_18_21307"/></filter><filter id="filter2_f_18_21307" width="6.8" height="14.5" x="12.6" y="13.2" color-interpolation-filters="sRGB" filterUnits="userSpaceOnUse"><feFlood flood-opacity="0" result="BackgroundImageFix"/><feBlend in="SourceGraphic" in2="BackgroundImageFix" result="shape"/><feGaussianBlur result="effect1_foregroundBlur_18_21307" stdDeviation=".1"/></filter><filter id="filter3_ii_18_21307" width="6.5" height="14.2" x="13" y="13.2" color-interpolation-filters="sRGB" filterUnits="userSpaceOnUse"><feFlood flood-opacity="0" result="BackgroundImageFix"/><feBlend in="SourceGraphic" in2="BackgroundImageFix" result="shape"/><feColorMatrix in="SourceAlpha" result="hardAlpha" values="0 0 0 0 0 0 0 0 0 0 0 0 0 0 0 0 0 0 127 0"/><feOffset dx=".1" dy="-.2"/><feGaussianBlur stdDeviation=".1"/><feComposite in2="hardAlpha" k2="-1" k3="1" operator="arithmetic"/><feColorMatrix values="0 0 0 0 0.352941 0 0 0 0 0.168627 0 0 0 0 0.188235 0 0 0 1 0"/><feBlend in2="shape" result="effect1_innerShadow_18_21307"/><feColorMatrix in="SourceAlpha" result="hardAlpha" values="0 0 0 0 0 0 0 0 0 0 0 0 0 0 0 0 0 0 127 0"/><feOffset dx="-.1" dy=".1"/><feGaussianBlur stdDeviation=".1"/><feComposite in2="hardAlpha" k2="-1" k3="1" operator="arithmetic"/><feColorMatrix values="0 0 0 0 0.670588 0 0 0 0 0.458824 0 0 0 0 0.403922 0 0 0 1 0"/><feBlend in2="effect1_innerShadow_18_21307" result="effect2_innerShadow_18_21307"/></filter><filter id="filter4_i_18_21307" width="5.7" height="2.7" x="13.3" y="6.8" color-interpolation-filters="sRGB" filterUnits="userSpaceOnUse"><feFlood flood-opacity="0" result="BackgroundImageFix"/><feBlend in="SourceGraphic" in2="BackgroundImageFix" result="shape"/><feColorMatrix in="SourceAlpha" result="hardAlpha" values="0 0 0 0 0 0 0 0 0 0 0 0 0 0 0 0 0 0 127 0"/><feOffset dy="-.6"/><feGaussianBlur stdDeviation=".5"/><feComposite in2="hardAlpha" k2="-1" k3="1" operator="arithmetic"/><feColorMatrix values="0 0 0 0 0.388235 0 0 0 0 0.223529 0 0 0 0 0.109804 0 0 0 1 0"/><feBlend in2="shape" result="effect1_innerShadow_18_21307"/></filter><linearGradient id="paint4_linear_18_21307" x1="17.5" x2="16.2" y1="3.9" y2="7.4" gradientUnits="userSpaceOnUse"><stop stop-color="#f3c048"/><stop offset="1" stop-color="#e67a41"/></linearGradient><linearGradient id="paint5_linear_18_21307" x1="16" x2="16" y1="13.8" y2="26.6" gradientUnits="userSpaceOnUse"><stop stop-color="#a6782c"/><stop offset="1" stop-color="#b95940"/></linearGradient><linearGradient id="paint6_linear_18_21307" x1="19.7" x2="13.1" y1="21.9" y2="21.9" gradientUnits="userSpaceOnUse"><stop stop-color="#9d6360"/><stop offset="1" stop-color="#724a4d"/></linearGradient><linearGradient id="paint7_linear_18_21307" x1="14.1" x2="19.1" y1="8.4" y2="8.4" gradientUnits="userSpaceOnUse"><stop stop-color="#834b41"/><stop offset="1" stop-color="#735854"/></linearGradient></defs></svg>