<svg xmlns="http://www.w3.org/2000/svg" fill="none" viewBox="0 0 32 32"><g filter="url(#filter0_i_18_504)"><path fill="url(#paint0_linear_18_504)" d="M18.7 24.9q.6-.3.7-.7c1.2-1.5-1.3-5.9-5-8.4-3.7-3.3-8-4.5-9.1-3l-.5 1-2.2 13c-.1 1.5.5 2.1.8 2.4a3 3 0 0 0 2.7.6c4.3-1.7 8.3-3 12.6-5"/></g><path fill="url(#paint1_linear_18_504)" d="M18.7 24.9q.6-.3.7-.7c1.2-1.5-1.3-5.9-5-8.4-3.7-3.3-8-4.5-9.1-3l-.5 1-2.2 13c-.1 1.5.5 2.1.8 2.4a3 3 0 0 0 2.7.6c4.3-1.7 8.3-3 12.6-5"/><path fill="url(#paint2_linear_18_504)" d="M18.7 24.9q.6-.3.7-.7c1.2-1.5-1.3-5.9-5-8.4-3.7-3.3-8-4.5-9.1-3l-.5 1-2.2 13c-.1 1.5.5 2.1.8 2.4a3 3 0 0 0 2.7.6c4.3-1.7 8.3-3 12.6-5"/><path fill="url(#paint3_linear_18_504)" d="M18.7 24.9q.6-.3.7-.7c1.2-1.5-1.3-5.9-5-8.4-3.7-3.3-8-4.5-9.1-3l-.5 1-2.2 13c-.1 1.5.5 2.1.8 2.4a3 3 0 0 0 2.7.6c4.3-1.7 8.3-3 12.6-5"/><g filter="url(#filter1_f_18_504)"><ellipse cx="12.3" cy="18.6" fill="url(#paint4_linear_18_504)" rx="8.8" ry="3.5" transform="rotate(39.8 12.3 18.6)"/></g><g filter="url(#filter2_f_18_504)"><ellipse cx="12.6" cy="18.2" fill="url(#paint5_linear_18_504)" rx="8.1" ry="2.9" transform="rotate(39.8 12.6 18.2)"/><ellipse cx="12.6" cy="18.2" fill="url(#paint6_radial_18_504)" rx="8.1" ry="2.9" transform="rotate(39.8 12.6 18.2)"/><ellipse cx="12.6" cy="18.2" fill="url(#paint7_radial_18_504)" rx="8.1" ry="2.9" transform="rotate(39.8 12.6 18.2)"/></g><circle cx="15" cy="16" r="1.2" fill="url(#paint8_radial_18_504)"/><circle cx="15" cy="16" r="1.2" fill="url(#paint9_radial_18_504)"/><circle cx="24.8" cy="22.9" r="1.2" fill="url(#paint10_radial_18_504)"/><circle cx="24.8" cy="22.9" r="1.2" fill="url(#paint11_radial_18_504)"/><circle cx="24.8" cy="22.9" r="1.2" fill="url(#paint12_radial_18_504)"/><circle cx="23.8" cy="7" r="1.2" fill="url(#paint13_radial_18_504)"/><circle cx="23.8" cy="7" r="1.2" fill="url(#paint14_radial_18_504)"/><circle cx="10" cy="3.4" r="1.2" fill="url(#paint15_radial_18_504)"/><circle cx="10" cy="3.4" r="1.2" fill="url(#paint16_radial_18_504)"/><circle cx="10" cy="3.4" r="1.2" fill="url(#paint17_radial_18_504)"/><circle cx="4.9" cy="8.1" r="1.2" fill="url(#paint18_radial_18_504)"/><circle cx="4.9" cy="8.1" r="1.2" fill="url(#paint19_radial_18_504)"/><path fill="url(#paint20_radial_18_504)" d="M16 26c-2.7-.2-4.5-1-7.5-3.4q-3.7-3.1-4.2-5.9l-.5 2.8q.2 1.8 2.8 4.2c2.2 2 4.4 3.5 6.6 3.4z"/><path fill="url(#paint21_radial_18_504)" d="M10.5 28.2q-2-.1-4.7-2.4a7 7 0 0 1-2.4-3.5L2.9 25q0 .7 1.5 2.3a6 6 0 0 0 3.2 1.9l1.5-.6z"/><g fill-rule="evenodd" clip-rule="evenodd" filter="url(#filter3_i_18_504)"><path fill="url(#paint22_radial_18_504)" d="M27.9 13.1c-3.6-.7-5.7 1-6.4 1.7a1 1 0 1 1-1.5-1.4c1-1.2 3.8-3.2 8.3-2.4a1 1 0 0 1-.4 2.1"/><path fill="url(#paint23_radial_18_504)" d="M27.9 13.1c-3.6-.7-5.7 1-6.4 1.7a1 1 0 1 1-1.5-1.4c1-1.2 3.8-3.2 8.3-2.4a1 1 0 0 1-.4 2.1"/></g><path fill="url(#paint24_linear_18_504)" fill-rule="evenodd" d="M19.1 2q.9.3.9 1l-.5 3.3a12 12 0 0 1-1.3 3.3q.3 1.2 0 2.8a1 1 0 0 1-1.8-.3v-.7q-.2.2-.5.2-1.2.4-2-.3a2.6 2.6 0 0 1-.8-3.5 2.6 2.6 0 0 1 3.7-.7l.4.3.5-1.6Q18 4 18 3a1 1 0 0 1 1-1m-3 7.2-.4-.5q-.7-.4-1 .1a1 1 0 0 0 .2 1h.5q.3 0 .8-.6" clip-rule="evenodd"/><path fill="url(#paint25_radial_18_504)" fill-rule="evenodd" d="M19.1 2q.9.3.9 1l-.5 3.3a12 12 0 0 1-1.3 3.3q.3 1.2 0 2.8a1 1 0 0 1-1.8-.3v-.7q-.2.2-.5.2-1.2.4-2-.3a2.6 2.6 0 0 1-.8-3.5 2.6 2.6 0 0 1 3.7-.7l.4.3.5-1.6Q18 4 18 3a1 1 0 0 1 1-1m-3 7.2-.4-.5q-.7-.4-1 .1a1 1 0 0 0 .2 1h.5q.3 0 .8-.6" clip-rule="evenodd"/><path fill="url(#paint26_radial_18_504)" fill-rule="evenodd" d="M19.1 2q.9.3.9 1l-.5 3.3a12 12 0 0 1-1.3 3.3q.3 1.2 0 2.8a1 1 0 0 1-1.8-.3v-.7q-.2.2-.5.2-1.2.4-2-.3a2.6 2.6 0 0 1-.8-3.5 2.6 2.6 0 0 1 3.7-.7l.4.3.5-1.6Q18 4 18 3a1 1 0 0 1 1-1m-3 7.2-.4-.5q-.7-.4-1 .1a1 1 0 0 0 .2 1h.5q.3 0 .8-.6" clip-rule="evenodd"/><path fill="url(#paint27_radial_18_504)" fill-rule="evenodd" d="M19.1 2q.9.3.9 1l-.5 3.3a12 12 0 0 1-1.3 3.3q.3 1.2 0 2.8a1 1 0 0 1-1.8-.3v-.7q-.2.2-.5.2-1.2.4-2-.3a2.6 2.6 0 0 1-.8-3.5 2.6 2.6 0 0 1 3.7-.7l.4.3.5-1.6Q18 4 18 3a1 1 0 0 1 1-1m-3 7.2-.4-.5q-.7-.4-1 .1a1 1 0 0 0 .2 1h.5q.3 0 .8-.6" clip-rule="evenodd"/><path fill="url(#paint28_linear_18_504)" fill-rule="evenodd" d="m13.8 22.6-2-1.4a18 18 0 0 1 5.5-4.3c4.1-2.1 8.7-1 10.6-.3a1.3 1.3 0 1 1-1 2.4 11 11 0 0 0-8.5 0 15 15 0 0 0-4.6 3.6" clip-rule="evenodd"/><path fill="url(#paint29_radial_18_504)" fill-rule="evenodd" d="m13.8 22.6-2-1.4a18 18 0 0 1 5.5-4.3c4.1-2.1 8.7-1 10.6-.3a1.3 1.3 0 1 1-1 2.4 11 11 0 0 0-8.5 0 15 15 0 0 0-4.6 3.6" clip-rule="evenodd"/><path fill="url(#paint30_radial_18_504)" fill-rule="evenodd" d="m13.8 22.6-2-1.4a18 18 0 0 1 5.5-4.3c4.1-2.1 8.7-1 10.6-.3a1.3 1.3 0 1 1-1 2.4 11 11 0 0 0-8.5 0 15 15 0 0 0-4.6 3.6" clip-rule="evenodd"/><path fill="url(#paint31_radial_18_504)" fill-rule="evenodd" d="m13.8 22.6-2-1.4a18 18 0 0 1 5.5-4.3c4.1-2.1 8.7-1 10.6-.3a1.3 1.3 0 1 1-1 2.4 11 11 0 0 0-8.5 0 15 15 0 0 0-4.6 3.6" clip-rule="evenodd"/><g fill-rule="evenodd" clip-rule="evenodd" filter="url(#filter4_i_18_504)"><path fill="url(#paint32_radial_18_504)" d="M10.2 6.7A1.3 1.3 0 1 0 8 7.9a9 9 0 0 1 1.2 3.8 9 9 0 0 1-1.6 5.5q.7 1 1.7 2a12 12 0 0 0 2.4-7.6 11 11 0 0 0-1.5-5"/><path fill="url(#paint33_radial_18_504)" d="M10.2 6.7A1.3 1.3 0 1 0 8 7.9a9 9 0 0 1 1.2 3.8 9 9 0 0 1-1.6 5.5q.7 1 1.7 2a12 12 0 0 0 2.4-7.6 11 11 0 0 0-1.5-5"/></g><path fill="url(#paint34_radial_18_504)" d="m12.9 8.2.2-.4a2.6 2.6 0 0 1 3.7-.7l.4.3.1-.3-1.1 2.1-.5-.6q-.7-.3-1 .2z"/><path fill="url(#paint35_radial_18_504)" d="m12.9 8.2.2-.4a2.6 2.6 0 0 1 3.7-.7l.4.3.1-.3-1.1 2.1-.5-.6q-.7-.3-1 .2z"/><g filter="url(#filter5_i_18_504)"><path fill="#44b6ff" d="M18.2 9.6q.3 1.2 0 2.8a1 1 0 1 1-1.9-.3l.1-.7a5 5 0 0 0 1.8-1.8"/></g><path fill="url(#paint36_radial_18_504)" d="M18.2 9.6q.3 1.2 0 2.8a1 1 0 1 1-1.9-.3l.1-.7a5 5 0 0 0 1.8-1.8"/><g filter="url(#filter6_f_18_504)"><path stroke="url(#paint37_linear_18_504)" stroke-linecap="round" stroke-width=".3" d="M16.6 8.2a1.6 1.6 0 0 0-2.2-.4q-.7.6-.4 1.7"/></g><g filter="url(#filter7_f_18_504)"><path stroke="url(#paint38_linear_18_504)" stroke-linecap="round" stroke-width=".3" d="M19.5 3c-.1 1.5-.8 5-2.7 7.3"/></g><defs><radialGradient id="paint6_radial_18_504" cx="0" cy="0" r="1" gradientTransform="rotate(250.9 11.5 7.3)scale(6.4775 1.81427)" gradientUnits="userSpaceOnUse"><stop offset=".4" stop-color="#ca851e"/><stop offset="1" stop-color="#ca851e" stop-opacity="0"/></radialGradient><radialGradient id="paint7_radial_18_504" cx="0" cy="0" r="1" gradientTransform="rotate(-73.1 21.5 0)scale(6.50954 3.81205)" gradientUnits="userSpaceOnUse"><stop stop-color="#bc7f28"/><stop offset="1" stop-color="#bc7f28" stop-opacity="0"/></radialGradient><radialGradient id="paint8_radial_18_504" cx="0" cy="0" r="1" gradientTransform="rotate(138.7 4.8 10.8)scale(1.72711)" gradientUnits="userSpaceOnUse"><stop stop-color="#5ac0ff"/><stop offset="1" stop-color="#3279b6"/></radialGradient><radialGradient id="paint9_radial_18_504" cx="0" cy="0" r="1" gradientTransform="rotate(160 6.2 9.2)scale(1.73439 1.90111)" gradientUnits="userSpaceOnUse"><stop offset=".5" stop-color="#3a619e" stop-opacity="0"/><stop offset="1" stop-color="#3a619e"/></radialGradient><radialGradient id="paint10_radial_18_504" cx="0" cy="0" r="1" gradientTransform="rotate(134.6 8 16.5)scale(1.97753)" gradientUnits="userSpaceOnUse"><stop stop-color="#fdd46c"/><stop offset="1" stop-color="#f09c53"/></radialGradient><radialGradient id="paint11_radial_18_504" cx="0" cy="0" r="1" gradientTransform="rotate(100.8 3.3 21.5)scale(1.95883)" gradientUnits="userSpaceOnUse"><stop offset=".8" stop-color="#e76260" stop-opacity="0"/><stop offset="1" stop-color="#e76260"/></radialGradient><radialGradient id="paint12_radial_18_504" cx="0" cy="0" r="1" gradientTransform="rotate(212.4 16 7.9)scale(1.98371 2.33609)" gradientUnits="userSpaceOnUse"><stop offset=".5" stop-color="#aa885a" stop-opacity="0"/><stop offset=".9" stop-color="#aa885a"/></radialGradient><radialGradient id="paint13_radial_18_504" cx="0" cy="0" r="1" gradientTransform="rotate(132.4 10.9 8.7)scale(2.06012)" gradientUnits="userSpaceOnUse"><stop stop-color="#ff46aa"/><stop offset="1" stop-color="#e3189d"/></radialGradient><radialGradient id="paint14_radial_18_504" cx="0" cy="0" r="1" gradientTransform="rotate(186.7 12.4 2.9)scale(1.8722 2.50559)" gradientUnits="userSpaceOnUse"><stop offset=".5" stop-color="#b63173" stop-opacity="0"/><stop offset="1" stop-color="#b63173"/></radialGradient><radialGradient id="paint15_radial_18_504" cx="0" cy="0" r="1" gradientTransform="rotate(139.6 4.9 3.4)scale(1.84118)" gradientUnits="userSpaceOnUse"><stop stop-color="#fff46f"/><stop offset="1" stop-color="#efb93c"/></radialGradient><radialGradient id="paint16_radial_18_504" cx="0" cy="0" r="1" gradientTransform="rotate(181.5 5.3 1.5)scale(1.91464 1.82297)" gradientUnits="userSpaceOnUse"><stop offset=".6" stop-color="#aa904b" stop-opacity="0"/><stop offset=".9" stop-color="#aa904b"/></radialGradient><radialGradient id="paint17_radial_18_504" cx="0" cy="0" r="1" gradientTransform="rotate(102.3 4 5.5)scale(2.0473)" gradientUnits="userSpaceOnUse"><stop offset=".8" stop-color="#c47072" stop-opacity="0"/><stop offset="1" stop-color="#c47072"/></radialGradient><radialGradient id="paint18_radial_18_504" cx="0" cy="0" r="1" gradientTransform="rotate(132.4 1.2 5.1)scale(2.06012)" gradientUnits="userSpaceOnUse"><stop stop-color="#ff46aa"/><stop offset="1" stop-color="#e3189d"/></radialGradient><radialGradient id="paint19_radial_18_504" cx="0" cy="0" r="1" gradientTransform="rotate(186.7 3 4)scale(1.8722 2.50559)" gradientUnits="userSpaceOnUse"><stop offset=".5" stop-color="#b63173" stop-opacity="0"/><stop offset="1" stop-color="#b63173"/></radialGradient><radialGradient id="paint20_radial_18_504" cx="0" cy="0" r="1" gradientTransform="rotate(133.2 .2 15)scale(4.24471 9.2935)" gradientUnits="userSpaceOnUse"><stop stop-color="#3365ff"/><stop offset="1" stop-color="#356db9"/></radialGradient><radialGradient id="paint21_radial_18_504" cx="0" cy="0" r="1" gradientTransform="rotate(131.6 -2.6 15.7)scale(2.62017 6.62793)" gradientUnits="userSpaceOnUse"><stop stop-color="#3365ff"/><stop offset="1" stop-color="#356db9"/></radialGradient><radialGradient id="paint22_radial_18_504" cx="0" cy="0" r="1" gradientTransform="rotate(168.3 13.2 7.4)scale(4.30854 1.60742)" gradientUnits="userSpaceOnUse"><stop stop-color="#ff3ba9"/><stop offset="1" stop-color="#f422a7"/></radialGradient><radialGradient id="paint23_radial_18_504" cx="0" cy="0" r="1" gradientTransform="rotate(232.6 16 1.6)scale(4.44241 7.91727)" gradientUnits="userSpaceOnUse"><stop offset=".8" stop-color="#b8306f" stop-opacity="0"/><stop offset="1" stop-color="#b8306f"/></radialGradient><radialGradient id="paint25_radial_18_504" cx="0" cy="0" r="1" gradientTransform="rotate(128.2 7.7 7.2)scale(7.76064 4.747)" gradientUnits="userSpaceOnUse"><stop offset=".8" stop-color="#4274d2" stop-opacity="0"/><stop offset=".9" stop-color="#4274d2"/></radialGradient><radialGradient id="paint26_radial_18_504" cx="0" cy="0" r="1" gradientTransform="rotate(12.1 -13.2 85.8)scale(1.11858 3.75515)" gradientUnits="userSpaceOnUse"><stop stop-color="#4d8ec0"/><stop offset="1" stop-color="#4d8ec0" stop-opacity="0"/></radialGradient><radialGradient id="paint27_radial_18_504" cx="0" cy="0" r="1" gradientTransform="rotate(142 9.6 4.6)scale(1.36904 1.23086)" gradientUnits="userSpaceOnUse"><stop stop-color="#5adeff"/><stop offset="1" stop-color="#5adeff" stop-opacity="0"/></radialGradient><radialGradient id="paint29_radial_18_504" cx="0" cy="0" r="1" gradientTransform="rotate(230.2 15.3 7.4)scale(7.98002 20.0036)" gradientUnits="userSpaceOnUse"><stop offset=".6" stop-color="#526579" stop-opacity="0"/><stop offset="1" stop-color="#526579"/></radialGradient><radialGradient id="paint30_radial_18_504" cx="0" cy="0" r="1" gradientTransform="rotate(94.4 2.9 20.9)scale(2.7392 5.50719)" gradientUnits="userSpaceOnUse"><stop offset=".4" stop-color="#6972ff"/><stop offset="1" stop-color="#6972ff" stop-opacity="0"/></radialGradient><radialGradient id="paint31_radial_18_504" cx="0" cy="0" r="1" gradientTransform="matrix(.27136 -.7003 .55226 .214 28 17.3)" gradientUnits="userSpaceOnUse"><stop stop-color="#55bfff"/><stop offset="1" stop-color="#55bfff" stop-opacity="0"/></radialGradient><radialGradient id="paint32_radial_18_504" cx="0" cy="0" r="1" gradientTransform="rotate(99.4 2.7 7.8)scale(7.31184 2.7393)" gradientUnits="userSpaceOnUse"><stop stop-color="#ff3aaa"/><stop offset="1" stop-color="#fd2f89"/></radialGradient><radialGradient id="paint33_radial_18_504" cx="0" cy="0" r="1" gradientTransform="matrix(4.11298 2.4909 -7.81718 12.9077 7 14)" gradientUnits="userSpaceOnUse"><stop offset=".8" stop-color="#db2c6e" stop-opacity="0"/><stop offset="1" stop-color="#db2c6e"/></radialGradient><radialGradient id="paint34_radial_18_504" cx="0" cy="0" r="1" gradientTransform="rotate(240.8 11 0)scale(2.73834 2.04693)" gradientUnits="userSpaceOnUse"><stop stop-color="#336baf"/><stop offset="1" stop-color="#336baf" stop-opacity="0"/></radialGradient><radialGradient id="paint35_radial_18_504" cx="0" cy="0" r="1" gradientTransform="rotate(232.3 10.5 -.5)scale(1.85511 .7516)" gradientUnits="userSpaceOnUse"><stop stop-color="#49a4d4"/><stop offset="1" stop-color="#49a4d4" stop-opacity="0"/></radialGradient><radialGradient id="paint36_radial_18_504" cx="0" cy="0" r="1" gradientTransform="rotate(94.8 4.7 13)scale(2.58739 1.44)" gradientUnits="userSpaceOnUse"><stop stop-color="#4ab5f8"/><stop offset="1" stop-color="#4ab5f8" stop-opacity="0"/></radialGradient><linearGradient id="paint0_linear_18_504" x1="4.2" x2="12.3" y1="20" y2="27" gradientUnits="userSpaceOnUse"><stop stop-color="#b3843c"/><stop offset="1" stop-color="#f17a61"/></linearGradient><linearGradient id="paint1_linear_18_504" x1="3.3" x2="5.7" y1="21.1" y2="21.6" gradientUnits="userSpaceOnUse"><stop stop-color="#b1853b"/><stop offset="1" stop-color="#b1853b" stop-opacity="0"/></linearGradient><linearGradient id="paint2_linear_18_504" x1="19.7" x2="15.8" y1="23.8" y2="24.5" gradientUnits="userSpaceOnUse"><stop stop-color="#f9c26c"/><stop offset="1" stop-color="#f9c26c" stop-opacity="0"/></linearGradient><linearGradient id="paint3_linear_18_504" x1="11.2" x2="8.6" y1="12.4" y2="16.7" gradientUnits="userSpaceOnUse"><stop stop-color="#e6bf69"/><stop offset="1" stop-color="#e6bf69" stop-opacity="0"/></linearGradient><linearGradient id="paint4_linear_18_504" x1="12.3" x2="13.3" y1="21.8" y2="14.9" gradientUnits="userSpaceOnUse"><stop stop-color="#fccb57"/><stop offset="1" stop-color="#f5bd55"/></linearGradient><linearGradient id="paint5_linear_18_504" x1="5.2" x2="21.6" y1="17.9" y2="18.7" gradientUnits="userSpaceOnUse"><stop stop-color="#f3ab2c"/><stop offset="1" stop-color="#b57f1e"/></linearGradient><linearGradient id="paint24_linear_18_504" x1="19.1" x2="14.6" y1="2.1" y2="12.8" gradientUnits="userSpaceOnUse"><stop stop-color="#20b2ee"/><stop offset="1" stop-color="#2689da"/></linearGradient><linearGradient id="paint28_linear_18_504" x1="14.4" x2="27.9" y1="21.7" y2="18.2" gradientUnits="userSpaceOnUse"><stop stop-color="#3797e2"/><stop offset="1" stop-color="#37aeff"/></linearGradient><linearGradient id="paint37_linear_18_504" x1="13.6" x2="16.4" y1="8.2" y2="7.5" gradientUnits="userSpaceOnUse"><stop stop-color="#4eaff2"/><stop offset="1" stop-color="#4eaff2" stop-opacity="0"/></linearGradient><linearGradient id="paint38_linear_18_504" x1="19.3" x2="15.3" y1="1.9" y2="10.9" gradientUnits="userSpaceOnUse"><stop stop-color="#5bddff"/><stop offset="1" stop-color="#5bddff" stop-opacity="0"/></linearGradient><filter id="filter0_i_18_504" width="17.2" height="18.3" x="2.6" y="11.7" color-interpolation-filters="sRGB" filterUnits="userSpaceOnUse"><feFlood flood-opacity="0" result="BackgroundImageFix"/><feBlend in="SourceGraphic" in2="BackgroundImageFix" result="shape"/><feColorMatrix in="SourceAlpha" result="hardAlpha" values="0 0 0 0 0 0 0 0 0 0 0 0 0 0 0 0 0 0 127 0"/><feOffset dy="-.5"/><feGaussianBlur stdDeviation=".5"/><feComposite in2="hardAlpha" k2="-1" k3="1" operator="arithmetic"/><feColorMatrix values="0 0 0 0 0.92549 0 0 0 0 0.34902 0 0 0 0 0.384314 0 0 0 1 0"/><feBlend in2="shape" result="effect1_innerShadow_18_504"/></filter><filter id="filter1_f_18_504" width="15.2" height="13.4" x="4.7" y="11.9" color-interpolation-filters="sRGB" filterUnits="userSpaceOnUse"><feFlood flood-opacity="0" result="BackgroundImageFix"/><feBlend in="SourceGraphic" in2="BackgroundImageFix" result="shape"/><feGaussianBlur result="effect1_foregroundBlur_18_504" stdDeviation=".3"/></filter><filter id="filter2_f_18_504" width="13.4" height="11.7" x="5.8" y="12.3" color-interpolation-filters="sRGB" filterUnits="userSpaceOnUse"><feFlood flood-opacity="0" result="BackgroundImageFix"/><feBlend in="SourceGraphic" in2="BackgroundImageFix" result="shape"/><feGaussianBlur result="effect1_foregroundBlur_18_504" stdDeviation=".1"/></filter><filter id="filter3_i_18_504" width="9.7" height="4.5" x="19.7" y="10.6" color-interpolation-filters="sRGB" filterUnits="userSpaceOnUse"><feFlood flood-opacity="0" result="BackgroundImageFix"/><feBlend in="SourceGraphic" in2="BackgroundImageFix" result="shape"/><feColorMatrix in="SourceAlpha" result="hardAlpha" values="0 0 0 0 0 0 0 0 0 0 0 0 0 0 0 0 0 0 127 0"/><feOffset dx=".3" dy="-.3"/><feGaussianBlur stdDeviation=".3"/><feComposite in2="hardAlpha" k2="-1" k3="1" operator="arithmetic"/><feColorMatrix values="0 0 0 0 0.721569 0 0 0 0 0.270588 0 0 0 0 0.470588 0 0 0 1 0"/><feBlend in2="shape" result="effect1_innerShadow_18_504"/></filter><filter id="filter4_i_18_504" width="4.3" height="13.4" x="7.6" y="6" color-interpolation-filters="sRGB" filterUnits="userSpaceOnUse"><feFlood flood-opacity="0" result="BackgroundImageFix"/><feBlend in="SourceGraphic" in2="BackgroundImageFix" result="shape"/><feColorMatrix in="SourceAlpha" result="hardAlpha" values="0 0 0 0 0 0 0 0 0 0 0 0 0 0 0 0 0 0 127 0"/><feOffset dx=".1" dy=".3"/><feGaussianBlur stdDeviation=".5"/><feComposite in2="hardAlpha" k2="-1" k3="1" operator="arithmetic"/><feColorMatrix values="0 0 0 0 0.721569 0 0 0 0 0.184314 0 0 0 0 0.447059 0 0 0 1 0"/><feBlend in2="shape" result="effect1_innerShadow_18_504"/></filter><filter id="filter5_i_18_504" width="2.5" height="3.9" x="16.3" y="9.3" color-interpolation-filters="sRGB" filterUnits="userSpaceOnUse"><feFlood flood-opacity="0" result="BackgroundImageFix"/><feBlend in="SourceGraphic" in2="BackgroundImageFix" result="shape"/><feColorMatrix in="SourceAlpha" result="hardAlpha" values="0 0 0 0 0 0 0 0 0 0 0 0 0 0 0 0 0 0 127 0"/><feOffset dx=".5" dy="-.3"/><feGaussianBlur stdDeviation=".3"/><feComposite in2="hardAlpha" k2="-1" k3="1" operator="arithmetic"/><feColorMatrix values="0 0 0 0 0.239216 0 0 0 0 0.439216 0 0 0 0 0.768627 0 0 0 1 0"/><feBlend in2="shape" result="effect1_innerShadow_18_504"/></filter><filter id="filter6_f_18_504" width="3.5" height="2.8" x="13.4" y="7.1" color-interpolation-filters="sRGB" filterUnits="userSpaceOnUse"><feFlood flood-opacity="0" result="BackgroundImageFix"/><feBlend in="SourceGraphic" in2="BackgroundImageFix" result="shape"/><feGaussianBlur result="effect1_foregroundBlur_18_504" stdDeviation=".1"/></filter><filter id="filter7_f_18_504" width="3.9" height="8.4" x="16.2" y="2.4" color-interpolation-filters="sRGB" filterUnits="userSpaceOnUse"><feFlood flood-opacity="0" result="BackgroundImageFix"/><feBlend in="SourceGraphic" in2="BackgroundImageFix" result="shape"/><feGaussianBlur result="effect1_foregroundBlur_18_504" stdDeviation=".2"/></filter></defs></svg>