<svg xmlns="http://www.w3.org/2000/svg" fill="none" viewBox="0 0 32 32"><g filter="url(#filter0_i_18_24255)"><path fill="#378aed" d="M4.71 9.21c0-.9.7-1.62 1.55-1.95a5 5 0 0 0 2.8-2.92c.36-.9 1.15-1.6 2.11-1.6h7.8c1 0 1.8.74 2.2 1.64A6 6 0 0 0 24 7.3c.8.4 1.48 1.14 1.48 2.03v3.22c0 6.95-2.18 11.14-7.9 15.96a3.2 3.2 0 0 1-4.03.1C8.29 24.64 4.7 19.94 4.7 12.55z"/><path fill="url(#paint0_radial_18_24255)" d="M4.71 9.21c0-.9.7-1.62 1.55-1.95a5 5 0 0 0 2.8-2.92c.36-.9 1.15-1.6 2.11-1.6h7.8c1 0 1.8.74 2.2 1.64A6 6 0 0 0 24 7.3c.8.4 1.48 1.14 1.48 2.03v3.22c0 6.95-2.18 11.14-7.9 15.96a3.2 3.2 0 0 1-4.03.1C8.29 24.64 4.7 19.94 4.7 12.55z"/></g><path fill="#3c88f0" fill-opacity=".5" d="M15.51 29.28V2.75h3.47c.98 0 1.78.73 2.18 1.63a6 6 0 0 0 2.85 2.93c.8.4 1.48 1.14 1.48 2.03v3.22c0 6.95-2.18 11.14-7.9 15.96-.6.5-1.34.75-2.08.76"/><g filter="url(#filter1_i_18_24255)"><path fill="url(#paint1_radial_18_24255)" d="M15.51 29.26V2.75h3.87c1.01 0 1.83.73 2.24 1.63a6 6 0 0 0 2.93 2.93c.82.4 1.52 1.14 1.52 2.03v3.22c0 6.95-2.23 11.14-8.12 15.96a3.4 3.4 0 0 1-2.44.74"/><path fill="url(#paint2_radial_18_24255)" d="M15.51 29.26V2.75h3.87c1.01 0 1.83.73 2.24 1.63a6 6 0 0 0 2.93 2.93c.82.4 1.52 1.14 1.52 2.03v3.22c0 6.95-2.23 11.14-8.12 15.96a3.4 3.4 0 0 1-2.44.74"/></g><g filter="url(#filter2_iii_18_24255)"><path fill="url(#paint3_linear_18_24255)" fill-rule="evenodd" d="M11.17 2.04h8.68c1.33 0 2.33.96 2.76 2.04a4.3 4.3 0 0 0 2.42 2.53C26 7 27 7.9 27 9.2v3.35c0 7.68-3.76 12.57-9.13 16.63-.7.53-1.54.79-2.37.79a4 4 0 0 1-2.37-.8C7.76 25.12 4 20.23 4 12.55V9.21C4 7.91 5 7 5.99 6.61a4.3 4.3 0 0 0 2.4-2.53C8.85 3 9.86 2.04 11.18 2.04m4.34 26.54a2.5 2.5 0 0 0 1.53-.51c5.16-3.9 8.57-8.42 8.57-15.51V9.21c0-.5-.41-1.03-1.1-1.3a5.7 5.7 0 0 1-3.2-3.3c-.28-.72-.86-1.17-1.46-1.17h-8.68c-.6 0-1.18.45-1.46 1.16a5.7 5.7 0 0 1-3.2 3.3c-.68.28-1.1.8-1.1 1.31v3.35c0 7.1 3.42 11.61 8.57 15.5.46.35 1 .52 1.53.52" clip-rule="evenodd"/></g><path fill="url(#paint4_radial_18_24255)" fill-rule="evenodd" d="M11.17 2.04h8.68c1.33 0 2.33.96 2.76 2.04a4.3 4.3 0 0 0 2.42 2.53C26 7 27 7.9 27 9.2v3.35c0 7.68-3.76 12.57-9.13 16.63-.7.53-1.54.79-2.37.79a4 4 0 0 1-2.37-.8C7.76 25.12 4 20.23 4 12.55V9.21C4 7.91 5 7 5.99 6.61a4.3 4.3 0 0 0 2.4-2.53C8.85 3 9.86 2.04 11.18 2.04m4.34 26.54a2.5 2.5 0 0 0 1.53-.51c5.16-3.9 8.57-8.42 8.57-15.51V9.21c0-.5-.41-1.03-1.1-1.3a5.7 5.7 0 0 1-3.2-3.3c-.28-.72-.86-1.17-1.46-1.17h-8.68c-.6 0-1.18.45-1.46 1.16a5.7 5.7 0 0 1-3.2 3.3c-.68.28-1.1.8-1.1 1.31v3.35c0 7.1 3.42 11.61 8.57 15.5.46.35 1 .52 1.53.52" clip-rule="evenodd"/><path fill="url(#paint5_radial_18_24255)" fill-rule="evenodd" d="M11.17 2.04h8.68c1.33 0 2.33.96 2.76 2.04a4.3 4.3 0 0 0 2.42 2.53C26 7 27 7.9 27 9.2v3.35c0 7.68-3.76 12.57-9.13 16.63-.7.53-1.54.79-2.37.79a4 4 0 0 1-2.37-.8C7.76 25.12 4 20.23 4 12.55V9.21C4 7.91 5 7 5.99 6.61a4.3 4.3 0 0 0 2.4-2.53C8.85 3 9.86 2.04 11.18 2.04m4.34 26.54a2.5 2.5 0 0 0 1.53-.51c5.16-3.9 8.57-8.42 8.57-15.51V9.21c0-.5-.41-1.03-1.1-1.3a5.7 5.7 0 0 1-3.2-3.3c-.28-.72-.86-1.17-1.46-1.17h-8.68c-.6 0-1.18.45-1.46 1.16a5.7 5.7 0 0 1-3.2 3.3c-.68.28-1.1.8-1.1 1.31v3.35c0 7.1 3.42 11.61 8.57 15.5.46.35 1 .52 1.53.52" clip-rule="evenodd"/><defs><radialGradient id="paint0_radial_18_24255" cx="0" cy="0" r="1" gradientTransform="rotate(139.98 6.45 11.85)scale(13.0893 18.3325)" gradientUnits="userSpaceOnUse"><stop offset=".79" stop-color="#3782e8" stop-opacity="0"/><stop offset=".94" stop-color="#286aca"/></radialGradient><radialGradient id="paint1_radial_18_24255" cx="0" cy="0" r="1" gradientTransform="matrix(10.1192 0 0 22.4259 15.51 16.01)" gradientUnits="userSpaceOnUse"><stop stop-color="#52c9ff"/><stop offset="1" stop-color="#59cbff"/></radialGradient><radialGradient id="paint2_radial_18_24255" cx="0" cy="0" r="1" gradientTransform="rotate(12.05 -59.76 85.77)scale(9.20844 15.8393)" gradientUnits="userSpaceOnUse"><stop offset=".8" stop-color="#4af" stop-opacity="0"/><stop offset=".97" stop-color="#1b7ce2"/></radialGradient><radialGradient id="paint4_radial_18_24255" cx="0" cy="0" r="1" gradientTransform="rotate(233.75 5.84 1.07)scale(.84186 5.23728)" gradientUnits="userSpaceOnUse"><stop offset=".28" stop-color="#b8b1c0"/><stop offset="1" stop-color="#b8b1c0" stop-opacity="0"/></radialGradient><radialGradient id="paint5_radial_18_24255" cx="0" cy="0" r="1" gradientTransform="rotate(233.31 6.45 -.15)scale(1.98751 2.44938)" gradientUnits="userSpaceOnUse"><stop offset=".36" stop-color="#b8b1c0"/><stop offset="1" stop-color="#b8b1c0" stop-opacity="0"/></radialGradient><filter id="filter0_i_18_24255" width="21.53" height="27.27" x="4.71" y="2.75" color-interpolation-filters="sRGB" filterUnits="userSpaceOnUse"><feFlood flood-opacity="0" result="BackgroundImageFix"/><feBlend in="SourceGraphic" in2="BackgroundImageFix" result="shape"/><feColorMatrix in="SourceAlpha" result="hardAlpha" values="0 0 0 0 0 0 0 0 0 0 0 0 0 0 0 0 0 0 127 0"/><feOffset dx=".75" dy=".74"/><feGaussianBlur stdDeviation=".5"/><feComposite in2="hardAlpha" k2="-1" k3="1" operator="arithmetic"/><feColorMatrix values="0 0 0 0 0.0627451 0 0 0 0 0.337255 0 0 0 0 0.713726 0 0 0 1 0"/><feBlend in2="shape" result="effect1_innerShadow_18_24255"/></filter><filter id="filter1_i_18_24255" width="10.96" height="27.28" x="15.11" y="2.75" color-interpolation-filters="sRGB" filterUnits="userSpaceOnUse"><feFlood flood-opacity="0" result="BackgroundImageFix"/><feBlend in="SourceGraphic" in2="BackgroundImageFix" result="shape"/><feColorMatrix in="SourceAlpha" result="hardAlpha" values="0 0 0 0 0 0 0 0 0 0 0 0 0 0 0 0 0 0 127 0"/><feOffset dx="-.4" dy=".8"/><feGaussianBlur stdDeviation=".38"/><feComposite in2="hardAlpha" k2="-1" k3="1" operator="arithmetic"/><feColorMatrix values="0 0 0 0 0.121569 0 0 0 0 0.478431 0 0 0 0 0.843137 0 0 0 1 0"/><feBlend in2="shape" result="effect1_innerShadow_18_24255"/></filter><filter id="filter2_iii_18_24255" width="23.5" height="28.33" x="3.76" y="1.79" color-interpolation-filters="sRGB" filterUnits="userSpaceOnUse"><feFlood flood-opacity="0" result="BackgroundImageFix"/><feBlend in="SourceGraphic" in2="BackgroundImageFix" result="shape"/><feColorMatrix in="SourceAlpha" result="hardAlpha" values="0 0 0 0 0 0 0 0 0 0 0 0 0 0 0 0 0 0 127 0"/><feOffset dx=".25"/><feGaussianBlur stdDeviation=".25"/><feComposite in2="hardAlpha" k2="-1" k3="1" operator="arithmetic"/><feColorMatrix values="0 0 0 0 0.635294 0 0 0 0 0.588235 0 0 0 0 0.596078 0 0 0 1 0"/><feBlend in2="shape" result="effect1_innerShadow_18_24255"/><feColorMatrix in="SourceAlpha" result="hardAlpha" values="0 0 0 0 0 0 0 0 0 0 0 0 0 0 0 0 0 0 127 0"/><feOffset dy="-.25"/><feGaussianBlur stdDeviation=".25"/><feComposite in2="hardAlpha" k2="-1" k3="1" operator="arithmetic"/><feColorMatrix values="0 0 0 0 0.647059 0 0 0 0 0.501961 0 0 0 0 0.745098 0 0 0 1 0"/><feBlend in2="effect1_innerShadow_18_24255" result="effect2_innerShadow_18_24255"/><feColorMatrix in="SourceAlpha" result="hardAlpha" values="0 0 0 0 0 0 0 0 0 0 0 0 0 0 0 0 0 0 127 0"/><feOffset dx="-.25" dy=".15"/><feGaussianBlur stdDeviation=".15"/><feComposite in2="hardAlpha" k2="-1" k3="1" operator="arithmetic"/><feColorMatrix values="0 0 0 0 0.854902 0 0 0 0 0.85098 0 0 0 0 0.862745 0 0 0 1 0"/><feBlend in2="effect2_innerShadow_18_24255" result="effect3_innerShadow_18_24255"/></filter><linearGradient id="paint3_linear_18_24255" x1="4.84" x2="22.01" y1="17.88" y2="17.88" gradientUnits="userSpaceOnUse"><stop stop-color="#b8b3be"/><stop offset="1" stop-color="#bbb3c4"/></linearGradient></defs></svg>