<svg xmlns="http://www.w3.org/2000/svg" fill="none" viewBox="0 0 32 32"><circle cx="7.55" cy="9.97" r="2.22" fill="url(#paint0_radial_18_26261)"/><circle cx="7.55" cy="9.97" r="2.22" fill="url(#paint1_radial_18_26261)"/><g filter="url(#filter0_i_18_26261)"><circle cx="4.07" cy="6.11" r="1.16" fill="url(#paint2_radial_18_26261)"/><circle cx="4.07" cy="6.11" r="1.16" fill="url(#paint3_radial_18_26261)"/></g><g filter="url(#filter1_i_18_26261)"><path fill="url(#paint4_linear_18_26261)" d="M13.54 4.09a6.4 6.4 0 0 1 9.06 0l5.44 5.44a6.4 6.4 0 0 1 0 9.06l-9.58 9.58a6.4 6.4 0 0 1-9.06 0l-5.44-5.44a6.4 6.4 0 0 1 0-9.06z"/><path fill="url(#paint5_radial_18_26261)" d="M13.54 4.09a6.4 6.4 0 0 1 9.06 0l5.44 5.44a6.4 6.4 0 0 1 0 9.06l-9.58 9.58a6.4 6.4 0 0 1-9.06 0l-5.44-5.44a6.4 6.4 0 0 1 0-9.06z"/><path fill="url(#paint6_radial_18_26261)" d="M13.54 4.09a6.4 6.4 0 0 1 9.06 0l5.44 5.44a6.4 6.4 0 0 1 0 9.06l-9.58 9.58a6.4 6.4 0 0 1-9.06 0l-5.44-5.44a6.4 6.4 0 0 1 0-9.06z"/><path fill="url(#paint7_radial_18_26261)" d="M13.54 4.09a6.4 6.4 0 0 1 9.06 0l5.44 5.44a6.4 6.4 0 0 1 0 9.06l-9.58 9.58a6.4 6.4 0 0 1-9.06 0l-5.44-5.44a6.4 6.4 0 0 1 0-9.06z"/><path fill="url(#paint8_radial_18_26261)" d="M13.54 4.09a6.4 6.4 0 0 1 9.06 0l5.44 5.44a6.4 6.4 0 0 1 0 9.06l-9.58 9.58a6.4 6.4 0 0 1-9.06 0l-5.44-5.44a6.4 6.4 0 0 1 0-9.06z"/><path fill="url(#paint9_radial_18_26261)" d="M13.54 4.09a6.4 6.4 0 0 1 9.06 0l5.44 5.44a6.4 6.4 0 0 1 0 9.06l-9.58 9.58a6.4 6.4 0 0 1-9.06 0l-5.44-5.44a6.4 6.4 0 0 1 0-9.06z"/><path fill="url(#paint10_radial_18_26261)" d="M13.54 4.09a6.4 6.4 0 0 1 9.06 0l5.44 5.44a6.4 6.4 0 0 1 0 9.06l-9.58 9.58a6.4 6.4 0 0 1-9.06 0l-5.44-5.44a6.4 6.4 0 0 1 0-9.06z"/></g><g filter="url(#filter2_f_18_26261)"><rect width="13.83" height="19.03" x="17.84" y="4.51" fill="url(#paint11_linear_18_26261)" rx="3" transform="rotate(45 17.84 4.51)"/><rect width="13.83" height="19.03" x="17.84" y="4.51" fill="url(#paint12_linear_18_26261)" rx="3" transform="rotate(45 17.84 4.51)"/><rect width="14.08" height="19.28" x="17.84" y="4.34" stroke="url(#paint13_linear_18_26261)" stroke-width=".25" rx="3.13" transform="rotate(45 17.84 4.34)"/></g><g filter="url(#filter3_i_18_26261)"><circle cx="5.34" cy="13.65" r="3.22" fill="url(#paint14_radial_18_26261)"/><circle cx="5.34" cy="13.65" r="3.22" fill="url(#paint15_radial_18_26261)"/><circle cx="5.34" cy="13.65" r="3.22" fill="url(#paint16_radial_18_26261)"/></g><g filter="url(#filter4_f_18_26261)"><path fill="url(#paint17_linear_18_26261)" d="m15.39 26.24 1.45-20.31a3 3 0 0 1 3.12.7l5.54 5.54a3 3 0 0 1 0 4.25l-9.21 9.2a3 3 0 0 1-.9.62"/><path fill="url(#paint18_radial_18_26261)" d="m15.39 26.24 1.45-20.31a3 3 0 0 1 3.12.7l5.54 5.54a3 3 0 0 1 0 4.25l-9.21 9.2a3 3 0 0 1-.9.62"/></g><circle cx="21.65" cy="26.54" r="2.73" fill="url(#paint19_radial_18_26261)"/><circle cx="21.65" cy="26.54" r="2.73" fill="url(#paint20_radial_18_26261)"/><g filter="url(#filter5_i_18_26261)"><circle cx="25.23" cy="22.42" r="4.68" fill="url(#paint21_radial_18_26261)"/><circle cx="25.23" cy="22.42" r="4.68" fill="url(#paint22_radial_18_26261)"/><circle cx="25.23" cy="22.42" r="4.68" fill="url(#paint23_radial_18_26261)"/></g><circle cx="25.23" cy="22.42" r="4.68" fill="url(#paint24_radial_18_26261)"/><defs><radialGradient id="paint0_radial_18_26261" cx="0" cy="0" r="1" gradientTransform="rotate(-8.08 73.23 -32.8)scale(4.21168)" gradientUnits="userSpaceOnUse"><stop stop-color="#cec4d1"/><stop offset="1" stop-color="#c8c1c9"/></radialGradient><radialGradient id="paint1_radial_18_26261" cx="0" cy="0" r="1" gradientTransform="translate(8.48 9.97)scale(-3.13998)" gradientUnits="userSpaceOnUse"><stop offset=".53" stop-color="#cec5d1" stop-opacity="0"/><stop offset="1" stop-color="#e4dfe8"/></radialGradient><radialGradient id="paint2_radial_18_26261" cx="0" cy="0" r="1" gradientTransform="rotate(168.14 2.09 3.16)scale(1.92063 1.81766)" gradientUnits="userSpaceOnUse"><stop offset=".13" stop-color="#ffedff"/><stop offset=".91" stop-color="#dbcbea"/></radialGradient><radialGradient id="paint3_radial_18_26261" cx="0" cy="0" r="1" gradientTransform="rotate(259.63 4.98 1.6)scale(1.86971)" gradientUnits="userSpaceOnUse"><stop offset=".82" stop-color="#dad4e0" stop-opacity="0"/><stop offset="1" stop-color="#dad4e0"/></radialGradient><radialGradient id="paint5_radial_18_26261" cx="0" cy="0" r="1" gradientTransform="rotate(248.97 17.73 .87)scale(18.5947 25.5852)" gradientUnits="userSpaceOnUse"><stop offset=".71" stop-color="#e082a1" stop-opacity="0"/><stop offset=".96" stop-color="#e1959a"/></radialGradient><radialGradient id="paint6_radial_18_26261" cx="0" cy="0" r="1" gradientTransform="rotate(-46.14 18.3 -1.04)scale(11.0949 7.85755)" gradientUnits="userSpaceOnUse"><stop stop-color="#e775ab"/><stop offset="1" stop-color="#e775ab" stop-opacity="0"/></radialGradient><radialGradient id="paint7_radial_18_26261" cx="0" cy="0" r="1" gradientTransform="rotate(119.05 -2.64 9.55)scale(2.57391 1.92148)" gradientUnits="userSpaceOnUse"><stop stop-color="#e551c0"/><stop offset="1" stop-color="#e551c0" stop-opacity="0"/></radialGradient><radialGradient id="paint8_radial_18_26261" cx="0" cy="0" r="1" gradientTransform="rotate(158.4 8.52 14.22)scale(6.45295 6.86055)" gradientUnits="userSpaceOnUse"><stop offset=".19" stop-color="#d24bb4"/><stop offset="1" stop-color="#d24bb4" stop-opacity="0"/></radialGradient><radialGradient id="paint9_radial_18_26261" cx="0" cy="0" r="1" gradientTransform="rotate(256.76 21.87 -1.15)scale(5.45758 5.04909)" gradientUnits="userSpaceOnUse"><stop offset=".33" stop-color="#e588a9"/><stop offset="1" stop-color="#e588a9" stop-opacity="0"/></radialGradient><radialGradient id="paint10_radial_18_26261" cx="0" cy="0" r="1" gradientTransform="matrix(4.67724 -.375 .51136 6.37804 25.24 11.31)" gradientUnits="userSpaceOnUse"><stop stop-color="#ffa7c0"/><stop offset="1" stop-color="#ffa7c0" stop-opacity="0"/></radialGradient><radialGradient id="paint14_radial_18_26261" cx="0" cy="0" r="1" gradientTransform="rotate(171.77 2.76 6.9)scale(4.41078 4.17429)" gradientUnits="userSpaceOnUse"><stop offset=".13" stop-color="#ffedff"/><stop offset="1" stop-color="#ecaeff"/></radialGradient><radialGradient id="paint15_radial_18_26261" cx="0" cy="0" r="1" gradientTransform="rotate(-25.4 35.94 3.16)scale(3.56313 5.11774)" gradientUnits="userSpaceOnUse"><stop offset=".18" stop-color="#dbb6ff"/><stop offset="1" stop-color="#dbb6ff" stop-opacity="0"/></radialGradient><radialGradient id="paint16_radial_18_26261" cx="0" cy="0" r="1" gradientTransform="rotate(259.63 9.46 5.27)scale(5.16993)" gradientUnits="userSpaceOnUse"><stop offset=".82" stop-color="#dad4e0" stop-opacity="0"/><stop offset="1" stop-color="#dad4e0"/></radialGradient><radialGradient id="paint18_radial_18_26261" cx="0" cy="0" r="1" gradientTransform="rotate(131.29 6.37 15.28)scale(3.87831 2.9553)" gradientUnits="userSpaceOnUse"><stop offset=".07" stop-color="#d35f9e"/><stop offset="1" stop-color="#d35f9e" stop-opacity="0"/></radialGradient><radialGradient id="paint19_radial_18_26261" cx="0" cy="0" r="1" gradientTransform="rotate(-99.46 22.55 4.98)scale(3.45895)" gradientUnits="userSpaceOnUse"><stop stop-color="#eda5ff"/><stop offset="1" stop-color="#c28cdd"/></radialGradient><radialGradient id="paint20_radial_18_26261" cx="0" cy="0" r="1" gradientTransform="rotate(129.24 5.82 18.37)scale(2.75318 3.79157)" gradientUnits="userSpaceOnUse"><stop offset=".38" stop-color="#d89aff"/><stop offset="1" stop-color="#d89aff" stop-opacity="0"/></radialGradient><radialGradient id="paint21_radial_18_26261" cx="0" cy="0" r="1" gradientTransform="rotate(167.65 13.05 12.11)scale(8.01567 7.5859)" gradientUnits="userSpaceOnUse"><stop offset=".22" stop-color="#ffedff"/><stop offset="1" stop-color="#ecaeff"/></radialGradient><radialGradient id="paint22_radial_18_26261" cx="0" cy="0" r="1" gradientTransform="rotate(-29.48 58.6 -26.36)scale(4.59591 6.60113)" gradientUnits="userSpaceOnUse"><stop offset=".18" stop-color="#dbb6ff"/><stop offset="1" stop-color="#dbb6ff" stop-opacity="0"/></radialGradient><radialGradient id="paint23_radial_18_26261" cx="0" cy="0" r="1" gradientTransform="rotate(259.63 23.56 1.66)scale(7.51647)" gradientUnits="userSpaceOnUse"><stop offset=".82" stop-color="#dad4e0" stop-opacity="0"/><stop offset="1" stop-color="#dad4e0"/></radialGradient><radialGradient id="paint24_radial_18_26261" cx="0" cy="0" r="1" gradientTransform="rotate(98.5 4.87 21.04)scale(7.84952 9.63202)" gradientUnits="userSpaceOnUse"><stop offset=".68" stop-color="#f3b7ff" stop-opacity="0"/><stop offset="1" stop-color="#e697ff"/></radialGradient><filter id="filter0_i_18_26261" width="2.43" height="2.43" x="2.91" y="4.85" color-interpolation-filters="sRGB" filterUnits="userSpaceOnUse"><feFlood flood-opacity="0" result="BackgroundImageFix"/><feBlend in="SourceGraphic" in2="BackgroundImageFix" result="shape"/><feColorMatrix in="SourceAlpha" result="hardAlpha" values="0 0 0 0 0 0 0 0 0 0 0 0 0 0 0 0 0 0 127 0"/><feOffset dx=".1" dy="-.1"/><feGaussianBlur stdDeviation=".4"/><feComposite in2="hardAlpha" k2="-1" k3="1" operator="arithmetic"/><feColorMatrix values="0 0 0 0 0.85098 0 0 0 0 0.737255 0 0 0 0 0.92549 0 0 0 1 0"/><feBlend in2="shape" result="effect1_innerShadow_18_26261"/></filter><filter id="filter1_i_18_26261" width="28.14" height="27.84" x="2.08" y="2.21" color-interpolation-filters="sRGB" filterUnits="userSpaceOnUse"><feFlood flood-opacity="0" result="BackgroundImageFix"/><feBlend in="SourceGraphic" in2="BackgroundImageFix" result="shape"/><feColorMatrix in="SourceAlpha" result="hardAlpha" values="0 0 0 0 0 0 0 0 0 0 0 0 0 0 0 0 0 0 127 0"/><feOffset dx=".3"/><feGaussianBlur stdDeviation=".5"/><feComposite in2="hardAlpha" k2="-1" k3="1" operator="arithmetic"/><feColorMatrix values="0 0 0 0 0.94902 0 0 0 0 0.564706 0 0 0 0 0.811765 0 0 0 1 0"/><feBlend in2="shape" result="effect1_innerShadow_18_26261"/></filter><filter id="filter2_f_18_26261" width="22.75" height="22.75" x="4.63" y="4.76" color-interpolation-filters="sRGB" filterUnits="userSpaceOnUse"><feFlood flood-opacity="0" result="BackgroundImageFix"/><feBlend in="SourceGraphic" in2="BackgroundImageFix" result="shape"/><feGaussianBlur result="effect1_foregroundBlur_18_26261" stdDeviation=".38"/></filter><filter id="filter3_i_18_26261" width="6.54" height="6.54" x="2.12" y="10.33" color-interpolation-filters="sRGB" filterUnits="userSpaceOnUse"><feFlood flood-opacity="0" result="BackgroundImageFix"/><feBlend in="SourceGraphic" in2="BackgroundImageFix" result="shape"/><feColorMatrix in="SourceAlpha" result="hardAlpha" values="0 0 0 0 0 0 0 0 0 0 0 0 0 0 0 0 0 0 127 0"/><feOffset dx=".1" dy="-.1"/><feGaussianBlur stdDeviation=".4"/><feComposite in2="hardAlpha" k2="-1" k3="1" operator="arithmetic"/><feColorMatrix values="0 0 0 0 0.909804 0 0 0 0 0.843137 0 0 0 0 0.980392 0 0 0 1 0"/><feBlend in2="shape" result="effect1_innerShadow_18_26261"/></filter><filter id="filter4_f_18_26261" width="12.49" height="21.99" x="14.64" y="5.01" color-interpolation-filters="sRGB" filterUnits="userSpaceOnUse"><feFlood flood-opacity="0" result="BackgroundImageFix"/><feBlend in="SourceGraphic" in2="BackgroundImageFix" result="shape"/><feGaussianBlur result="effect1_foregroundBlur_18_26261" stdDeviation=".38"/></filter><filter id="filter5_i_18_26261" width="9.76" height="9.46" x="20.55" y="17.64" color-interpolation-filters="sRGB" filterUnits="userSpaceOnUse"><feFlood flood-opacity="0" result="BackgroundImageFix"/><feBlend in="SourceGraphic" in2="BackgroundImageFix" result="shape"/><feColorMatrix in="SourceAlpha" result="hardAlpha" values="0 0 0 0 0 0 0 0 0 0 0 0 0 0 0 0 0 0 127 0"/><feOffset dx=".4" dy="-.1"/><feGaussianBlur stdDeviation=".5"/><feComposite in2="hardAlpha" k2="-1" k3="1" operator="arithmetic"/><feColorMatrix values="0 0 0 0 0.792157 0 0 0 0 0.54902 0 0 0 0 0.894118 0 0 0 1 0"/><feBlend in2="shape" result="effect1_innerShadow_18_26261"/></filter><linearGradient id="paint4_linear_18_26261" x1="26.87" x2="7.43" y1="7.81" y2="25.68" gradientUnits="userSpaceOnUse"><stop stop-color="#ffabbd"/><stop offset="1" stop-color="#f756e5"/></linearGradient><linearGradient id="paint11_linear_18_26261" x1="24.75" x2="24.75" y1="4.51" y2="23.1" gradientUnits="userSpaceOnUse"><stop stop-color="#ee7bbe"/><stop offset="1" stop-color="#ff7be6"/></linearGradient><linearGradient id="paint12_linear_18_26261" x1="25.57" x2="25.53" y1="23.8" y2="19.52" gradientUnits="userSpaceOnUse"><stop offset=".18" stop-color="#ff83e6"/><stop offset="1" stop-color="#ff83e6" stop-opacity="0"/></linearGradient><linearGradient id="paint13_linear_18_26261" x1="15.95" x2="20.27" y1="13.32" y2="13.51" gradientUnits="userSpaceOnUse"><stop offset=".49" stop-color="#f89bb9"/><stop offset="1" stop-color="#f89bb9" stop-opacity="0"/></linearGradient><linearGradient id="paint17_linear_18_26261" x1="15.39" x2="24.41" y1="23.81" y2="15.5" gradientUnits="userSpaceOnUse"><stop stop-color="#f068cb"/><stop offset="1" stop-color="#f068cb" stop-opacity="0"/></linearGradient></defs></svg>