<svg xmlns="http://www.w3.org/2000/svg" fill="none" viewBox="0 0 32 32"><path fill="#64b2ff" fill-rule="evenodd" d="M26.5 7.8a2 2 0 0 0-2-2h-4.7a2 2 0 0 0-2 1.5l4.3.3 4.3-.3zv.6L22.1 8l-4.3.4v.9l4.3.4 4.4-.4v1l-4.4-.2-4.3.3v6.5q0 1.5-1 2.8l-2.6 2.9-.8 1c.2 1.5 5 6.7 6.1 5.5l5.6-5.8a5 5 0 0 0 1.4-3.4zm0 11.8-4.7.4c-1.4 0 1.5 3.7 2.8 3.9l.5-.5a5 5 0 0 0 1.4-3.5z" clip-rule="evenodd"/><path fill="url(#paint0_radial_2_244)" fill-rule="evenodd" d="M26.5 7.8a2 2 0 0 0-2-2h-4.7a2 2 0 0 0-2 1.5l4.3.3 4.3-.3zv.6L22.1 8l-4.3.4v.9l4.3.4 4.4-.4v1l-4.4-.2-4.3.3v6.5q0 1.5-1 2.8l-2.6 2.9-.8 1c.2 1.5 5 6.7 6.1 5.5l5.6-5.8a5 5 0 0 0 1.4-3.4zm0 11.8-4.7.4c-1.4 0 1.5 3.7 2.8 3.9l.5-.5a5 5 0 0 0 1.4-3.5z" clip-rule="evenodd"/><path fill="url(#paint1_radial_2_244)" fill-rule="evenodd" d="M26.5 7.8a2 2 0 0 0-2-2h-4.7a2 2 0 0 0-2 1.5l4.3.3 4.3-.3zv.6L22.1 8l-4.3.4v.9l4.3.4 4.4-.4v1l-4.4-.2-4.3.3v6.5q0 1.5-1 2.8l-2.6 2.9-.8 1c.2 1.5 5 6.7 6.1 5.5l5.6-5.8a5 5 0 0 0 1.4-3.4zm0 11.8-4.7.4c-1.4 0 1.5 3.7 2.8 3.9l.5-.5a5 5 0 0 0 1.4-3.5z" clip-rule="evenodd"/><path fill="url(#paint2_radial_2_244)" fill-rule="evenodd" d="M26.5 7.8a2 2 0 0 0-2-2h-4.7a2 2 0 0 0-2 1.5l4.3.3 4.3-.3zv.6L22.1 8l-4.3.4v.9l4.3.4 4.4-.4v1l-4.4-.2-4.3.3v6.5q0 1.5-1 2.8l-2.6 2.9-.8 1c.2 1.5 5 6.7 6.1 5.5l5.6-5.8a5 5 0 0 0 1.4-3.4zm0 11.8-4.7.4c-1.4 0 1.5 3.7 2.8 3.9l.5-.5a5 5 0 0 0 1.4-3.5z" clip-rule="evenodd"/><path fill="url(#paint3_radial_2_244)" fill-rule="evenodd" d="M26.5 7.8a2 2 0 0 0-2-2h-4.7a2 2 0 0 0-2 1.5l4.3.3 4.3-.3zv.6L22.1 8l-4.3.4v.9l4.3.4 4.4-.4v1l-4.4-.2-4.3.3v6.5q0 1.5-1 2.8l-2.6 2.9-.8 1c.2 1.5 5 6.7 6.1 5.5l5.6-5.8a5 5 0 0 0 1.4-3.4zm0 11.8-4.7.4c-1.4 0 1.5 3.7 2.8 3.9l.5-.5a5 5 0 0 0 1.4-3.5z" clip-rule="evenodd"/><path fill="url(#paint4_linear_2_244)" fill-rule="evenodd" d="M26.5 7.8a2 2 0 0 0-2-2h-4.7a2 2 0 0 0-2 1.5l4.3.3 4.3-.3zv.6L22.1 8l-4.3.4v.9l4.3.4 4.4-.4v1l-4.4-.2-4.3.3v6.5q0 1.5-1 2.8l-2.6 2.9-.8 1c.2 1.5 5 6.7 6.1 5.5l5.6-5.8a5 5 0 0 0 1.4-3.4zm0 11.8-4.7.4c-1.4 0 1.5 3.7 2.8 3.9l.5-.5a5 5 0 0 0 1.4-3.5z" clip-rule="evenodd"/><path fill="url(#paint5_linear_2_244)" fill-rule="evenodd" d="M26.5 7.8a2 2 0 0 0-2-2h-4.7a2 2 0 0 0-2 1.5l4.3.3 4.3-.3zv.6L22.1 8l-4.3.4v.9l4.3.4 4.4-.4v1l-4.4-.2-4.3.3v6.5q0 1.5-1 2.8l-2.6 2.9-.8 1c.2 1.5 5 6.7 6.1 5.5l5.6-5.8a5 5 0 0 0 1.4-3.4zm0 11.8-4.7.4c-1.4 0 1.5 3.7 2.8 3.9l.5-.5a5 5 0 0 0 1.4-3.5z" clip-rule="evenodd"/><path fill="url(#paint6_radial_2_244)" fill-rule="evenodd" d="M26.5 7.8a2 2 0 0 0-2-2h-4.7a2 2 0 0 0-2 1.5l4.3.3 4.3-.3zv.6L22.1 8l-4.3.4v.9l4.3.4 4.4-.4v1l-4.4-.2-4.3.3v6.5q0 1.5-1 2.8l-2.6 2.9-.8 1c.2 1.5 5 6.7 6.1 5.5l5.6-5.8a5 5 0 0 0 1.4-3.4zm0 11.8-4.7.4c-1.4 0 1.5 3.7 2.8 3.9l.5-.5a5 5 0 0 0 1.4-3.5z" clip-rule="evenodd"/><path fill="url(#paint7_radial_2_244)" d="M26.5 9.3h-8.6v1h8.6z"/><path fill="url(#paint8_radial_2_244)" d="m26.4 7.3.1.5v.5h-8.6v-1z"/><path fill="url(#paint9_radial_2_244)" d="M26.5 19.5h-5l-.2.4a5 5 0 0 0 3.3 4q1.7-1.5 1.9-4z"/><path fill="url(#paint10_radial_2_244)" d="M13.4 23.6c-.9 1.5-1 3.5.3 4.9 2 2 5 1.4 5.9.5a6 6 0 0 0-3-4.9q-1.6-.8-3.3-.5"/><path fill="url(#paint11_radial_2_244)" d="M13.4 23.6c-.9 1.5-1 3.5.3 4.9 2 2 5 1.4 5.9.5a6 6 0 0 0-3-4.9q-1.6-.8-3.3-.5"/><path fill="url(#paint12_radial_2_244)" fill-rule="evenodd" d="M19.2 4.2a2 2 0 0 0-2-2h-4.7a2 2 0 0 0-2 1.4l4.3.4 4.3-.4zv.5l-4.3-.4-4.3.4v1l4.3.3 4.4-.4v1l-4.4-.2-4.3.3v6.6q0 1.6-1 2.7L7 19q-.5.4-.8 1c.2 1.7 4.8 5.2 5.8 5.3l.2.2.7-.5 5-5.3a5 5 0 0 0 1.4-3.5zm0 11.8-4.7.3c-1.4 0 1.5 3.7 2.8 4l.5-.6a5 5 0 0 0 1.4-3.5z" clip-rule="evenodd"/><path fill="url(#paint13_radial_2_244)" fill-rule="evenodd" d="M19.2 4.2a2 2 0 0 0-2-2h-4.7a2 2 0 0 0-2 1.4l4.3.4 4.3-.4zv.5l-4.3-.4-4.3.4v1l4.3.3 4.4-.4v1l-4.4-.2-4.3.3v6.6q0 1.6-1 2.7L7 19q-.5.4-.8 1c.2 1.7 4.8 5.2 5.8 5.3l.2.2.7-.5 5-5.3a5 5 0 0 0 1.4-3.5zm0 11.8-4.7.3c-1.4 0 1.5 3.7 2.8 4l.5-.6a5 5 0 0 0 1.4-3.5z" clip-rule="evenodd"/><path fill="url(#paint14_radial_2_244)" fill-rule="evenodd" d="M19.2 4.2a2 2 0 0 0-2-2h-4.7a2 2 0 0 0-2 1.4l4.3.4 4.3-.4zv.5l-4.3-.4-4.3.4v1l4.3.3 4.4-.4v1l-4.4-.2-4.3.3v6.6q0 1.6-1 2.7L7 19q-.5.4-.8 1c.2 1.7 4.8 5.2 5.8 5.3l.2.2.7-.5 5-5.3a5 5 0 0 0 1.4-3.5zm0 11.8-4.7.3c-1.4 0 1.5 3.7 2.8 4l.5-.6a5 5 0 0 0 1.4-3.5z" clip-rule="evenodd"/><path fill="url(#paint15_radial_2_244)" fill-rule="evenodd" d="M19.2 4.2a2 2 0 0 0-2-2h-4.7a2 2 0 0 0-2 1.4l4.3.4 4.3-.4zv.5l-4.3-.4-4.3.4v1l4.3.3 4.4-.4v1l-4.4-.2-4.3.3v6.6q0 1.6-1 2.7L7 19q-.5.4-.8 1c.2 1.7 4.8 5.2 5.8 5.3l.2.2.7-.5 5-5.3a5 5 0 0 0 1.4-3.5zm0 11.8-4.7.3c-1.4 0 1.5 3.7 2.8 4l.5-.6a5 5 0 0 0 1.4-3.5z" clip-rule="evenodd"/><path fill="url(#paint16_radial_2_244)" fill-rule="evenodd" d="M19.2 4.2a2 2 0 0 0-2-2h-4.7a2 2 0 0 0-2 1.4l4.3.4 4.3-.4zv.5l-4.3-.4-4.3.4v1l4.3.3 4.4-.4v1l-4.4-.2-4.3.3v6.6q0 1.6-1 2.7L7 19q-.5.4-.8 1c.2 1.7 4.8 5.2 5.8 5.3l.2.2.7-.5 5-5.3a5 5 0 0 0 1.4-3.5zm0 11.8-4.7.3c-1.4 0 1.5 3.7 2.8 4l.5-.6a5 5 0 0 0 1.4-3.5z" clip-rule="evenodd"/><path fill="url(#paint17_linear_2_244)" fill-rule="evenodd" d="M19.2 4.2a2 2 0 0 0-2-2h-4.7a2 2 0 0 0-2 1.4l4.3.4 4.3-.4zv.5l-4.3-.4-4.3.4v1l4.3.3 4.4-.4v1l-4.4-.2-4.3.3v6.6q0 1.6-1 2.7L7 19q-.5.4-.8 1c.2 1.7 4.8 5.2 5.8 5.3l.2.2.7-.5 5-5.3a5 5 0 0 0 1.4-3.5zm0 11.8-4.7.3c-1.4 0 1.5 3.7 2.8 4l.5-.6a5 5 0 0 0 1.4-3.5z" clip-rule="evenodd"/><path fill="url(#paint18_radial_2_244)" fill-rule="evenodd" d="M19.2 4.2a2 2 0 0 0-2-2h-4.7a2 2 0 0 0-2 1.4l4.3.4 4.3-.4zv.5l-4.3-.4-4.3.4v1l4.3.3 4.4-.4v1l-4.4-.2-4.3.3v6.6q0 1.6-1 2.7L7 19q-.5.4-.8 1c.2 1.7 4.8 5.2 5.8 5.3l.2.2.7-.5 5-5.3a5 5 0 0 0 1.4-3.5zm0 11.8-4.7.3c-1.4 0 1.5 3.7 2.8 4l.5-.6a5 5 0 0 0 1.4-3.5z" clip-rule="evenodd"/><path fill="url(#paint19_radial_2_244)" fill-rule="evenodd" d="M19.2 4.2a2 2 0 0 0-2-2h-4.7a2 2 0 0 0-2 1.4l4.3.4 4.3-.4zv.5l-4.3-.4-4.3.4v1l4.3.3 4.4-.4v1l-4.4-.2-4.3.3v6.6q0 1.6-1 2.7L7 19q-.5.4-.8 1c.2 1.7 4.8 5.2 5.8 5.3l.2.2.7-.5 5-5.3a5 5 0 0 0 1.4-3.5zm0 11.8-4.7.3c-1.4 0 1.5 3.7 2.8 4l.5-.6a5 5 0 0 0 1.4-3.5z" clip-rule="evenodd"/><path fill="url(#paint20_radial_2_244)" d="M19.2 5.6h-8.7v1h8.7z"/><path fill="url(#paint21_radial_2_244)" d="M19.1 3.6v1.1h-8.6V3.6z"/><path fill="url(#paint22_radial_2_244)" d="M19.2 16h-5l-.2.2a4 4 0 0 0 3.3 4l.5-.5a5 5 0 0 0 1.4-3.5z"/><path fill="url(#paint23_radial_2_244)" d="M6 20c-.7 1.7-.8 3.7.6 5 2 2 5.3 1.3 6.4 0 0-2-1.7-4-3.4-4.7a6 6 0 0 0-3.5-.2"/><defs><radialGradient id="paint0_radial_2_244" cx="0" cy="0" r="1" gradientTransform="rotate(107.7 2.1 14.7)scale(11.0219 5.65916)" gradientUnits="userSpaceOnUse"><stop offset=".4" stop-color="#509bff"/><stop offset=".9" stop-color="#5ca9ff" stop-opacity="0"/></radialGradient><radialGradient id="paint1_radial_2_244" cx="0" cy="0" r="1" gradientTransform="rotate(119.2 2.2 13.9)scale(8.38042 3.56235)" gradientUnits="userSpaceOnUse"><stop offset=".7" stop-color="#4886d8"/><stop offset=".9" stop-color="#5aa7ff" stop-opacity="0"/></radialGradient><radialGradient id="paint2_radial_2_244" cx="0" cy="0" r="1" gradientTransform="matrix(-.1248 11 -4.10356 -.04656 16.6 11)" gradientUnits="userSpaceOnUse"><stop offset=".3" stop-color="#4886d8"/><stop offset=".9" stop-color="#4886d8" stop-opacity="0"/></radialGradient><radialGradient id="paint3_radial_2_244" cx="0" cy="0" r="1" gradientTransform="rotate(16.8 -2 78.1)scale(8.87786 11.7031)" gradientUnits="userSpaceOnUse"><stop offset=".2" stop-color="#69cbff"/><stop offset="1" stop-color="#62c3ff" stop-opacity="0"/></radialGradient><radialGradient id="paint6_radial_2_244" cx="0" cy="0" r="1" gradientTransform="rotate(52.7 6.2 29)scale(1.76723 2.37608)" gradientUnits="userSpaceOnUse"><stop offset=".1" stop-color="#86d6ff"/><stop offset="1" stop-color="#6ecdff" stop-opacity="0"/></radialGradient><radialGradient id="paint7_radial_2_244" cx="0" cy="0" r="1" gradientTransform="matrix(0 6.78125 -7.1875 0 24.1 9.6)" gradientUnits="userSpaceOnUse"><stop offset=".3" stop-color="#4669ff"/><stop offset="1" stop-color="#2f55da"/></radialGradient><radialGradient id="paint8_radial_2_244" cx="0" cy="0" r="1" gradientTransform="matrix(0 6.78125 -7.1875 0 24.1 7.6)" gradientUnits="userSpaceOnUse"><stop offset=".3" stop-color="#4669ff"/><stop offset="1" stop-color="#2f55da"/></radialGradient><radialGradient id="paint9_radial_2_244" cx="0" cy="0" r="1" gradientTransform="rotate(54.4 -8.9 31.4)scale(6.92886 6.86112)" gradientUnits="userSpaceOnUse"><stop stop-color="#3e5dff"/><stop offset=".5" stop-color="#3454ff"/><stop offset=".7" stop-color="#3842ff"/></radialGradient><radialGradient id="paint10_radial_2_244" cx="0" cy="0" r="1" gradientTransform="rotate(131.8 3 16.4)scale(12.3882 10.9947)" gradientUnits="userSpaceOnUse"><stop stop-color="#407aff"/><stop offset=".4" stop-color="#3c6eff"/><stop offset=".4" stop-color="#3859ff"/></radialGradient><radialGradient id="paint11_radial_2_244" cx="0" cy="0" r="1" gradientTransform="rotate(124.9 1.5 15)scale(5.02805 1.06425)" gradientUnits="userSpaceOnUse"><stop offset=".4" stop-color="#2542e3"/><stop offset="1" stop-color="#2b50ff" stop-opacity="0"/></radialGradient><radialGradient id="paint12_radial_2_244" cx="0" cy="0" r="1" gradientTransform="rotate(88.5 -2.3 9.9)scale(19.319 13.938)" gradientUnits="userSpaceOnUse"><stop offset="0" stop-color="#e0b248"/><stop offset=".5" stop-color="#fbcd56"/><stop offset="1" stop-color="#fdea49"/></radialGradient><radialGradient id="paint13_radial_2_244" cx="0" cy="0" r="1" gradientTransform="rotate(86.4 10.2 11.9)scale(17.6609 9.90212)" gradientUnits="userSpaceOnUse"><stop offset=".2" stop-color="#fdec4b"/><stop offset="1" stop-color="#fdec4b" stop-opacity="0"/></radialGradient><radialGradient id="paint14_radial_2_244" cx="0" cy="0" r="1" gradientTransform="rotate(85.3 .6 8.1)scale(12.2285 3.0587)" gradientUnits="userSpaceOnUse"><stop offset=".5" stop-color="#b8943e"/><stop offset=".9" stop-color="#f1c34d" stop-opacity="0"/></radialGradient><radialGradient id="paint15_radial_2_244" cx="0" cy="0" r="1" gradientTransform="rotate(139 -1 10.2)scale(8.70463 2.35468)" gradientUnits="userSpaceOnUse"><stop offset=".7" stop-color="#b8943e"/><stop offset=".9" stop-color="#f1c34d" stop-opacity="0"/></radialGradient><radialGradient id="paint16_radial_2_244" cx="0" cy="0" r="1" gradientTransform="rotate(116.8 .2 10)scale(3.39606 1.76741)" gradientUnits="userSpaceOnUse"><stop offset=".5" stop-color="#b8943e"/><stop offset=".9" stop-color="#f1c34d" stop-opacity="0"/></radialGradient><radialGradient id="paint18_radial_2_244" cx="0" cy="0" r="1" gradientTransform="rotate(101.7 2.9 14.8)scale(27.7633 15.5664)" gradientUnits="userSpaceOnUse"><stop offset=".7" stop-color="#ad9a37" stop-opacity="0"/><stop offset=".7" stop-color="#ad9a37"/></radialGradient><radialGradient id="paint19_radial_2_244" cx="0" cy="0" r="1" gradientTransform="rotate(53.7 6 19.3)scale(2.01727 1.3211)" gradientUnits="userSpaceOnUse"><stop stop-color="#fff958"/><stop offset="1" stop-color="#feec50" stop-opacity="0"/></radialGradient><radialGradient id="paint20_radial_2_244" cx="0" cy="0" r="1" gradientTransform="matrix(0 6.91211 -9.43856 0 15.6 6.2)" gradientUnits="userSpaceOnUse"><stop offset=".3" stop-color="#5872ff"/><stop offset=".6" stop-color="#4154e6"/></radialGradient><radialGradient id="paint21_radial_2_244" cx="0" cy="0" r="1" gradientTransform="matrix(0 6.66211 -9.25 0 15.8 4.2)" gradientUnits="userSpaceOnUse"><stop offset=".3" stop-color="#5872ff"/><stop offset=".6" stop-color="#4154e6"/></radialGradient><radialGradient id="paint22_radial_2_244" cx="0" cy="0" r="1" gradientTransform="rotate(53.5 -9.3 22.8)scale(6.83768)" gradientUnits="userSpaceOnUse"><stop stop-color="#5a61ff"/><stop offset=".5" stop-color="#575aff"/><stop offset=".7" stop-color="#4553ff"/></radialGradient><radialGradient id="paint23_radial_2_244" cx="0" cy="0" r="1" gradientTransform="rotate(136.2 1 13)scale(13.1725 11.6918)" gradientUnits="userSpaceOnUse"><stop stop-color="#5b61ff"/><stop offset=".4" stop-color="#5754ff"/><stop offset=".5" stop-color="#3f48c1"/></radialGradient><linearGradient id="paint4_linear_2_244" x1="22.8" x2="21.6" y1="25.9" y2="24.7" gradientUnits="userSpaceOnUse"><stop stop-color="#5c6eff"/><stop offset=".3" stop-color="#6099ff"/><stop offset="1" stop-color="#65a9ff" stop-opacity="0"/></linearGradient><linearGradient id="paint5_linear_2_244" x1="26.9" x2="25.6" y1="14.4" y2="14.4" gradientUnits="userSpaceOnUse"><stop stop-color="#54a3e6"/><stop offset="1" stop-color="#5cb5ff" stop-opacity="0"/></linearGradient><linearGradient id="paint17_linear_2_244" x1="15.7" x2="13.8" y1="22.1" y2="20.2" gradientUnits="userSpaceOnUse"><stop stop-color="#e59b64"/><stop offset=".2" stop-color="#fdbb5c"/><stop offset="1" stop-color="#febf5c" stop-opacity="0"/></linearGradient></defs></svg>