<svg xmlns="http://www.w3.org/2000/svg" fill="none" viewBox="0 0 32 32"><g filter="url(#filter0_i_18_25789)"><path fill="url(#paint0_radial_18_25789)" d="M24.3 21.3c0-2.8 1.5-3.5 2.3-3.7H13L6.7 29a1 1 0 0 0 1 1.5h14.6a2 2 0 0 0 2-2z"/><path fill="url(#paint1_linear_18_25789)" d="M24.3 21.3c0-2.8 1.5-3.5 2.3-3.7H13L6.7 29a1 1 0 0 0 1 1.5h14.6a2 2 0 0 0 2-2z"/><path fill="url(#paint2_radial_18_25789)" d="M24.3 21.3c0-2.8 1.5-3.5 2.3-3.7H13L6.7 29a1 1 0 0 0 1 1.5h14.6a2 2 0 0 0 2-2z"/><path fill="url(#paint3_radial_18_25789)" d="M24.3 21.3c0-2.8 1.5-3.5 2.3-3.7H13L6.7 29a1 1 0 0 0 1 1.5h14.6a2 2 0 0 0 2-2z"/></g><path fill="#bba8d2" d="M3.2 16.8a10 10 0 0 0 19.8 0z"/><path fill="url(#paint4_radial_18_25789)" d="M3.2 16.8a10 10 0 0 0 19.8 0z"/><path fill="url(#paint5_radial_18_25789)" d="M3.2 16.8a10 10 0 0 0 19.8 0z"/><path fill="url(#paint6_radial_18_25789)" d="M3.2 16.8a10 10 0 0 0 19.8 0z"/><path fill="url(#paint7_radial_18_25789)" d="M3.2 16.8a10 10 0 0 0 19.8 0z"/><path fill="url(#paint8_radial_18_25789)" d="M3.2 16.8a10 10 0 0 0 19.8 0z"/><path fill="#beb0cd" d="M3 15.8a1 1 0 0 1 1-1h19.6v2.4H3.3L3 17z"/><path fill="url(#paint9_radial_18_25789)" d="M3 15.8a1 1 0 0 1 1-1h19.6v2.4H3.3L3 17z"/><path fill="url(#paint10_radial_18_25789)" d="M3 15.8a1 1 0 0 1 1-1h19.6v2.4H3.3L3 17z"/><path fill="url(#paint11_linear_18_25789)" d="M3 15.8a1 1 0 0 1 1-1h19.6v2.4H3.3L3 17z"/><path fill="url(#paint12_radial_18_25789)" d="M3 15.8a1 1 0 0 1 1-1h19.6v2.4H3.3L3 17z"/><path fill="url(#paint13_linear_18_25789)" d="M20 3q0-.6.6-.6h7.2q.5 0 .6.6v12.2a2.5 2.5 0 0 1-2.5 2.5h-3.4a2.5 2.5 0 0 1-2.5-2.5z"/><path fill="url(#paint14_radial_18_25789)" d="M20 3q0-.6.6-.6h7.2q.5 0 .6.6v12.2a2.5 2.5 0 0 1-2.5 2.5h-3.4a2.5 2.5 0 0 1-2.5-2.5z"/><path fill="url(#paint15_linear_18_25789)" d="M20 3q0-.6.6-.6h7.2q.5 0 .6.6v12.2a2.5 2.5 0 0 1-2.5 2.5h-3.4a2.5 2.5 0 0 1-2.5-2.5z"/><g filter="url(#filter1_iii_18_25789)"><path fill="url(#paint16_linear_18_25789)" d="M20 3q0-.6.6-.6h7.2q.5 0 .6.6v12.2a2.5 2.5 0 0 1-2.5 2.5h-3.4a2.5 2.5 0 0 1-2.5-2.5z"/></g><defs><radialGradient id="paint0_radial_18_25789" cx="0" cy="0" r="1" gradientTransform="matrix(-11.3738 0 0 -17.5807 24.6 24)" gradientUnits="userSpaceOnUse"><stop stop-color="#decff0"/><stop offset="1" stop-color="#cdbae4"/></radialGradient><radialGradient id="paint2_radial_18_25789" cx="0" cy="0" r="1" gradientTransform="rotate(73.4 -9.8 18)scale(6.67998 10.3254)" gradientUnits="userSpaceOnUse"><stop offset=".2" stop-color="#baa2d5"/><stop offset="1" stop-color="#baa2d5" stop-opacity="0"/></radialGradient><radialGradient id="paint3_radial_18_25789" cx="0" cy="0" r="1" gradientTransform="matrix(0 5.76433 -.82347 0 24.5 24.8)" gradientUnits="userSpaceOnUse"><stop stop-color="#ebe0f8"/><stop offset="1" stop-color="#ebe0f8" stop-opacity="0"/></radialGradient><radialGradient id="paint4_radial_18_25789" cx="0" cy="0" r="1" gradientTransform="rotate(111.2 2 14.5)scale(6.56934 6.56696)" gradientUnits="userSpaceOnUse"><stop stop-color="#ccbae0"/><stop offset="1" stop-color="#ccbae0" stop-opacity="0"/></radialGradient><radialGradient id="paint5_radial_18_25789" cx="0" cy="0" r="1" gradientTransform="matrix(0 -5.94531 9.1875 0 12.5 25.7)" gradientUnits="userSpaceOnUse"><stop offset=".1" stop-color="#b492d6"/><stop offset="1" stop-color="#b494d5" stop-opacity="0"/></radialGradient><radialGradient id="paint6_radial_18_25789" cx="0" cy="0" r="1" gradientTransform="matrix(0 6.8125 -10.9 0 22.5 15.3)" gradientUnits="userSpaceOnUse"><stop offset=".4" stop-color="#9f8cb4"/><stop offset="1" stop-color="#cab8df" stop-opacity="0"/></radialGradient><radialGradient id="paint7_radial_18_25789" cx="0" cy="0" r="1" gradientTransform="matrix(0 3.4375 -7.62422 0 5 15.4)" gradientUnits="userSpaceOnUse"><stop stop-color="#a79bb6"/><stop offset="1" stop-color="#a79bb6" stop-opacity="0"/></radialGradient><radialGradient id="paint8_radial_18_25789" cx="0" cy="0" r="1" gradientTransform="rotate(163.7 6.6 10)scale(13.1026 16.1336)" gradientUnits="userSpaceOnUse"><stop offset=".7" stop-color="#d0cbd8" stop-opacity="0"/><stop offset="1" stop-color="#d0cbd8"/></radialGradient><radialGradient id="paint9_radial_18_25789" cx="0" cy="0" r="1" gradientTransform="matrix(0 -3.59375 11.0436 0 17.2 17.2)" gradientUnits="userSpaceOnUse"><stop offset=".2" stop-color="#d0c4de"/><stop offset="1" stop-color="#d0c4de" stop-opacity="0"/></radialGradient><radialGradient id="paint10_radial_18_25789" cx="0" cy="0" r="1" gradientTransform="matrix(1.375 0 0 3.15652 3.4 15.3)" gradientUnits="userSpaceOnUse"><stop stop-color="#d0c4de"/><stop offset="1" stop-color="#d0c4de" stop-opacity="0"/></radialGradient><radialGradient id="paint12_radial_18_25789" cx="0" cy="0" r="1" gradientTransform="rotate(131.1 6.7 11.7)scale(4.24778 16.1579)" gradientUnits="userSpaceOnUse"><stop offset=".2" stop-color="#a89eb5"/><stop offset="1" stop-color="#a89eb5" stop-opacity="0"/></radialGradient><radialGradient id="paint14_radial_18_25789" cx="0" cy="0" r="1" gradientTransform="rotate(147 13.8 5.5)scale(1.49086 .44607)" gradientUnits="userSpaceOnUse"><stop stop-color="#f2eff7"/><stop offset="1" stop-color="#ebe2f7" stop-opacity="0"/></radialGradient><linearGradient id="paint1_linear_18_25789" x1="24.9" x2="22.3" y1="16.7" y2="25.2" gradientUnits="userSpaceOnUse"><stop stop-color="#baa6d0"/><stop offset="1" stop-color="#baa6d0" stop-opacity="0"/></linearGradient><linearGradient id="paint11_linear_18_25789" x1="15.3" x2="15.3" y1="17.2" y2="16.8" gradientUnits="userSpaceOnUse"><stop stop-color="#b5adc0"/><stop offset="1" stop-color="#b5adc0" stop-opacity="0"/></linearGradient><linearGradient id="paint13_linear_18_25789" x1="24.2" x2="24.2" y1="2.1" y2="3.5" gradientUnits="userSpaceOnUse"><stop stop-color="#d7d5db"/><stop offset="1" stop-color="#d7d5db" stop-opacity="0"/></linearGradient><linearGradient id="paint15_linear_18_25789" x1="26.2" x2="26.2" y1="18" y2="16.7" gradientUnits="userSpaceOnUse"><stop stop-color="#b99fd5"/><stop offset="1" stop-color="#b99fd5" stop-opacity="0"/></linearGradient><linearGradient id="paint16_linear_18_25789" x1="24.2" x2="24.2" y1="2.4" y2="17.7" gradientUnits="userSpaceOnUse"><stop stop-color="#d8cfe5"/><stop offset="1" stop-color="#d2c4e4"/></linearGradient><filter id="filter0_i_18_25789" width="20.1" height="13.3" x="6.6" y="17.2" color-interpolation-filters="sRGB" filterUnits="userSpaceOnUse"><feFlood flood-opacity="0" result="BackgroundImageFix"/><feBlend in="SourceGraphic" in2="BackgroundImageFix" result="shape"/><feColorMatrix in="SourceAlpha" result="hardAlpha" values="0 0 0 0 0 0 0 0 0 0 0 0 0 0 0 0 0 0 127 0"/><feOffset dx=".2" dy="-.4"/><feGaussianBlur stdDeviation=".3"/><feComposite in2="hardAlpha" k2="-1" k3="1" operator="arithmetic"/><feColorMatrix values="0 0 0 0 0.752941 0 0 0 0 0.662745 0 0 0 0 0.854902 0 0 0 1 0"/><feBlend in2="shape" result="effect1_innerShadow_18_25789"/></filter><filter id="filter1_iii_18_25789" width="10.9" height="16.1" x="19" y="1.6" color-interpolation-filters="sRGB" filterUnits="userSpaceOnUse"><feFlood flood-opacity="0" result="BackgroundImageFix"/><feBlend in="SourceGraphic" in2="BackgroundImageFix" result="shape"/><feColorMatrix in="SourceAlpha" result="hardAlpha" values="0 0 0 0 0 0 0 0 0 0 0 0 0 0 0 0 0 0 127 0"/><feOffset dx="1.5"/><feGaussianBlur stdDeviation=".8"/><feComposite in2="hardAlpha" k2="-1" k3="1" operator="arithmetic"/><feColorMatrix values="0 0 0 0 0.752941 0 0 0 0 0.721569 0 0 0 0 0.8 0 0 0 1 0"/><feBlend in2="shape" result="effect1_innerShadow_18_25789"/><feColorMatrix in="SourceAlpha" result="hardAlpha" values="0 0 0 0 0 0 0 0 0 0 0 0 0 0 0 0 0 0 127 0"/><feOffset dy="-.8"/><feGaussianBlur stdDeviation=".8"/><feComposite in2="hardAlpha" k2="-1" k3="1" operator="arithmetic"/><feColorMatrix values="0 0 0 0 0.721569 0 0 0 0 0.615686 0 0 0 0 0.835294 0 0 0 1 0"/><feBlend in2="effect1_innerShadow_18_25789" result="effect2_innerShadow_18_25789"/><feColorMatrix in="SourceAlpha" result="hardAlpha" values="0 0 0 0 0 0 0 0 0 0 0 0 0 0 0 0 0 0 127 0"/><feOffset dx="-1"/><feGaussianBlur stdDeviation=".5"/><feComposite in2="hardAlpha" k2="-1" k3="1" operator="arithmetic"/><feColorMatrix values="0 0 0 0 0.917647 0 0 0 0 0.882353 0 0 0 0 0.964706 0 0 0 1 0"/><feBlend in2="effect2_innerShadow_18_25789" result="effect3_innerShadow_18_25789"/></filter></defs></svg>