<svg xmlns="http://www.w3.org/2000/svg" fill="none" viewBox="0 0 32 32"><path fill="url(#paint0_radial_7000_5028)" d="M11.2 29.8c.53.31 1.18.3 1.7-.01 2.67-1.57 7.05-4.97 8.8-9.35 2.64-5.86-3.56-10.54-7.85-7.18-.4.32-.89.67-1.26 1.01-.25.23-.68.25-.93.03-.5-.44-1.21-.96-1.68-1.28-3.65-2.47-10.3.79-7.46 7.74 1 3.04 5.74 7.32 8.68 9.04"/><path fill="url(#paint1_radial_7000_5028)" d="M11.2 29.8c.53.31 1.18.3 1.7-.01 2.67-1.57 7.05-4.97 8.8-9.35 2.64-5.86-3.56-10.54-7.85-7.18-.4.32-.89.67-1.26 1.01-.25.23-.68.25-.93.03-.5-.44-1.21-.96-1.68-1.28-3.65-2.47-10.3.79-7.46 7.74 1 3.04 5.74 7.32 8.68 9.04"/><path fill="url(#paint2_radial_7000_5028)" d="M11.2 29.8c.53.31 1.18.3 1.7-.01 2.67-1.57 7.05-4.97 8.8-9.35 2.64-5.86-3.56-10.54-7.85-7.18-.4.32-.89.67-1.26 1.01-.25.23-.68.25-.93.03-.5-.44-1.21-.96-1.68-1.28-3.65-2.47-10.3.79-7.46 7.74 1 3.04 5.74 7.32 8.68 9.04"/><path fill="url(#paint3_radial_7000_5028)" d="M11.2 29.8c.53.31 1.18.3 1.7-.01 2.67-1.57 7.05-4.97 8.8-9.35 2.64-5.86-3.56-10.54-7.85-7.18-.4.32-.89.67-1.26 1.01-.25.23-.68.25-.93.03-.5-.44-1.21-.96-1.68-1.28-3.65-2.47-10.3.79-7.46 7.74 1 3.04 5.74 7.32 8.68 9.04"/><path fill="url(#paint4_linear_7000_5028)" d="M11.2 29.8c.53.31 1.18.3 1.7-.01 2.67-1.57 7.05-4.97 8.8-9.35 2.64-5.86-3.56-10.54-7.85-7.18-.4.32-.89.67-1.26 1.01-.25.23-.68.25-.93.03-.5-.44-1.21-.96-1.68-1.28-3.65-2.47-10.3.79-7.46 7.74 1 3.04 5.74 7.32 8.68 9.04"/><path fill="url(#paint5_linear_7000_5028)" d="M11.2 29.8c.53.31 1.18.3 1.7-.01 2.67-1.57 7.05-4.97 8.8-9.35 2.64-5.86-3.56-10.54-7.85-7.18-.4.32-.89.67-1.26 1.01-.25.23-.68.25-.93.03-.5-.44-1.21-.96-1.68-1.28-3.65-2.47-10.3.79-7.46 7.74 1 3.04 5.74 7.32 8.68 9.04"/><path fill="url(#paint6_linear_7000_5028)" d="M11.68 14.32c.84.85 2.23.57 3.03-.31.8-.9 1.88-1.7 3.24-1.79a5 5 0 0 0-4.1 1.04l-.35.27a12 12 0 0 0-1.02.85c-.19.18-.52.2-.7.02z"/><g filter="url(#filter0_f_7000_5028)"><path fill="#fa1c56" d="M12.51 16.4v8.3c0 .9 1.02 1.26 1.48.48 1.28-2.15 2.36-5.18 1.6-7.64a2.6 2.6 0 0 0-2.52-1.87c-.36.02-.56.37-.56.73"/></g><g filter="url(#filter1_f_7000_5028)"><ellipse cx="18.51" cy="16.7" fill="url(#paint7_radial_7000_5028)" rx="3.06" ry="2.11" transform="rotate(-44.19 18.5 16.7)"/></g><g filter="url(#filter2_f_7000_5028)"><ellipse cx="9.75" cy="17.08" fill="url(#paint8_radial_7000_5028)" fill-opacity=".6" rx="3.9" ry="2.11" transform="rotate(-128.96 9.75 17.08)"/></g><path fill="url(#paint9_radial_7000_5028)" d="M22.51 13.4a1.6 1.6 0 0 0 1.7 0c1.76-1.1 4.4-3.25 5.5-5.98 1.73-3.86-2.35-6.94-5.17-4.72-.2.16-.45.33-.66.51-.26.22-.7.24-.95.02-.31-.25-.68-.52-.94-.7-2.4-1.62-6.77.52-4.9 5.1.63 1.9 3.48 4.55 5.42 5.78"/><path fill="url(#paint10_radial_7000_5028)" d="M22.51 13.4a1.6 1.6 0 0 0 1.7 0c1.76-1.1 4.4-3.25 5.5-5.98 1.73-3.86-2.35-6.94-5.17-4.72-.2.16-.45.33-.66.51-.26.22-.7.24-.95.02-.31-.25-.68-.52-.94-.7-2.4-1.62-6.77.52-4.9 5.1.63 1.9 3.48 4.55 5.42 5.78"/><path fill="url(#paint11_radial_7000_5028)" d="M22.51 13.4a1.6 1.6 0 0 0 1.7 0c1.76-1.1 4.4-3.25 5.5-5.98 1.73-3.86-2.35-6.94-5.17-4.72-.2.16-.45.33-.66.51-.26.22-.7.24-.95.02-.31-.25-.68-.52-.94-.7-2.4-1.62-6.77.52-4.9 5.1.63 1.9 3.48 4.55 5.42 5.78"/><path fill="url(#paint12_radial_7000_5028)" d="M22.51 13.4a1.6 1.6 0 0 0 1.7 0c1.76-1.1 4.4-3.25 5.5-5.98 1.73-3.86-2.35-6.94-5.17-4.72-.2.16-.45.33-.66.51-.26.22-.7.24-.95.02-.31-.25-.68-.52-.94-.7-2.4-1.62-6.77.52-4.9 5.1.63 1.9 3.48 4.55 5.42 5.78"/><path fill="url(#paint13_linear_7000_5028)" d="M22.51 13.4a1.6 1.6 0 0 0 1.7 0c1.76-1.1 4.4-3.25 5.5-5.98 1.73-3.86-2.35-6.94-5.17-4.72-.2.16-.45.33-.66.51-.26.22-.7.24-.95.02-.31-.25-.68-.52-.94-.7-2.4-1.62-6.77.52-4.9 5.1.63 1.9 3.48 4.55 5.42 5.78"/><path fill="url(#paint14_linear_7000_5028)" d="M22.51 13.4a1.6 1.6 0 0 0 1.7 0c1.76-1.1 4.4-3.25 5.5-5.98 1.73-3.86-2.35-6.94-5.17-4.72-.2.16-.45.33-.66.51-.26.22-.7.24-.95.02-.31-.25-.68-.52-.94-.7-2.4-1.62-6.77.52-4.9 5.1.63 1.9 3.48 4.55 5.42 5.78"/><path fill="url(#paint15_linear_7000_5028)" d="M23.11 3.4c.56.55 1.47.37 2-.21A3.2 3.2 0 0 1 27.24 2a3.3 3.3 0 0 0-2.7.69l-.23.17c-.23.18-.34.28-.56.42-.13.12-.62.12-.74 0 .13.13.07.1.1.1"/><g filter="url(#filter3_f_7000_5028)"><ellipse cx="27.61" cy="4.96" fill="url(#paint16_radial_7000_5028)" rx="2.01" ry="1.39" transform="rotate(-44.19 27.6 4.96)"/></g><g filter="url(#filter4_f_7000_5028)"><ellipse cx="21.84" cy="5.21" fill="url(#paint17_radial_7000_5028)" fill-opacity=".6" rx="2.57" ry="1.39" transform="rotate(-128.96 21.84 5.2)"/></g><g filter="url(#filter5_f_7000_5028)"><path fill="#fa1c56" d="M23.66 4.38v8.5c1.08-1.15 2.72-5.13 2.02-7.37-.35-1.13-1.54-1.4-2.02-1.13"/></g><defs><radialGradient id="paint0_radial_7000_5028" cx="0" cy="0" r="1" gradientTransform="matrix(0 -23.9627 40.7367 0 14.16 29.77)" gradientUnits="userSpaceOnUse"><stop stop-color="#f12e52"/><stop offset=".6" stop-color="#ff3b79"/><stop offset="1" stop-color="#ff4ec6"/></radialGradient><radialGradient id="paint1_radial_7000_5028" cx="0" cy="0" r="1" gradientTransform="rotate(142.99 5.77 11.28)scale(19.29 36.132)" gradientUnits="userSpaceOnUse"><stop offset=".48" stop-color="#b91d43" stop-opacity="0"/><stop offset=".83" stop-color="#b91d43"/></radialGradient><radialGradient id="paint2_radial_7000_5028" cx="0" cy="0" r="1" gradientTransform="rotate(201.34 9.5 9.36)scale(16.7324 23.6536)" gradientUnits="userSpaceOnUse"><stop offset=".41" stop-color="#b91d43" stop-opacity="0"/><stop offset=".83" stop-color="#b91d43"/></radialGradient><radialGradient id="paint3_radial_7000_5028" cx="0" cy="0" r="1" gradientTransform="rotate(90 -3.47 15.15)scale(14.5627)" gradientUnits="userSpaceOnUse"><stop offset=".67" stop-color="#ff7af2" stop-opacity="0"/><stop offset=".93" stop-color="#ffbce6"/></radialGradient><radialGradient id="paint7_radial_7000_5028" cx="0" cy="0" r="1" gradientTransform="rotate(183.23 11.04 8.37)scale(4.52751 3.05718)" gradientUnits="userSpaceOnUse"><stop stop-color="#ff93ba"/><stop offset="1" stop-color="#ff73a6" stop-opacity="0"/></radialGradient><radialGradient id="paint8_radial_7000_5028" cx="0" cy="0" r="1" gradientTransform="rotate(181.33 6.13 8.75)scale(8.31012 4.40121)" gradientUnits="userSpaceOnUse"><stop stop-color="#ff93ba"/><stop offset="1" stop-color="#ff73a6" stop-opacity="0"/></radialGradient><radialGradient id="paint9_radial_7000_5028" cx="0" cy="0" r="1" gradientTransform="matrix(0 -15.7644 26.7994 0 24.74 13.56)" gradientUnits="userSpaceOnUse"><stop stop-color="#f12e52"/><stop offset=".6" stop-color="#ff3b79"/><stop offset="1" stop-color="#ff4ec6"/></radialGradient><radialGradient id="paint10_radial_7000_5028" cx="0" cy="0" r="1" gradientTransform="rotate(142.99 12.52 6.99)scale(12.6903 23.7702)" gradientUnits="userSpaceOnUse"><stop offset=".48" stop-color="#b91d43" stop-opacity="0"/><stop offset=".83" stop-color="#b91d43"/></radialGradient><radialGradient id="paint11_radial_7000_5028" cx="0" cy="0" r="1" gradientTransform="rotate(201.34 13.4 1.7)scale(11.0078 15.561)" gradientUnits="userSpaceOnUse"><stop offset=".41" stop-color="#b91d43" stop-opacity="0"/><stop offset=".83" stop-color="#b91d43"/></radialGradient><radialGradient id="paint12_radial_7000_5028" cx="0" cy="0" r="1" gradientTransform="rotate(90 8.45 14.66)scale(9.58038)" gradientUnits="userSpaceOnUse"><stop offset=".67" stop-color="#ff7af2" stop-opacity="0"/><stop offset=".93" stop-color="#ffbce6"/></radialGradient><radialGradient id="paint16_radial_7000_5028" cx="0" cy="0" r="1" gradientTransform="rotate(183.23 14.9 2.27)scale(2.97851 2.01123)" gradientUnits="userSpaceOnUse"><stop stop-color="#ff93ba"/><stop offset="1" stop-color="#ff73a6" stop-opacity="0"/></radialGradient><radialGradient id="paint17_radial_7000_5028" cx="0" cy="0" r="1" gradientTransform="rotate(181.33 11.71 2.65)scale(5.46698 2.89543)" gradientUnits="userSpaceOnUse"><stop stop-color="#ff93ba"/><stop offset="1" stop-color="#ff73a6" stop-opacity="0"/></radialGradient><linearGradient id="paint4_linear_7000_5028" x1="13.28" x2="19.18" y1="20.32" y2="27.33" gradientUnits="userSpaceOnUse"><stop offset=".69" stop-color="#ff7af2" stop-opacity="0"/><stop offset=".93" stop-color="#ffbce6"/></linearGradient><linearGradient id="paint5_linear_7000_5028" x1="12.55" x2="5.64" y1="20.61" y2="28.41" gradientUnits="userSpaceOnUse"><stop offset=".69" stop-color="#ff7af2" stop-opacity="0"/><stop offset=".93" stop-color="#ffbce6"/></linearGradient><linearGradient id="paint6_linear_7000_5028" x1="14.81" x2="12.75" y1="15.33" y2="13.06" gradientUnits="userSpaceOnUse"><stop offset=".41" stop-color="#c12372" stop-opacity="0"/><stop offset=".83" stop-color="#b5286e"/></linearGradient><linearGradient id="paint13_linear_7000_5028" x1="24.17" x2="28.04" y1="7.34" y2="11.95" gradientUnits="userSpaceOnUse"><stop offset=".69" stop-color="#ff7af2" stop-opacity="0"/><stop offset=".93" stop-color="#ffbce6"/></linearGradient><linearGradient id="paint14_linear_7000_5028" x1="23.69" x2="19.14" y1="7.53" y2="12.66" gradientUnits="userSpaceOnUse"><stop offset=".69" stop-color="#ff7af2" stop-opacity="0"/><stop offset=".93" stop-color="#ffbce6"/></linearGradient><linearGradient id="paint15_linear_7000_5028" x1="25.17" x2="23.81" y1="4.06" y2="2.56" gradientUnits="userSpaceOnUse"><stop offset=".41" stop-color="#c12372" stop-opacity="0"/><stop offset=".83" stop-color="#b5286e"/></linearGradient><filter id="filter0_f_7000_5028" width="7.32" height="13.95" x="10.51" y="13.67" color-interpolation-filters="sRGB" filterUnits="userSpaceOnUse"><feFlood flood-opacity="0" result="BackgroundImageFix"/><feBlend in="SourceGraphic" in2="BackgroundImageFix" result="shape"/><feGaussianBlur result="effect1_foregroundBlur_7000_5028" stdDeviation="1"/></filter><filter id="filter1_f_7000_5028" width="8.28" height="8.23" x="14.37" y="12.59" color-interpolation-filters="sRGB" filterUnits="userSpaceOnUse"><feFlood flood-opacity="0" result="BackgroundImageFix"/><feBlend in="SourceGraphic" in2="BackgroundImageFix" result="shape"/><feGaussianBlur result="effect1_foregroundBlur_7000_5028" stdDeviation=".75"/></filter><filter id="filter2_f_7000_5028" width="8.9" height="9.63" x="5.3" y="12.26" color-interpolation-filters="sRGB" filterUnits="userSpaceOnUse"><feFlood flood-opacity="0" result="BackgroundImageFix"/><feBlend in="SourceGraphic" in2="BackgroundImageFix" result="shape"/><feGaussianBlur result="effect1_foregroundBlur_7000_5028" stdDeviation=".75"/></filter><filter id="filter3_f_7000_5028" width="6.48" height="6.44" x="24.37" y="1.74" color-interpolation-filters="sRGB" filterUnits="userSpaceOnUse"><feFlood flood-opacity="0" result="BackgroundImageFix"/><feBlend in="SourceGraphic" in2="BackgroundImageFix" result="shape"/><feGaussianBlur result="effect1_foregroundBlur_7000_5028" stdDeviation=".75"/></filter><filter id="filter4_f_7000_5028" width="6.88" height="7.36" x="18.4" y="1.53" color-interpolation-filters="sRGB" filterUnits="userSpaceOnUse"><feFlood flood-opacity="0" result="BackgroundImageFix"/><feBlend in="SourceGraphic" in2="BackgroundImageFix" result="shape"/><feGaussianBlur result="effect1_foregroundBlur_7000_5028" stdDeviation=".75"/></filter><filter id="filter5_f_7000_5028" width="4.19" height="10.6" x="22.66" y="3.28" color-interpolation-filters="sRGB" filterUnits="userSpaceOnUse"><feFlood flood-opacity="0" result="BackgroundImageFix"/><feBlend in="SourceGraphic" in2="BackgroundImageFix" result="shape"/><feGaussianBlur result="effect1_foregroundBlur_7000_5028" stdDeviation=".5"/></filter></defs></svg>